<?xml version="1.0" encoding="UTF-8"?>
<svg id="Flying_Token" data-name="Flying Token" xmlns="http://www.w3.org/2000/svg" viewBox="0 0 300.68 420.05">
  <defs>
    <style>
      .cls-1 {
        fill: #2d0c02;
      }

      .cls-2 {
        fill: #c4d107;
      }

      .cls-3 {
        fill: #775a05;
      }

      .cls-4 {
        fill: #e7ded1;
      }

      .cls-5 {
        fill: #a18703;
      }

      .cls-6 {
        fill: #420c08;
      }

      .cls-7 {
        fill: #756f08;
      }

      .cls-8 {
        fill: #d30600;
      }

      .cls-9 {
        fill: #db6234;
      }

      .cls-10 {
        fill: #e3a600;
      }

      .cls-11 {
        fill: #fcee00;
      }

      .cls-12 {
        fill: #e99542;
      }

      .cls-13 {
        fill: #1f070a;
      }

      .cls-14 {
        fill: #692d1d;
      }

      .cls-15 {
        fill: #c36c00;
      }

      .cls-16 {
        fill: #060c01;
      }

      .cls-17 {
        fill: #fffefe;
      }

      .cls-18 {
        fill: #f20706;
      }

      .cls-19 {
        fill: #7f0a0c;
      }

      .cls-20 {
        fill: #010100;
      }

      .cls-21 {
        fill: #7b2703;
      }

      .cls-22 {
        fill: #d7b602;
      }

      .cls-23 {
        fill: #691904;
      }

      .cls-24 {
        fill: #5c6e06;
      }

      .cls-25 {
        fill: #c88d03;
      }

      .cls-26 {
        fill: #5a0407;
      }

      .cls-27 {
        fill: #666008;
      }

      .cls-28 {
        fill: #b6060a;
      }

      .cls-29 {
        fill: #120301;
      }

      .cls-30 {
        fill: #ff0;
      }

      .cls-31 {
        fill: #9b0a0b;
      }
    </style>
  </defs>
  <rect x=".26" width="300" height="420"/>
  <g id="Generative_Object" data-name="Generative Object">
    <path class="cls-11" d="M199.38,201.1l26.36,50.83c-.68-.23-3.32-.39-3.59-.51-.7-.33,1.16-1.37,0-1.71s-14.36-.07-14.89.51c-3.28,11.89-7.93,23.48-10.95,35.43-.29,1.14-.78,2.29-1.03,3.42-.4,1.84-.81,3.59-1.03,5.48-.06.49-.1.61-.34,1.03-1.52-1.09-3.06-.67-4.79-.34.37-.59,1.07-3.87,1.54-4.79-.63-.29-7.9,2.49-9.24,1.37v7.53c1.04-3.5,3.83-2.24,6.33-3.08l-11.3,48.78c-.59-1.99-.39-4.28-.34-6.33.3-14.08,1.03-28.16.68-42.27-1.05.9-2.1,1.46-3.42,1.88-.97.31-2.52.28-2.74.34,12.87-14.58,22.75-31.61,33.54-47.75l-31.66-.51-.86-2.57,48.6-1.37-23.28-44.15c.14-.94,1.81-.88,2.4-1.2Z"/>
    <path class="cls-11" d="M128.87,297.96c-1.92.79-4.05-.71-5.31-2.05-.33.26-.18,3.15-.17,3.77.21,10.94.44,21.92.68,32.86.09,4.24.42,8.63,0,12.84-1.87-9.56-3.49-19.3-5.82-28.75-1.46-5.9-3.39-14.95-5.48-20.37,3.1,1.21,5.4-.57,6.33,3.42l-.34-8.21c-2.06,1.39-6.67-.48-8.9-1.37-.31.15,1.35,4.7,1.54,5.13-1.72-.63-3.1-.19-4.79,0-.51-1.79-.66-3.66-1.03-5.48-.28-1.38-1.02-2.76-1.37-4.11-2.97-11.6-7.31-22.89-10.61-34.4-6.45-.99-13.17-1.13-19.17,1.37l27.04-51.17c.19.09,2.05.15,2.22.34l.17.86-23.62,45.18c5.52,1.24,45.87-1.93,47.24,0,.08.12.06,2.4-.17,2.57l-30.63.86c4.91,8.3,10.3,16.35,15.75,24.3,2.79,4.08,13.43,20.4,16.43,22.42Z"/>
    <path class="cls-20" d="M146.33,98.07c-.72,6.8,8.7,6.29,7.87.34,24.06.05,46.83,10.95,64.52,26.7,1.82,1.62,3.05,3.56,4.62,5.13-2.67.72-3.29,3.86-4.11,4.79-1.18-.85.41-2.72.34-3.25-.23-1.68-14.92-13.04-17.29-14.55-11.56-7.37-32.83-15.57-46.55-15.4-2.78.03-1.34,3.79-2.91,5.99-3.32,4.65-7.27-1.6-6.5-5.48-13.41-.22-28.53,4.2-40.56,10.44-3.69,1.91-24.73,16.02-25.16,19-.07.52,1.56,3.47,1.71,4.28-1.97-1.84-3.06-4.59-5.48-6.16,19.25-18.77,42.03-30.91,69.48-31.83Z"/>
    <path class="cls-11" d="M73.76,133.67c-1.44,2.43-4.61,2.71-5.82,6.16.02-.55.37-1.47.34-1.54-.37-.95-15.7-7.14-16.6-7.02s-2.08,6.79-4.96,6.33l12.66,16.94c.19,1.57,1.55,2.82,2.4,4.11,3.97,6.06,7.14,12.73,11.64,18.48-.18.11-.33-.23-.68.34-.95,1.51.25,3.09,1.37,4.11-.18.79,1.47,5.35.51,5.13-3.72-5.43-6.29-11.68-9.76-17.29-1.57-2.54-3.54-4.9-5.13-7.36-.82-1.26-1.89-2.3-2.4-3.08-5.25-8.06-11.75-16.57-16.43-24.82-2.23-3.92-5.39-8.28,1.54-9.07l31.32,8.56Z"/>
    <path class="cls-11" d="M242.85,158.31c-.82,1.27-1.88,2.43-2.74,3.77-5.03,7.84-9.7,15.99-13.69,24.47l-.51.51-.17-5.48c.64-.43.76-.28,1.37-1.03,1.18-1.45.31-1.08.34-1.71s-.42-.77-.34-1.37c4.22-6.17,7.66-12.87,11.64-19.17.7-1.11,1.44-2.82,2.05-3.77,3.74-5.82,8.34-11.28,12.32-16.94-2.53-.94-3.83-3.6-4.11-6.16-5.69,1.84-12.24,3.48-17.46,7.02-.9-1.28-2.67-3.2-3.77-4.45l30.98-9.24c4.72,2.86,2.48,5.05.51,8.73-4.45,8.32-11.26,16.8-16.43,24.82Z"/>
    <path class="cls-20" d="M251.41,191.17c1.91,24.41-5.17,49.17-19.51,68.8-.69-.87-2.28-.58-1.54-2.4-2.1-1.59-6.64.56-7.36,2.74-1.93-1.92-2.12-4.84-1.37-7.36,2.55-2.36,5.76,3.83,7.36,3.59,2.44-.36,11.72-20,12.84-23.1,2.84-7.87,8.54-35.36,5.13-42.27,1.23-.22,3.36.12,4.45,0Z"/>
    <path class="cls-20" d="M52.88,191.17c-.91,13.77.58,27.83,5.13,40.9,1.21,3.47,10.88,25.09,14.2,24.47.76-.14,3.98-5.28,6.33-3.59,2.23,1.59-.34,5.91-1.03,7.36-3.09-3.37-5.8-4.71-8.9-.68-14.73-19.13-21.73-44.27-19.51-68.46.12-1.23,2.03.19,3.77,0Z"/>
    <g>
      <path class="cls-11" d="M250.38,181.93c7.29.16,15.08.81,22.42,1.71,1.07.13,7.69.86,7.7,1.54-.65.67-1.71.97-2.57,1.2-6.16,1.67-20.08,4.09-26.53,4.79-1.09.12-3.22-.22-4.45,0-.11-.22.06-.76-.51-1.03l-23.45,3.94,2.22-6.33-.34,3.77c3.27-1.98,18.77-4.32,20.37-6.67.17-.24-.13-1.91,1.03-2.91,1.67-1.44,2.5-.03,4.11,0Z"/>
      <path class="cls-11" d="M49.8,181.59c1.5.54,3.08.25,4.45,1.37.49.4.95,2.38,2.22,3.08.85.47,17.85,5.19,18.83,5.13,1.96-.12-.73-2.12,0-3.42l2.57,6.33-21.74-3.94c-1.64-.3-1.68.86-3.25,1.03-1.73.19-3.65-1.23-3.77,0l-29.09-5.99,29.78-3.59Z"/>
    </g>
    <path class="cls-11" d="M231.9,259.97c.11.14-.12,1.05,0,1.2,6.99,8.7,15.66,16.8,22.59,25.67l-1.2.17c-7.44-7.12-19.72-12.68-26.7-19.85-.02-.02-.38.49-.51.34-.15-.17-1.84-3.62-2.05-4.11-.46-1.05-1.51-1.61-1.03-3.08.72-2.18,5.26-4.33,7.36-2.74-.74,1.81.85,1.53,1.54,2.4Z"/>
    <path class="cls-11" d="M77.53,260.31c-.55,1.16-.45,1.51-1.37,3.08-.5.86-1.86,2.43-2.05,4.11-7.87,3.28-19.93,16.81-26.87,19.51-.55.21-.78.46-1.2-.17,6.77-8.54,14.67-16.23,21.56-24.64.37-.46.94-2.46,1.03-2.57,3.1-4.02,5.81-2.68,8.9.68Z"/>
    <path class="cls-20" d="M76.16,263.39c7.68,8.87,17.14,17.79,28.07,22.25.35,1.35,1.09,2.72,1.37,4.11l-1.03,1.37c-.63-1.65-2.88-2.33-4.45-3.08-.05-.02-.42-.98-.86-.68-.28.19.89,1.27-.86,1.03-1.81-3.13-2.89-1.9-4.45-3.08-.74-.56-1.65-1.06-2.05-1.37-6.3-4.95-11.89-11.03-17.8-16.43.19-1.68,1.55-3.25,2.05-4.11Z"/>
    <path class="cls-20" d="M224.03,263.39c.21.49,1.9,3.94,2.05,4.11-4.83,6.13-11.71,10.29-17.11,15.75-.67.67-2.01.77-2.05,2.05-1.97.31-2.98.74-4.11,2.4-1.82-1.36-1.34-.01-2.05.34-1.45.73-2.89,1.57-4.45,2.05l-1.03-1.03c.25-1.13.74-2.29,1.03-3.42,10.99-4.59,20.08-13.28,27.73-22.25Z"/>
    <path class="cls-20" d="M76.5,139.14c-.35.68-3.28,1.75-4.45,2.91-4.01,3.99-7.01,11.89-10.27,16.6-.84-1.29-2.21-2.54-2.4-4.11,1.09-3.39,8.22-11.33,8.9-13.86.12-.45-.35-.52-.34-.86,1.21-3.45,4.38-3.73,5.82-6.16.23-.39-.49-.49,0-1.37,2.99.66,3.99,4.42,2.74,6.85Z"/>
    <path class="cls-11" d="M226.42,132.64c-3.5.62-3.84,3.96-2.4,6.85l-19.51,8.21c-.23-1.35-.43-2.18-1.03-3.42,3.61-1.95,7.14-3.97,10.61-6.16.48-.3,1.31-.5,2.05-1.03,1.22-.86,1.86-.65,3.08-2.05.81-.94,1.44-4.07,4.11-4.79.71.72,1.64.82,3.08,2.4Z"/>
    <path class="cls-11" d="M82.32,136.06c3.53,3.31,10.35,5.34,14.38,8.21-.67,1.39-1.11,2.21-1.37,3.77l-18.83-8.9c1.25-2.42.25-6.18-2.74-6.85.85-1.5,2.23-1.56,3.08-2.4,2.41,1.57,3.51,4.32,5.48,6.16Z"/>
    <path class="cls-20" d="M227.79,134.01c1.1,1.25,2.86,3.17,3.77,4.45.37.53.64,2.33,1.03,2.91,2.88,4.33,5.95,8.47,8.21,13.18-.61.95-1.35,2.66-2.05,3.77-2.92-3.71-9.58-19.1-14.72-18.83-1.44-2.88-1.1-6.23,2.4-6.85.42.45.94.88,1.37,1.37Z"/>
    <path class="cls-11" d="M154.2,98.41c.83,5.95-8.59,6.45-7.87-.34.01-.11.91-1.02,1.03-1.88.93-6.99,1.15-14.35,2.91-21.05,1.09,7.22,1.75,14.53,2.91,21.74.09.59,1.01,1.45,1.03,1.54Z"/>
    <path class="cls-20" d="M59.73,162.08l-5.48,20.88c-1.37-1.12-2.95-.83-4.45-1.37l7.53-22.59c.51.78,1.57,1.82,2.4,3.08Z"/>
    <path class="cls-20" d="M250.38,181.93c-1.61-.03-2.44-1.44-4.11,0l-6.16-19.85c.86-1.34,1.92-2.49,2.74-3.77l7.53,23.62Z"/>
    <path class="cls-29" d="M203.49,144.28c.6,1.24.8,2.08,1.03,3.42,1.57,9.18-1.9,16.12-9.07,21.56-1.61,1.22-11.07,6-11.12,7.02,0,.16,1.32,2.72,1.88,2.57,8.99-8.75,19.68-3.06,29.78-2.05,3.78.38,8.09-1.19,11.12.68-.08.6.38.73.34,1.37-2.14-3.17-5.16-.86-8.04-1.03-14.15-.83-24.67-8.77-36.11,4.79,2.98-3.62.74-6.94-.34-1.03-.92-3.24,3.07-3.72.34-5.82,5.19-2.21,15.77-9.24,18.48-14.2,3.14-5.75,2.97-14.05-1.2-19.34.74,5.19-.21,12.55-4.45,16.09-2.44,2.04-22.16,8.98-24.82,8.56-1.12-.18-2.09-1.8-3.25-2.05-1.52-.34-3.45.16-4.96.34,4.05-3.29,6.66,1.77,10.1,1.03-.5-1.44,1.05-.98.17-3.42,1.64,3.08,1.26,1.68,3.77,1.37,5.21-.65,17.49-4.75,20.54-9.07,3.33-4.72,2.6-12.01,1.54-17.29.71,2.58,3.19,4.27,4.28,6.5Z"/>
    <g>
      <path class="cls-18" d="M112.78,296.25c2.09,5.42,4.02,14.46,5.48,20.37,2.33,9.45,3.95,19.19,5.82,28.75.42-4.21.09-8.6,0-12.84l-.68-32.86c-.01-.61-.15-3.5.17-3.77,1.26,1.34,3.38,2.85,5.31,2.05,2.29,1.54,6.45,2.3,9.24,2.74,1.41,6.37,2.79,12.78,4.11,19.17l7.19,40.05c.29,2.14.4,4.36.68,6.5-.09.54-.08,1.03-.34,1.54.36.54.72.62,1.03,0,.67-1.36,1.57-11.83,2.05-14.55.56-.08.34-.93.34-1.37,0-.34-.03-.69,0-1.03.6-.29.33-1.47.34-2.05.22-1.49.48-2.94.68-4.45,2.72-14.6,4.86-29.34,8.21-43.81,3.02-.48,5.33-1.27,8.21-2.05.22-.06,1.77-.03,2.74-.34l2.74-.17v40.56c-.04,2.05-.25,4.35.34,6.33l11.3-48.78c.65-.22.54-.08,1.03-.68-2.34,14.98-6.12,29.69-9.24,44.5l-4.79,23.62c-.95,4.75-1.63,10.35-2.74,14.89-.1.39-.33,2.31-1.03,1.71.94-17.72.91-35.49,1.37-53.23.16-6.26,1.99-19.46,0-24.3-.16-.39.24-1.42-.17-1.71-.47-.33-5.98-.08-6.67.86-.46.62-2.71,13.27-3.08,15.23l-5.13,35.26c-.75,5.23-1.34,10.51-2.05,15.75l-4.79,28.92c-3.55-27.06-6.35-54.4-12.66-80.95-.48-2.01-2.69-13.59-3.08-14.2-.62-.97-5.57-1.21-6.33-.86-.83.39-.33,1.3-.51,1.71-1.34,2.96-.17,27.88,0,33.72.02.63-.34,1.69.68,1.54.26,14.76.1,29.66,1.37,44.33-.61.64-.98-1.14-1.03-1.37-.96-4.43-1.5-9.59-2.4-14.2-.16-8.08-2.96-16.36-4.79-24.3-3.59-15.57-7.12-31.15-9.93-46.89.02.06,1,.63,1.03.68Z"/>
      <path class="cls-18" d="M93.96,285.3l10.44,48.95c-.17-12.85.64-25.84.17-38.68.9-.7,1.57-.29,2.05-.34l.51,68.11-15.23-79.41c.4.31,1.31.81,2.05,1.37Z"/>
      <path class="cls-18" d="M193.9,295.57c.25-.41.29-.54.34-1.03.7-.65,1.25-.13,1.37.51,1.2,6.36-.25,19.39,0,26.7.02.63-.35,1.69.68,1.54.08,3.36-.06,6.73,0,10.1,1.12-.97.72-3.57,1.03-5.13,2.86-14.37,7.31-28.52,9.58-42.96.04-1.28,1.39-1.38,2.05-2.05l-15.23,77.7.17-65.38Z"/>
      <path class="cls-31" d="M155.23,368.13c-1.5,11.06-3.32,22.08-4.45,33.2h-.34c-2.89-28.55-7.74-56.98-12.66-85.23,6.32,26.55,9.12,53.89,12.66,80.95l4.79-28.92Z"/>
      <path class="cls-20" d="M189.11,295.22c-.23.37-.33.32-.34.34-.49.61-.38.47-1.03.68-2.5.84-5.29-.42-6.33,3.08v-7.53c1.35,1.12,8.61-1.66,9.24-1.37-.47.92-1.17,4.2-1.54,4.79Z"/>
      <path class="cls-20" d="M112.78,296.25c-.02-.06-1-.63-1.03-.68,0-.02-.14.12-.34-.34-.19-.44-1.85-4.98-1.54-5.13,2.23.89,6.84,2.75,8.9,1.37l.34,8.21c-.93-4-3.23-2.21-6.33-3.42Z"/>
      <path class="cls-31" d="M127.84,302.76c.38,11.74.48,23.51.68,35.26-1.03.15-.67-.92-.68-1.54-.17-5.84-1.34-30.76,0-33.72Z"/>
      <path class="cls-31" d="M157.28,352.39l5.13-35.26c-2.18,11.66-3.44,23.52-5.13,35.26Z"/>
      <path class="cls-28" d="M172.34,327.06v-24.3c1.99,4.84.16,18.04,0,24.3Z"/>
      <path class="cls-19" d="M126.47,366.76c-1.58-8.1-3.33-16.18-4.79-24.3,1.83,7.94,4.63,16.22,4.79,24.3Z"/>
      <path class="cls-31" d="M174.74,363.68l4.79-23.62c-1.66,7.86-3.22,15.74-4.79,23.62Z"/>
      <path class="cls-11" d="M162.41,300.7c-3.36,14.48-5.49,29.21-8.21,43.81.65-4.67,1.43-9.43,1.88-14.03-3.03,11.33-3.46,23.46-5.31,35.08-.03.22-.68.8-.68.86-.29-2.15-.39-4.36-.68-6.5-1.84-13.45-4.44-26.76-7.19-40.05-1.32-6.39-2.7-12.8-4.11-19.17,2.21.35,5.34-.13,7.7.34,1.22.53,1.51,7.47,1.71,8.9,1.62-1.81-.74-6.86.51-8.39.47-.57,4.12-.74,4.62-.51,1.47.65-.47,11.29.34,11.3l1.54-10.78c.77-.99,6.47-.63,7.87-.86Z"/>
      <path class="cls-31" d="M176.11,338.7v-40.56l-2.74.17c1.33-.43,2.37-.98,3.42-1.88.35,14.11-.38,28.19-.68,42.27Z"/>
      <path class="cls-3" d="M154.2,344.51c-.3,1.6-.66,2.76-.68,4.45-.1.69-.27,1.31-.34,2.05-.03.33,0,.69,0,1.03-.61.1-.26.93-.34,1.37-.49,2.71-1.38,13.19-2.05,14.55-.3.62-.67.54-1.03,0,.26-.51.26-1,.34-1.54,0-.05.65-.64.68-.86,1.85-11.62,2.27-23.75,5.31-35.08-.45,4.6-1.24,9.36-1.88,14.03Z"/>
      <path class="cls-31" d="M149.41,359.92l-7.19-40.05c2.75,13.28,5.35,26.59,7.19,40.05Z"/>
      <path class="cls-31" d="M124.08,332.53c-.24-10.94-.48-21.92-.68-32.86l.68,32.86Z"/>
      <path class="cls-10" d="M153.51,348.96c.03-1.69.39-2.85.68-4.45-.21,1.51-.46,2.96-.68,4.45Z"/>
      <path class="cls-12" d="M153.17,351.02c.07-.74.24-1.37.34-2.05,0,.58.26,1.77-.34,2.05Z"/>
      <path class="cls-9" d="M152.83,353.41c.08-.44-.27-1.27.34-1.37,0,.43.22,1.29-.34,1.37Z"/>
      <path class="cls-31" d="M196.3,290.09c-.77,11.05-.28,22.15,0,33.2-1.03.15-.66-.91-.68-1.54-.25-7.31,1.2-20.34,0-26.7-.12-.65-.67-1.17-1.37-.51.22-1.88.63-3.64,1.03-5.48l1.03,1.03Z"/>
      <path class="cls-19" d="M106.62,295.22c-.48.05-1.15-.36-2.05.34-.05-1.43.55-3,0-4.45l1.03-1.37c.37,1.81.52,3.69,1.03,5.48Z"/>
      <path class="cls-11" d="M98.41,288.38c.47.82.51,2.55,1.2,3.42l.51-3.77c1.57.75,3.82,1.43,4.45,3.08.55,1.45-.05,3.02,0,4.45.47,12.84-.34,25.83-.17,38.68l-10.44-48.95c1.56,1.18,2.64-.05,4.45,3.08Z"/>
      <path class="cls-11" d="M206.91,285.3c-2.27,14.44-6.73,28.59-9.58,42.96-.31,1.56.1,4.17-1.03,5.13-.06-3.36.08-6.74,0-10.1-.28-11.05-.77-22.15,0-33.2,1.56-.48,3-1.33,4.45-2.05l.51,3.77c.52-1.13.88-3.13,1.54-4.11,1.13-1.65,2.14-2.08,4.11-2.4Z"/>
      <path class="cls-23" d="M100.12,288.04l-.51,3.77c-.69-.87-.73-2.61-1.2-3.42,1.75.24.58-.84.86-1.03.44-.3.81.66.86.68Z"/>
      <path class="cls-31" d="M202.8,287.69c-.66.97-1.02,2.98-1.54,4.11l-.51-3.77c.71-.36.24-1.7,2.05-.34Z"/>
    </g>
    <path class="cls-17" d="M157.96,197.67c.13,3.25,2.34,6.01,2.4,8.9.08,4.12-3.16,8.08-2.74,12.49.3,3.11,3.3,7.95,4.79,10.78.13.41.17,1.19.34,1.71.91,2.7,2,1.66,3.94,3.42,1.66,1.52,4.17,3.44,3.94,5.82-1.15.54-1.91-.76-3.08-1.71-5.15-4.17-6.08-3.52-12.66-3.08-5.23.35-5.38.32-10.61,0-3.62-.22-4.92-.34-8.56.34-1.43.27-3.35,1.83-3.77,0,1.36-1.41,4.98-3.31,5.13-3.59.35-.66-.38-1.31-.34-1.37,1.23-2.32,2.5-4.14,3.42-6.67,1.26-1.74,2.03-4.39,2.05-6.5.03-2.36-1.8-8.34-2.74-10.61-.36-3.26,2.16-6.52,2.4-9.58.45-5.89-4.23-6.32-6.16-11.12-1.64-4.06-4.34-17.71.17-20.37,2.88-1.69,5.47.82,8.21,1.03,3.26.25,8.75.28,11.98,0,2.97-.26,6.04-3.55,8.73-.17,3.66,4.61.38,18.25-2.74,22.93-2.25,3.38-4.3,2.6-4.11,7.36Z"/>
    <g>
      <path class="cls-18" d="M246.27,181.93c-1.15.99-.86,2.67-1.03,2.91-1.6,2.35-17.1,4.69-20.37,6.67l.34-3.77-2.22,6.33,23.45-3.94c.57.27.4.8.51,1.03,3.4,6.91-2.29,34.4-5.13,42.27-1.12,3.1-10.4,22.74-12.84,23.1-1.59.24-4.8-5.96-7.36-3.59-.75,2.52-.56,5.44,1.37,7.36-.48,1.47.57,2.03,1.03,3.08-7.64,8.97-16.74,17.65-27.73,22.25,3.02-11.95,7.67-23.54,10.95-35.43.53-.58,13.71-.86,14.89-.51s-.7,1.38,0,1.71c.27.13,2.91.28,3.59.51l-26.36-50.83c10.29-5.6,16.83-13.03,26.36-19.51l.17,5.48.51-.51c3.99-8.48,8.66-16.63,13.69-24.47l6.16,19.85Z"/>
      <g>
        <path class="cls-29" d="M203.32,272.98c1.27-.26,1.64,1.29.68,1.71-1.56.69-1.94-1.45-.68-1.71Z"/>
        <path class="cls-20" d="M218.38,258.6c.74-.25,1.82.21,1.54,1.2-.33,1.16-3.29-.61-1.54-1.2Z"/>
        <path class="cls-20" d="M240.63,202.47c.71.03,1.05,1.75.34,2.05-1.4.59-1.64-2.12-.34-2.05Z"/>
        <path class="cls-29" d="M239.94,194.94c.63-.2,1.79,1.36.68,1.71-1.22.38-1.64-1.41-.68-1.71Z"/>
        <path class="cls-13" d="M239.94,210.68c.76-.27,1.49,1.43.68,1.71-1.57.54-1.51-1.42-.68-1.71Z"/>
        <path class="cls-29" d="M238.91,218.21c.63-.2,1.79,1.36.68,1.71-1.22.38-1.64-1.41-.68-1.71Z"/>
        <path class="cls-29" d="M210.16,267.5c1.49-.44,1.53,1.05.68,1.37-1.01.38-1.66-1.08-.68-1.37Z"/>
        <path class="cls-29" d="M239.26,214.79c.91-.22,1.19,1.5.34,1.71-.91.22-1.19-1.5-.34-1.71Z"/>
        <path class="cls-20" d="M240.63,184.32c2.06.6-1.43,2.66-1.2.86.02-.13,1.13-.88,1.2-.86Z"/>
        <path class="cls-29" d="M232.75,236.69c1.09-.34,1.62,1.08.68,1.37-1.09.34-1.62-1.08-.68-1.37Z"/>
        <path class="cls-29" d="M240.28,198.7c.59-.12,1.39,1.45.34,1.71-.93.23-1.16-1.55-.34-1.71Z"/>
        <path class="cls-29" d="M238.91,177.48c.47.07.77,1.38.34,1.71-1.2.92-1.4-1.86-.34-1.71Z"/>
        <path class="cls-29" d="M236.52,225.74c1.54-.14.58,2.11-.68,1.37-.56-.33.56-1.36.68-1.37Z"/>
        <path class="cls-29" d="M234.81,232.59c1.06.12.48,1.89-.34,1.71-1.06-.23.02-1.75.34-1.71Z"/>
        <path class="cls-20" d="M240.28,206.92c.72-.56,1.8,1.14.68,1.37s-1.1-1.04-.68-1.37Z"/>
        <path class="cls-20" d="M237.55,174.06c.67-.16,1.21,1.02.68,1.37-1.09.72-1.73-1.12-.68-1.37Z"/>
        <path class="cls-29" d="M235.83,229.16c.77.1.65,1.93-.34,1.71-1.07-.23.03-1.75.34-1.71Z"/>
        <path class="cls-29" d="M213.59,264.76c.91-.05,1.14,1.11.34,1.37-1.44.48-1.14-1.32-.34-1.37Z"/>
        <path class="cls-26" d="M206.74,270.24c.94-.34.85,1.26,0,1.71-.82-.31-.25-1.62,0-1.71Z"/>
        <path class="cls-13" d="M230.7,240.8c.84-.19,1.14,1.19.34,1.37-.84.19-1.14-1.19-.34-1.37Z"/>
        <path class="cls-20" d="M239.6,181.93c1.22-.16.81,1.46,0,1.37-.6-.07-.62-1.29,0-1.37Z"/>
        <path class="cls-29" d="M236.18,170.98c.44.04,1.33.95.68,1.37-.88.56-1.45-1.43-.68-1.37Z"/>
        <path class="cls-20" d="M237.89,221.63c.65.07.7,1.45-.34,1.37-.94-.08.09-1.4.34-1.37Z"/>
        <path class="cls-20" d="M216.32,261.34c.33.02.82,1.1.34,1.37-.74.41-1.14-1.41-.34-1.37Z"/>
        <path class="cls-26" d="M229.16,245.94l-.68-1.03c1.21-.22,2.06.23.68,1.03Z"/>
        <path class="cls-13" d="M228.48,244.91l.68,1.03c-.91.53-2.08-.78-.68-1.03Z"/>
        <path class="cls-29" d="M226.59,247.99c.81.1.22,1.53-.34.68-.23-.34.3-.69.34-.68Z"/>
      </g>
    </g>
    <g>
      <path class="cls-18" d="M74.1,181.59c6.67,6.03,19.31,16.15,27.38,19.85l-27.04,51.17c5.99-2.5,12.71-2.36,19.17-1.37,3.31,11.51,7.64,22.8,10.61,34.4-10.93-4.46-20.39-13.38-28.07-22.25.92-1.57.82-1.92,1.37-3.08.69-1.44,3.25-5.77,1.03-7.36-2.36-1.68-5.57,3.45-6.33,3.59-3.32.61-12.99-21-14.2-24.47-4.55-13.07-6.04-27.13-5.13-40.9,1.57-.17,1.61-1.33,3.25-1.03l21.74,3.94-2.57-6.33c-.73,1.3,1.96,3.3,0,3.42-.97.06-17.97-4.66-18.83-5.13-1.27-.7-1.73-2.68-2.22-3.08l5.48-20.88c1.6,2.46,3.57,4.82,5.13,7.36,3.46,5.61,6.04,11.86,9.76,17.29.96.21-.69-4.34-.51-5.13Z"/>
      <g>
        <path class="cls-20" d="M80.78,258.26c1.25-.55,2.22,1.19,1.03,1.71-1.25.55-2.22-1.19-1.03-1.71Z"/>
        <path class="cls-29" d="M96.87,272.98c1.07-.11,1.81,1.94.34,2.05s-1.1-1.97-.34-2.05Z"/>
        <path class="cls-20" d="M64.35,170.63c1.08-.07,1.16,1.74.34,2.05-1.53.59-1.36-1.99-.34-2.05Z"/>
        <path class="cls-29" d="M60.93,194.94c1.89.54-.95,2.76-1.88,1.54-.07-.1,1.73-1.58,1.88-1.54Z"/>
        <path class="cls-29" d="M59.56,202.81c1.1-.41,1.71,1.32.68,1.71-1.1.41-1.71-1.32-.68-1.71Z"/>
        <path class="cls-29" d="M59.56,198.36c1-.33,1.59,1.43.68,1.71-1.21.38-1.65-1.39-.68-1.71Z"/>
        <path class="cls-29" d="M61.27,218.21c.32,0,1.41,1.36.34,1.71-1.59.52-1.16-1.72-.34-1.71Z"/>
        <path class="cls-13" d="M60.93,180.9c.78-.19,1.19,1.31.68,1.71-.82.65-1.85-1.43-.68-1.71Z"/>
        <path class="cls-29" d="M63.32,173.71c.3-.03,1.36,1.83.34,2.05-1.61.35-.54-2.03-.34-2.05Z"/>
        <path class="cls-29" d="M59.9,211.02c1.09-.34,1.62,1.08.68,1.37-1.09.34-1.62-1.08-.68-1.37Z"/>
        <path class="cls-29" d="M93.1,270.24c1.1-.22,1.68,1.53.68,1.71-.45.08-1.6-1.53-.68-1.71Z"/>
        <path class="cls-1" d="M59.9,184.67c2.02-.44.76,1.97,0,1.71-.13-.04-.7-1.56,0-1.71Z"/>
        <path class="cls-20" d="M66.75,236.69c.6-.46,1.75.9,1.03,1.37-.93.59-1.73-.82-1.03-1.37Z"/>
        <path class="cls-29" d="M89.68,267.5c1.2-.92,1.4,1.86.34,1.71-.47-.07-.77-1.38-.34-1.71Z"/>
        <path class="cls-29" d="M64.35,229.16c.56-.17,1.65,1.13.68,1.37-1.62.4-1.43-1.14-.68-1.37Z"/>
        <path class="cls-29" d="M60.58,215.13c.72-.56,1.8,1.14.68,1.37s-1.1-1.04-.68-1.37Z"/>
        <path class="cls-26" d="M84.2,261.34l1.2.86c.41.99-3.01,1-1.2-.86Z"/>
        <path class="cls-13" d="M61.95,177.82c.62-.14,1.63,1.13.68,1.37-1.22.31-1.53-1.17-.68-1.37Z"/>
        <path class="cls-29" d="M70.51,244.91l1.88.51c.06.64-2.69.61-1.88-.51Z"/>
        <path class="cls-20" d="M65.38,232.59c.99-.22,1.11,1.61.34,1.71-.31.04-1.41-1.48-.34-1.71Z"/>
        <path class="cls-29" d="M86.6,264.76c1.31-.3.95,1.22.34,1.37-.82.2-1.16-1.18-.34-1.37Z"/>
        <path class="cls-1" d="M73.59,248.67c.28-.2,1.08.17,1.2.51.48,1.39-2.39.35-1.2-.51Z"/>
        <path class="cls-13" d="M63.32,226.08c.48-.3,1.71,1.34.68,1.37-.81.02-1.17-1.06-.68-1.37Z"/>
        <path class="cls-20" d="M61.95,221.63c1.24-.54.92,1.39.34,1.37-.07,0-.75-1.19-.34-1.37Z"/>
        <path class="cls-20" d="M59.9,206.92c.59,0,.59,1.37,0,1.37s-.59-1.37,0-1.37Z"/>
        <path class="cls-29" d="M69.48,241.14c.17,0,.83.81.34,1.03-1.13.5-.93-1.01-.34-1.03Z"/>
      </g>
    </g>
    <path class="cls-11" d="M177.13,164.13c-2.5.31-2.12,1.71-3.77-1.37l-23.1-43.81-24.64,45.87c-1.2.37-2.07-.67-2.22-.68l26.87-51,26.87,51Z"/>
    <g>
      <path class="cls-18" d="M219.23,135.04c-1.22,1.4-1.86,1.2-3.08,2.05-1.01-1.95-2.03-.64-2.05,1.03-3.47,2.19-7,4.21-10.61,6.16-1.08-2.24-3.57-3.93-4.28-6.5,1.06,5.28,1.79,12.57-1.54,17.29-3.05,4.32-15.33,8.42-20.54,9.07l-26.87-51-26.87,51c-4.92-.57-17.32-4.27-20.54-8.04-3.73-4.37-3.55-13-2.22-18.31-.75,2.46-2.92,4.39-3.94,6.5-4.02-2.87-10.85-4.91-14.38-8.21-.15-.81-1.79-3.76-1.71-4.28.43-2.98,21.47-17.08,25.16-19,12.03-6.24,27.15-10.66,40.56-10.44-.77,3.88,3.18,10.12,6.5,5.48,1.57-2.2.13-5.96,2.91-5.99,13.72-.17,34.99,8.03,46.55,15.4,2.37,1.51,17.06,12.86,17.29,14.55.07.53-1.52,2.4-.34,3.25Z"/>
      <g>
        <path class="cls-20" d="M216.15,137.09c-.75.52-1.57.72-2.05,1.03.02-1.67,1.04-2.98,2.05-1.03Z"/>
        <path class="cls-29" d="M117.75,114.16c1.56-.69,1.94,1.45.68,1.71s-1.64-1.29-.68-1.71Z"/>
        <path class="cls-29" d="M166.35,109.71c1.13-.12,1.59,1.01,1.03,1.37-1.35.85-2.5-1.21-1.03-1.37Z"/>
        <path class="cls-13" d="M196.81,121.34c.94-.15,1.75,1.79.68,2.05-.19.05-1.98-1.85-.68-2.05Z"/>
        <path class="cls-1" d="M96.52,126.48c1.65-.25,1.47,1.07.68,1.37-.95.36-2.42-1.11-.68-1.37Z"/>
        <path class="cls-20" d="M93.79,128.53c1.34,0,.2,2.13-.34,2.05-.8-.11-.68-2.06.34-2.05Z"/>
        <path class="cls-13" d="M133.15,110.05c.38-.25,1.73.12,1.54.86-.35,1.35-2.6-.16-1.54-.86Z"/>
        <path class="cls-29" d="M182.1,114.16c.98-.29,1.61.98,1.03,1.37-.9.61-2.28-1-1.03-1.37Z"/>
        <path class="cls-29" d="M206.74,128.53c1.05-.04,1.12,1.46.34,1.71-.97.31-1.44-1.67-.34-1.71Z"/>
        <path class="cls-29" d="M173.88,111.76c.41-.25,1.73.13,1.54.86-.37,1.44-2.36-.36-1.54-.86Z"/>
        <path class="cls-29" d="M103.37,121.69c2.42-.23-1.15,3.07-.86.86,0-.06.8-.85.86-.86Z"/>
        <path class="cls-29" d="M200.24,124.08c1.09-.34,1.62,1.08.68,1.37-1.09.34-1.62-1.08-.68-1.37Z"/>
        <path class="cls-29" d="M203.66,126.48c1.09-.34,1.62,1.08.68,1.37-1.09.34-1.62-1.08-.68-1.37Z"/>
        <path class="cls-20" d="M141.02,109.02c1.09-.34,1.62,1.08.68,1.37-1.09.34-1.62-1.08-.68-1.37Z"/>
        <path class="cls-29" d="M177.99,112.79c.12-.08,1.17.45,1.2.51.85,1.98-2.72.58-1.2-.51Z"/>
        <path class="cls-13" d="M107.82,119.29c1.23.08.06,1.83-.68,1.71-1.12-.18.56-1.72.68-1.71Z"/>
        <path class="cls-29" d="M110.56,117.58c.76.06.93,1.61.34,1.71-1.24.2-1.21-1.78-.34-1.71Z"/>
        <path class="cls-29" d="M158.82,109.36c2.02-.72,1.91,1.51,0,1.03-.54-.14-.56-.83,0-1.03Z"/>
        <path class="cls-20" d="M211.87,133.67c1.11-.23,1.1,1.04.68,1.37-.72.56-1.8-1.14-.68-1.37Z"/>
        <path class="cls-29" d="M136.57,109.71c.73-.41,2.1.19,1.54,1.2-.13.23-2.36-.74-1.54-1.2Z"/>
        <path class="cls-20" d="M122.2,113.13c.95-.06,1.09,1.16.34,1.37-1.1.31-1.33-1.31-.34-1.37Z"/>
        <path class="cls-29" d="M125.62,112.1c1.13-.28,1.34,1.32.68,1.37-.74.06-1.58-1.15-.68-1.37Z"/>
        <path class="cls-20" d="M129.73,110.73c1.01.17.43,2.13-.68,1.37-.74-.5.49-1.4.68-1.37Z"/>
        <path class="cls-20" d="M85.57,135.72c.79-.54,1.76,1.14.68,1.37-.68.14-1.2-1.01-.68-1.37Z"/>
        <path class="cls-29" d="M87.97,133.67c.68-.14,1.2,1.01.68,1.37-.79.54-1.76-1.14-.68-1.37Z"/>
        <path class="cls-20" d="M209.48,130.93c.82-.2,1.16,1.18.34,1.37-1.31.3-.95-1.22-.34-1.37Z"/>
        <path class="cls-29" d="M91.05,130.93c.36,0,1.35.91.68,1.37-.97.66-2.02-1.38-.68-1.37Z"/>
        <path class="cls-13" d="M189.63,117.58c1.14-.17,1.09,1.07.68,1.37s-1.73-1.21-.68-1.37Z"/>
        <path class="cls-1" d="M186.2,115.87c.82-.11.82,1.82,0,1.71-.66-.09-.66-1.62,0-1.71Z"/>
        <path class="cls-1" d="M113.98,116.21c.37-.25,1.3.23,1.2.86-.87.71-1.98-.33-1.2-.86Z"/>
        <path class="cls-13" d="M163.27,109.71c.07,0,1.42.5,1.2.86-.97.87-2.3-.74-1.2-.86Z"/>
        <path class="cls-29" d="M99.95,124.08c.8.03.62,1.17.34,1.37-.66.46-1.2-1.4-.34-1.37Z"/>
        <path class="cls-6" d="M144.44,109.02c.1-.06,1.72-.23,1.54.51-.6.52-2.43.04-1.54-.51Z"/>
        <path class="cls-29" d="M192.71,119.29c.74-.41,1.14,1.41.34,1.37-.33-.02-.82-1.1-.34-1.37Z"/>
        <path class="cls-26" d="M171.14,110.73c.55.2-.13,1.46-.34,1.37-.54-.24.13-1.45.34-1.37Z"/>
      </g>
    </g>
    <path class="cls-29" d="M162.76,165.16c1.16.55,1.87.27,2.74,1.54,3.19,4.65,1.14,18.47-1.71,23.28-1.76,2.97-4.91,4.43-5.82,7.7-.19-4.76,1.86-3.98,4.11-7.36,3.12-4.69,6.39-18.33,2.74-22.93-2.68-3.38-5.76-.09-8.73.17-3.23.28-8.72.25-11.98,0-2.75-.21-5.34-2.72-8.21-1.03-4.51,2.65-1.81,16.3-.17,20.37,1.93,4.8,6.61,5.23,6.16,11.12-.95-4.16-5.24-6.22-6.85-10.1-2.53-6.1-4.25-18.2,1.03-23.1,12.82,1.43,13.25,2.22,26.7.34Z"/>
    <g>
      <path class="cls-18" d="M136.06,164.81c-5.28,4.91-3.56,17.01-1.03,23.1,1.61,3.88,5.89,5.94,6.85,10.1-.23,3.06-2.76,6.32-2.4,9.58-.28-.67-.74-1.29-.86-2.05-1.63,3.06,1.87,8.05,2.22,10.44.5,3.42-3.46,16.36-7.53,17.46l.86-7.02c-1.83,3.29-.07,8.87-4.11,9.93.33-4-6.92-10.44-7.36-13.18-.39-2.44.31-6.21-.34-9.58-.85-4.4-4.21-8.24-3.42-12.32.47-2.42,2.54-4.94,3.08-7.36,1.5,1.63-.65,5.21-.68,7.36-.13,7.3,8.02,5.92,12.32,9.58-1.8-3.39-5.83-2.79-8.73-4.96-.71-.53-3.76-3.53-2.4-4.45,1.2,5.58,9.03,5.03,11.12,8.39.49.78.07,2.59,1.2,3.59,1.46-9.41-11.61-11.35-11.81-20.71-.66-.24-.74.86-1.03,1.2-.67.8-1.17,1.64-1.88,2.4-2.26-4.53-5.65-9.12-9.58-12.32-9.86-8.02-18.39-5.92-29.61-2.57,7.38.43,15.88-4.82,22.93.34l-6.67-1.54c.16.93,3.74.77,3.59,1.54-.1.5-3.21-.86-3.59.17l6.33.86-6.33-.17,5.99,1.2-5.82.34,7.02.86-5.13.68,6.33.17-5.99,1.2,7.02.17c0,.68-5.51.43-5.99.51s-1.2-.18-.68.68l7.36.17-8.56,1.03,9.93.34-10.27,1.03,11.3.34-10.95,1.03h11.64l-11.64,1.37,11.81-.17-8.9,1.71,10.1-.17-10.27,2.74,10.78-1.54c-1.5,2.03-5.08,2.03-7.36,2.57l8.21-.68c-15.75,9.12-26.1-11.71-38.51-17.29l-.51.68c-1.12-1.01-2.32-2.59-1.37-4.11h10.78c13.98-2.92,24.06-6.25,34.06,6.33.65.82,3.39,6.67,4.28,5.99.36-1.63-.83-3.76-.86-5.31-.09-4.73,4.85-7.27,7.19-11.3.29-.5,3.27-6.2,3.08-6.5-.29-.47-1.36.28-1.37-.68-.01-1.57,5.13-1.31,6.16-1.2Z"/>
      <g>
        <path class="cls-20" d="M122.02,193.91c.29-.34.36-1.44,1.03-1.2.2,9.35,13.27,11.3,11.81,20.71-1.13-1-.71-2.82-1.2-3.59-2.09-3.35-9.93-2.81-11.12-8.39-1.36.92,1.69,3.92,2.4,4.45,2.9,2.17,6.93,1.58,8.73,4.96-4.3-3.67-12.45-2.28-12.32-9.58.04-2.15,2.18-5.73.68-7.36Z"/>
        <path class="cls-20" d="M126.3,192.54c8.38,1.98,11.22,9.63,11.64,17.46-.9.43-3.9-11.23-4.28-11.81-1.21-1.85-5.86-3.75-7.36-5.65Z"/>
        <path class="cls-29" d="M126.3,218.9c.5,3.36.13,6.74,1.71,9.93.48-2.8-2.05-6.13-.17-8.73l.86,10.44c-2.57-2.99-2.97-7.26-3.59-11.12.44-.33.46,1.44.86,1.2s-.07-1.32.34-1.71Z"/>
        <path class="cls-20" d="M139.31,219.92c-1.41,4.25-2.52,8.94-5.13,12.66.63-4.39,3.4-8.65,5.13-12.66Z"/>
        <path class="cls-20" d="M129.04,222.66c1.57,3.79.86,8.05,1.71,11.98-1.73-3.57-1.54-8.12-1.71-11.98Z"/>
        <path class="cls-20" d="M130.75,224.37l1.03,9.93c-1.28-3-1.39-6.73-1.03-9.93Z"/>
        <path class="cls-20" d="M124.25,219.24l1.37,7.19c-1.26-2.32-2.71-4.51-1.37-7.19Z"/>
        <path class="cls-29" d="M129.73,186.38c.54,1.65,2.59,4.27,2.05,5.82-1.1-1.72-2.22-3.68-2.05-5.82Z"/>
        <path class="cls-31" d="M128.36,179.87c-.25,2.5-2.86,4.72-4.45,6.5l4.45-6.5Z"/>
        <path class="cls-20" d="M132.46,225.06c1.16,1.73.32,4.32,0,6.16-.31,0-.24-5.56,0-6.16Z"/>
      </g>
    </g>
    <g>
      <path class="cls-18" d="M95.33,148.04c-2.69,16.26,8.74,21.57,20.88,27.9l-2.22,3.25c-9.18-9.2-20.21-3.51-30.81-2.4-2.87.3-7.68-.92-9.76.34-4.5-5.75-7.67-12.42-11.64-18.48,3.26-4.71,6.26-12.61,10.27-16.6,1.17-1.16,4.1-2.23,4.45-2.91l18.83,8.9Z"/>
      <g>
        <path class="cls-20" d="M71.19,155.23c1.37-.16.3,3.73-1.03,2.74-.77-.57.64-2.33,1.03-2.74Z"/>
        <path class="cls-29" d="M74.96,148.73c1.21-.52,2.11,1.76.68,2.05-1.79.36-1.42-1.74-.68-2.05Z"/>
        <path class="cls-29" d="M78.04,145.3c1.83-.18.46,2.31-.34,2.05-1.05-.34-.2-2,.34-2.05Z"/>
        <path class="cls-29" d="M80.09,142.91c.78-.21,1.96.81,1.37,1.71-.85.36-2.78-1.34-1.37-1.71Z"/>
        <path class="cls-29" d="M67.43,162.08c.42-.09,1.78,1.96.34,2.05-1.16.07-1.07-1.9-.34-2.05Z"/>
        <path class="cls-13" d="M72.91,152.15c.12-.02,1.79,1.49.68,1.71s-1.71-1.5-.68-1.71Z"/>
        <path class="cls-6" d="M69.14,159.34c.89-.14,1.66,1.6.68,1.71-.12.01-1.81-1.53-.68-1.71Z"/>
      </g>
    </g>
    <g>
      <path class="cls-18" d="M171.31,166.87c.03.31-.34.35-.34.68l-2.4-.51c1.47,1.27,1.66,3.4,2.4,4.79,3.51,6.7,10.59,9.03,6.85,17.8.59.87.92.12,1.37-.34,1.15-1.17,2.57-4.85,4.11-6.67,11.44-13.56,21.97-5.62,36.11-4.79,2.88.17,5.9-2.14,8.04,1.03-.03.63.84.26-.34,1.71-14.17,3.53-23.31,27.25-40.39,17.63l7.19.68-6.5-2.05c-.11-1.28,9.73,2.51,10.95.68l-9.76-1.88c.42-1.52,3.79.27,5.13.34,2.23.12,4.5.06,6.67-.51-3.8-.3-7.69-.34-11.3-1.71h11.98l-11.64-1.03,11.64-.34-10.95-1.03,11.3-.68-10.27-.68,7.7-.17c-.76-1.48-4.73-.29-6.16-1.37l9.07-.51-8.56-.68,6.67-.17-5.99-.86,6.85-.68-5.82-.68c1.59-.7,4.96.67,5.65-.86l-4.28-.17,2.91-1.54-3.94.86,6.33-2.91-5.82,2.05c-1.02.02.24-.96.34-1.03,6.87-4.2,16.26.44,23.62.68-5.82-2.28-15.2-4.45-21.56-3.08-7.01,1.51-15.62,11.38-18.48,17.8l-2.74-3.77c-1.17,9.21-12.32,11.01-12.49,20.37,1.22-.81,1.88-2.74,3.25-3.59,1.6-.99,3.99-.99,5.48-1.71,8.76-4.25,4.24-5.99,4.11-14.03.24-.07,2.38,3.81,2.57,4.28,3.18,7.96-1.72,9.44-2.74,16.77-.36,2.62.39,6.44,0,8.21-.46,2.13-6.45,8.53-7.19,11.64-.33,1.38,1.02,1.78.17,2.57-1.16-1.39-2.54-2.63-3.94-3.77.11-2.34-1.78-4.63-2.74-6.67-1.09-2.33-1.81-4.85-3.25-7.02,1.48,4.74,3.02,9.63,5.99,13.69-.94-.77-2.62-2.38-3.42-2.05-.18-.53-.22-1.3-.34-1.71-.82-2.64-4.12-10.71-3.77-12.84s4.46-8.8,5.48-11.3c.81-1.98.68-5.41,1.71-7.19.77-1.33,8.07-5.31,7.87-5.82-8.49,1.98-10.85,9.1-12.32,16.77l-1.03-2.91c-.05-2.89-2.26-5.65-2.4-8.9.91-3.27,4.06-4.73,5.82-7.7,2.85-4.8,4.91-18.62,1.71-23.28-.87-1.27-1.58-.99-2.74-1.54.11-.02.23.01.34,0,1.51-.18,3.44-.68,4.96-.34,1.16.26,2.13,1.88,3.25,2.05Z"/>
      <g>
        <path class="cls-20" d="M162.41,229.85c-1.49-2.83-4.49-7.67-4.79-10.78-.43-4.42,2.82-8.38,2.74-12.49l1.03,2.91c1.47-7.67,3.83-14.79,12.32-16.77.19.51-7.1,4.49-7.87,5.82-1.03,1.78-.9,5.2-1.71,7.19-1.02,2.5-5.13,9.22-5.48,11.3s2.94,10.2,3.77,12.84Z"/>
        <path class="cls-20" d="M169.77,222.66l-1.2,9.41c.61.64.97-1.11,1.03-1.37.54-2.34.54-5.16,1.37-7.53.34-.26.68,1.29.68,1.37,0,1.15-2.05,10.38-3.25,10.1-1.27-.3.94-10.57,1.37-11.98Z"/>
        <path class="cls-20" d="M166.18,233.61c-2.97-4.06-4.51-8.95-5.99-13.69,1.44,2.16,2.16,4.69,3.25,7.02.95,2.04,2.85,4.34,2.74,6.67Z"/>
        <path class="cls-20" d="M175.25,218.21l.68.68c-1.29,3-.87,6.58-3.08,9.24l2.4-9.93Z"/>
        <path class="cls-20" d="M173.88,218.9c.97.02-2.03,10.81-2.74,11.64l2.74-11.64Z"/>
        <path class="cls-1" d="M167.72,224.71c.99.42-.01,6.55-.34,6.5l.34-6.5Z"/>
        <path class="cls-29" d="M169.77,187.06c.93,2.47-.7,3.38-1.37,5.48-.82-1.54,1.25-3.8,1.37-5.48Z"/>
        <path class="cls-29" d="M175.93,220.26c1.3,1.09.22,3.49-.68,4.45l.68-4.45Z"/>
        <path class="cls-29" d="M166.52,231.22c-.62-1.28-1.45-2.63-.86-4.11.98.8.65,3.05.86,4.11Z"/>
        <path class="cls-29" d="M171.83,221.29c.64.92.64,1.47,0,2.4-.28-.66-.28-1.73,0-2.4Z"/>
        <path class="cls-13" d="M166.52,231.22c.06.12,1.23.48.51,1.37-.69-.41-.41-.84-.51-1.37Z"/>
      </g>
    </g>
    <g>
      <path class="cls-18" d="M238.74,158.31c-3.98,6.3-7.42,13-11.64,19.17-3.03-1.87-7.34-.31-11.12-.68-10.09-1.01-20.79-6.69-29.78,2.05-.56.16-1.89-2.4-1.88-2.57.06-1.02,9.52-5.8,11.12-7.02,7.17-5.45,10.64-12.38,9.07-21.56l19.51-8.21c5.13-.28,11.79,15.12,14.72,18.83Z"/>
      <g>
        <path class="cls-29" d="M223.85,148.73c.56-.32,2.7.01,2.22,1.2-.64,1.6-3.34-.55-2.22-1.2Z"/>
        <path class="cls-20" d="M228.99,155.57c1.28-.26,2.2,1.62,1.03,2.4-.93.31-1.8-2.24-1.03-2.4Z"/>
        <path class="cls-29" d="M227.28,151.81c1.53.2.51,2.66-1.03,1.71-.85-.52.75-1.75,1.03-1.71Z"/>
        <path class="cls-29" d="M219.75,142.91c2.58-.42.11,2.85-.86,1.2-.31-.53.55-1.15.86-1.2Z"/>
        <path class="cls-29" d="M231.38,159c1.75-.1.38,2.37-.68,1.71-.64-.39.41-1.7.68-1.71Z"/>
        <path class="cls-29" d="M222.49,145.65c.15-.03,1.38,1.28.68,1.71-1.29.81-1.64-1.55-.68-1.71Z"/>
        <path class="cls-29" d="M232.41,162.76c.93-.59,1.73.82,1.03,1.37-.6.46-1.75-.9-1.03-1.37Z"/>
      </g>
    </g>
    <path class="cls-18" d="M183.29,182.61l-.68-.17c-.18-.32.28-.49.34-.86,1.08-5.92,3.32-2.59.34,1.03Z"/>
    <g>
      <path class="cls-18" d="M154.88,236.01c4.95.61,9.96-.09,12.66,4.96.2,2.08-2.05-.12-2.74.68,5.24,2.09,8.1,11.87,5.48,16.43-2.84,4.94-10.21,1.4-14.55,1.2-4.99-.23-21.35,1.96-23.96,1.03-5.68-2.03-3.16-17.72,3.59-19l-3.59,1.2c1.81-6.14,7.16-5.88,12.49-6.5,5.23.32,5.38.35,10.61,0Z"/>
      <g>
        <path class="cls-20" d="M137.26,240.12c3.18-.96,7.35,1.74,10.27,2.05,5.66.61,18.72-6.72,17.63,3.94-.49,4.84-9,9.17-9.58,4.79-.52-3.86,6.35-4.67,6.67-8.73.75,3.29-3.25,5.42-5.65,6.67,2.81.77,7.84-5.42,6.67-7.36s-10.96,1.71-13.35,1.71c-3.41,0-9.59-3.16-12.32-2.4-3.69,1.04,2.68,9.2,5.65,8.04-3.04-1.26-5.84-3-5.99-6.67.67,3.77,7.59,5.27,7.02,8.73-.72,4.31-8.34-.49-9.24-3.42-.61-2-.1-6.65,2.22-7.36Z"/>
        <path class="cls-20" d="M156.94,256.55c1.94.61,3.54.28,5.48,0s3.72-1,5.48-1.2l-.86.86-7.53,2.05,8.39-1.2c-3.43,2.34-8.82,2.61-11.98-.34.08-.35.83-.07,1.03-.17Z"/>
        <path class="cls-16" d="M131.78,251.41l11.81,4.28c-3.53,1.17-8.28.79-11.12-1.88,2.98.67,5.98,2.37,9.07,1.88.09-.53-9.56-1.74-9.76-4.28Z"/>
        <path class="cls-20" d="M131.78,256.89l9.41,1.88c-2.95,1.6-6.41,1.39-9.41.17-1.16-1.19,6.15,1.14,6.67.17,0-.36-6.35-.68-6.67-2.22Z"/>
        <path class="cls-20" d="M131.78,255.18c3.71,1.59,7.5,1.77,11.47,1.88-2.8,1.9-9.16.48-11.47-1.88Z"/>
        <path class="cls-20" d="M161.73,254.84c-1.48.48-3.25.75-4.79,1.03l10.1-4.45c.85,1.97-4.1,3.03-5.31,3.42Z"/>
        <path class="cls-20" d="M162.07,256.2c-1.19.19-2.28.71-3.42-.17,1.05-.19,2.06-.58,3.08-.86,2.13-.58,4.14-.83,6.16-1.88.56,1.11-5.12,2.8-5.82,2.91Z"/>
        <path class="cls-1" d="M167.38,248.67c2.89,1-8.76,7.01-10.1,5.65,3.65-1.36,8.01-1.97,10.1-5.65Z"/>
        <path class="cls-26" d="M132.81,250.04l9.76,4.28c-.14.54-10.15-2.23-9.76-4.28Z"/>
        <path class="cls-31" d="M161.73,254.84v.34c-1.02.28-2.03.67-3.08.86,1.14.88,2.23.36,3.42.17l.34.34c-1.94.28-3.54.61-5.48,0,.03-.02-.02-.48,0-.68,1.54-.28,3.31-.55,4.79-1.03Z"/>
        <path class="cls-20" d="M167.38,258.26c.47.02.94-.19.86.51-2.05,1.18-4.54.98-6.85.68,1.55.35,4.98-1.25,5.99-1.2Z"/>
      </g>
    </g>
    <g>
      <path class="cls-20" d="M122.02,193.91c-.54,2.42-2.61,4.94-3.08,7.36-.79,4.08,2.57,7.92,3.42,12.32.65,3.37-.05,7.14.34,9.58.44,2.74,7.69,9.17,7.36,13.18,4.04-1.06,2.28-6.64,4.11-9.93l-.86,7.02c4.07-1.1,8.03-14.04,7.53-17.46-.35-2.39-3.86-7.38-2.22-10.44.12.77.58,1.38.86,2.05.94,2.27,2.77,8.25,2.74,10.61-1.45,1.76-1.44,4.8-2.05,6.5-.92,2.53-2.19,4.35-3.42,6.67-.03.06.7.71.34,1.37-.15.28-3.78,2.18-5.13,3.59-1.97,2.05-4.37,3.95-1.37,6.5.9.72.69-1.51.68-2.05.98-2.39,2.34-3.22,4.45-4.45,3.64-.68,4.93-.57,8.56-.34-5.33.62-10.68.36-12.49,6.5l3.59-1.2c-6.76,1.27-9.27,16.96-3.59,19,2.61.93,18.97-1.25,23.96-1.03,4.34.2,11.71,3.74,14.55-1.2,2.62-4.56-.23-14.34-5.48-16.43.69-.8,2.94,1.39,2.74-.68-2.7-5.05-7.72-4.35-12.66-4.96,6.58-.43,7.51-1.09,12.66,3.08.68.68.74,2.14,1.03,2.74.16.34-.32.76.34,1.03,1.19.49,1.63-1.22,1.71-2.05.23-2.37-2.27-4.3-3.94-5.82-1.94-1.77-3.03-.72-3.94-3.42.8-.33,2.48,1.28,3.42,2.05,1.39,1.14,2.77,2.37,3.94,3.77.85-.78-.5-1.19-.17-2.57.74-3.11,6.72-9.5,7.19-11.64.39-1.78-.36-5.59,0-8.21,1.02-7.33,5.92-8.82,2.74-16.77-.19-.47-2.33-4.35-2.57-4.28.13,8.04,4.65,9.78-4.11,14.03-1.48.72-3.88.72-5.48,1.71-1.37.85-2.03,2.78-3.25,3.59.17-9.35,11.32-11.16,12.49-20.37l2.74,3.77c2.87-6.42,11.48-16.29,18.48-17.8,6.36-1.37,15.74.8,21.56,3.08-7.36-.24-16.75-4.89-23.62-.68-.11.06-1.36,1.05-.34,1.03l5.82-2.05-6.33,2.91,3.94-.86-2.91,1.54,4.28.17c-.69,1.53-4.05.15-5.65.86l5.82.68-6.85.68,5.99.86-6.67.17,8.56.68-9.07.51c1.43,1.08,5.4-.11,6.16,1.37l-7.7.17,10.27.68-11.3.68,10.95,1.03-11.64.34,11.64,1.03h-11.98c3.6,1.37,7.49,1.42,11.3,1.71-2.18.57-4.44.63-6.67.51-1.34-.07-4.71-1.86-5.13-.34l9.76,1.88c-1.22,1.83-11.07-1.96-10.95-.68l6.5,2.05-7.19-.68c17.08,9.62,26.22-14.1,40.39-17.63-.61.74-.73.59-1.37,1.03-9.52,6.48-16.07,13.91-26.36,19.51-.59.32-2.25.26-2.4,1.2l23.28,44.15-48.6,1.37.86,2.57,31.66.51c-10.8,16.14-20.67,33.17-33.54,47.75-2.89.78-5.2,1.57-8.21,2.05-1.41.23-7.11-.13-7.87.86l-1.54,10.78c-.82,0,1.13-10.64-.34-11.3-.5-.22-4.15-.06-4.62.51-1.26,1.53,1.11,6.58-.51,8.39-.2-1.43-.49-8.37-1.71-8.9-2.37-.47-5.49,0-7.7-.34-2.79-.44-6.95-1.2-9.24-2.74-3-2.02-13.64-18.34-16.43-22.42-5.44-7.95-10.83-16-15.75-24.3l30.63-.86c.24-.17.25-2.45.17-2.57-1.37-1.93-41.71,1.24-47.24,0l23.62-45.18-.17-.86c-.18-.19-2.04-.26-2.22-.34-8.07-3.7-20.72-13.82-27.38-19.85l.51-.68c12.4,5.58,22.76,26.41,38.51,17.29l-8.21.68c2.28-.53,5.86-.54,7.36-2.57l-10.78,1.54,10.27-2.74-10.1.17,8.9-1.71-11.81.17,11.64-1.37h-11.64l10.95-1.03-11.3-.34,10.27-1.03-9.93-.34,8.56-1.03-7.36-.17c-.51-.87.2-.59.68-.68s5.99.17,5.99-.51l-7.02-.17,5.99-1.2-6.33-.17,5.13-.68-7.02-.86,5.82-.34-5.99-1.2,6.33.17-6.33-.86c.39-1.03,3.5.33,3.59-.17.15-.77-3.43-.61-3.59-1.54l6.67,1.54c-7.06-5.16-15.55.09-22.93-.34,11.22-3.35,19.75-5.45,29.61,2.57,3.93,3.2,7.32,7.79,9.58,12.32.71-.76,1.21-1.6,1.88-2.4Z"/>
      <g>
        <path class="cls-11" d="M135.72,236.35c-2.11,1.23-3.47,2.06-4.45,4.45-.29.72-.35,1.37-.68,2.05-3-2.55-.6-4.45,1.37-6.5.41,1.83,2.33.27,3.77,0Z"/>
        <path class="cls-8" d="M177.65,201.44c-.93,5.91-7.7,5.96-11.81,8.73,3.55-3.75,9.44-3.12,11.81-8.73Z"/>
        <path class="cls-11" d="M170.63,240.8c-.08.83-.52,2.54-1.71,2.05l-.34-1.03c-.28-.6-.35-2.06-1.03-2.74,1.17.95,1.93,2.25,3.08,1.71Z"/>
        <path class="cls-31" d="M140.17,224.71c.62-1.7.6-4.74,2.05-6.5-.03,2.11-.8,4.76-2.05,6.5Z"/>
        <path class="cls-23" d="M130.58,242.86c.34-.68.39-1.33.68-2.05,0,.54.22,2.77-.68,2.05Z"/>
        <path class="cls-21" d="M168.92,242.86c-.66-.27-.18-.68-.34-1.03l.34,1.03Z"/>
        <g>
          <path class="cls-18" d="M146.16,259.97c2.86-.24,12.79.32,15.06,1.71,1.08.66.64,3.18,1.37,0,3.62,9.3-14.63,9.06-19.85,7.87-2.87-.65-7.6-3.73-5.99-7.36.2-.44,8.39-2.14,9.41-2.22Z"/>
          <path class="cls-20" d="M142.05,264.42c.23-.17,4.6,1.31,5.48,1.37,2.61.18,9.79-1.58,10.27-1.37.92.4-.11,3.53,3.42,0,.67,1.56-5.21,3.21-6.5,3.42-5.03.81-10.18.38-14.72-2.05-1.25-1.36,1.59.08,1.71,0,.41-.28-.07-1.06.34-1.37Z"/>
          <path class="cls-14" d="M137.94,265.1l1.71,2.4c-.57.16-2.61-2.15-1.71-2.4Z"/>
        </g>
      </g>
    </g>
    <g>
      <path class="cls-20" d="M173.37,162.76c.88,2.44-.67,1.98-.17,3.42-3.43.74-6.05-4.32-10.1-1.03-.11.01-.23-.02-.34,0-13.45,1.88-13.88,1.09-26.7-.34-1.04-.12-6.17-.37-6.16,1.2,0,.97,1.08.22,1.37.68.19.3-2.79,6.01-3.08,6.5-2.34,4.03-7.28,6.57-7.19,11.3.03,1.54,1.22,3.68.86,5.31-.89.68-3.63-5.17-4.28-5.99-9.99-12.58-20.08-9.26-34.06-6.33h-10.78c.36-.57.5-.23.68-.34,2.07-1.26,6.88-.04,9.76-.34,10.6-1.12,21.63-6.8,30.81,2.4l2.22-3.25c-12.14-6.33-23.57-11.64-20.88-27.9.26-1.56.7-2.37,1.37-3.77,1.01-2.11,3.18-4.04,3.94-6.5-1.32,5.31-1.51,13.94,2.22,18.31,3.22,3.77,15.62,7.47,20.54,8.04.15.02,1.02,1.06,2.22.68l24.64-45.87,23.1,43.81Z"/>
      <g>
        <path class="cls-2" d="M100.12,157.63c4.75,8.35,14.98,10.91,23.28,14.55-7.52-1.71-18.94-6.44-23.28-13.18-.28-.44-.55-1.02-.68-1.54l.68.17Z"/>
        <path class="cls-24" d="M104.91,166.18v-.34c4.04,1.57,9.06,6.06,13.69,7.36-4.96-1.1-9.64-4.13-13.69-7.02Z"/>
        <path class="cls-18" d="M116.03,177.48c.71-.25,1,.15.86.86l-1.54,1.54c-1.09-.42.57-2.36.68-2.4Z"/>
        <path class="cls-11" d="M101.32,162.42c.7.9,2.04,1.62,2.4,2.74-.8-.39-2.57-1.67-2.4-2.74Z"/>
        <path class="cls-15" d="M127.33,172.69c.4.05-.15,1.54-.68,1.37-.29-.1.43-1.25.68-1.37Z"/>
        <path class="cls-11" d="M104.91,165.84v.34l-.68-.51c.57-.56.65.16.68.17Z"/>
        <g>
          <path class="cls-11" d="M100.12,157.63l-.68-.17c.13.52.4,1.1.68,1.54l4.45,5.31c-6.62-2.75-8.46-11.05-6.33-18.31-6.25,14.1,7.21,23.97,19,28.24.06.9-1.49.28-1.88.17-1.97-.56-10.59-5.46-12.32-6.85-7.73-6.21-9.62-16.31-4.11-24.64-2.28,18.41,17.07,21,30.63,23.79-.78,7.9-8.34,1.57-13.01,1.37l10.61,3.77-5.65,7.7,4.96-7.36c-9.65-3-19.88-6.31-26.36-14.55Z"/>
          <polygon class="cls-27" points="100.97 156.94 107.65 162.59 104.05 160.71 100.97 156.94"/>
          <path class="cls-25" d="M113.3,166.53c.58-.1.85.07,1.2.51-.13.38-1.45-.13-1.2-.51Z"/>
        </g>
      </g>
    </g>
    <g>
      <path class="cls-11" d="M183.29,175.77c-.17.07-2.45.89-2.57.34,12.35-5.89,26.89-14.22,21.22-30.46,3.11,15.13-7.84,23.83-20.37,28.24,6.62-3.92,15.88-7.46,18.65-15.23-5.41,7.56-16.11,12.78-24.99,13.69,7.68-2.28,17.01-5.73,22.25-11.98-3.66,3.16-8.26,5.83-12.66,7.87-1.99.92-9.6,2.98-10.27,3.42-1.83,1.21,3.75,5.52,3.42,7.53l-5.31-7.36,5.48-1.71c-2.79-.55-7.2,2.39-7.19-2.57,0-.33.37-.37.34-.68,2.66.42,22.37-6.52,24.82-8.56,4.24-3.54,5.19-10.9,4.45-16.09,4.17,5.29,4.34,13.59,1.2,19.34-2.72,4.97-13.29,12-18.48,14.2Z"/>
      <g>
        <path class="cls-20" d="M183.29,175.77c2.73,2.1-1.26,2.58-.34,5.82-.07.36-.52.54-.34.86l.68.17c-1.54,1.82-2.96,5.5-4.11,6.67-.45.46-.78,1.22-1.37.34,3.74-8.77-3.34-11.1-6.85-17.8-.73-1.4-.92-3.52-2.4-4.79l2.4.51c-.01,4.96,4.39,2.02,7.19,2.57l-5.48,1.71,5.31,7.36c.33-2.01-5.26-6.32-3.42-7.53.67-.44,8.28-2.5,10.27-3.42,4.4-2.04,9.01-4.71,12.66-7.87-5.24,6.25-14.57,9.7-22.25,11.98,8.88-.91,19.58-6.13,24.99-13.69-2.77,7.77-12.03,11.31-18.65,15.23,12.53-4.4,23.48-13.11,20.37-28.24,5.66,16.24-8.87,24.58-21.22,30.46.11.55,2.4-.27,2.57-.34Z"/>
        <path class="cls-22" d="M183.81,165.16s.54.46.86.51c-.79.73-12.51,4.67-12.66,3.77l11.81-4.28Z"/>
        <path class="cls-5" d="M192.54,162.08c.99-1.02,2.12-1.7,3.42-2.22-.66,1.41-2.16,1.72-3.42,2.22Z"/>
        <path class="cls-20" d="M198.7,159c.23-.5.2-1.33.86-1.71.49.77-.57,1.36-.86,1.71Z"/>
        <path class="cls-7" d="M198.35,157.63c-.18.31-.17,1.06-.86,1.37-.56-.71.59-1.08.86-1.37Z"/>
        <path class="cls-7" d="M198.35,157.63s-.02-.83.51-1.03c.63.59-.46.93-.51,1.03Z"/>
        <path class="cls-5" d="M192.54,162.08s.13,1.15-.68.51c-.15-.73.62-.45.68-.51Z"/>
        <path class="cls-20" d="M198.7,159c-.05.06.02.83-.51,1.03-.63-.58.49-.97.51-1.03Z"/>
      </g>
    </g>
  </g>
  <g id="Generative_Object-2" data-name="Generative Object">
    <g>
      <path class="cls-30" d="M47.1.92l.23,9.21h203.78c-2.93,1.45-.69,1.15,0,2.76l-206.55-.46-1.15,1.15c-.85,13.79-11.41,24.99-23.72,30.16-1.24.52-6.91.55-6.68,2.3.34,2.52,1.12,1.31,2.76,2.3-1.04.37-2.17.39-3.22.69.16,87.85-.2,175.77,0,263.65,0,3.06,0,6.15,0,9.21-1.65-3.6.51-26.95-.46-28.32-.36-.5-2.07-.11-2.76-.23.02-82.61-.25-165.4.46-247.99-.94-.5-1.06-.49-1.38.46-.42,1.25-.44,20.75-.46,23.95-.48,98.01-1.35,196.97.46,294.97l-2.3-.46V50.43l-5.53-.69C.53,33.58-.32,17.34.13,1.15c.95-2.15,41.95-.21,46.97-.23Z"/>
      <path class="cls-30" d="M299.93,50.2l-6.45.23c.62,11.23,1.27,23.92.46,35.23,0,.13-.89,2.29-.92,2.53-.18,1.51,2.04,5.83-1.38,6.22-.03-15.88-.01-31.8,0-47.66l-1.38-.46v280.23c-.21-9.43-.3-18.99-.44-28.66-.13-9.56-.2-19.12-.02-28.68l-2.3-.69c.09-73.12-.07-146.3,0-219.44-17.09-3.02-30.66-15.97-34.31-32.93H47.34c-1.85,10.29-9.91,22.19-18.88,27.63-3.92,2.37-8.47,3.11-12.66,4.61-1.64-.99-2.42.22-2.76-2.3,11.63.08,24.36-10.87,29.01-20.95,1.18-2.57,2.55-10.74,4.38-11.28,69.82.03,138.48-.03,208.16,0,2.23,4.78,2.98,9.85,5.76,14.51,5.78,9.68,16.17,16.03,26.94,18.65,1.74-2.64-7.02-3.53-9.21-4.61-10.76-5.27-19.82-17.41-21.41-29.24l-5.53-.23c-.69-1.61-2.93-1.32,0-2.76l2.76-.23-.46-8.98c15.61.05,31.34-1.18,46.97-.23.45,16.5-.4,33.04-.46,49.51Z"/>
      <path class="cls-30" d="M253.42.92l.46,8.98-2.76.23H47.34l-.23-9.21h206.32Z"/>
    </g>
    <path class="cls-30" d="M6.12,364.28c-.19,4.96,1.58,6.76-5.53,5.07.41-106.51.41-213.1,0-319.61l5.53.69v313.85Z"/>
    <path d="M112.5,402.96c-21.69-.04-43.45-.21-65.16,0-4.35-16.07-17.51-29.81-34.31-31.55.28.51.42,1.87.69,2.07.46.36,9.09,2.68,11.05,3.68,10.42,5.35,17.71,16.16,20.49,27.4l2.99,1.15c57.34-.69,114.4-.8,171.78,0l35.23-.92c.02.08.86,1.23,1.38.92-.26.62-.5,1.18-.69,1.84l-211.84-.92c-3.11-15.34-15.28-28.85-30.86-31.78l-1.15-1.61c.84-16.93.51-34.26.46-51.35,0-3.06,0-6.15,0-9.21.9.16,2.77,3.75,3.45,3.68.59-.05.5-1.53,1.38-1.38.68.12,8.86,9.03,9.44,9.9.04.05-.96.87-.92.92,5.36,7.11,15.23,13.62,20.26,20.72.3.43-.7,1.1-.92,1.38l30.16,30.62,2.07-.69c-9.25-10.14-19.17-19.13-29.01-29.01l1.15-1.61,51.58,52.04c2.23.24,2.84,3.77,5.3,2.53l-.46-1.38c-17.91-18.66-37.98-35.56-55.72-54.34-.52-.55-5.79-6.56-5.53-6.91,1.68-2.2,4.63,5.34,5.76,1.61l61.94,62.17Z"/>
    <path class="cls-30" d="M9.34,293.36c0,26.46-.3,53.06.46,79.44-1.66,4-1.37-7.59-1.38-8.06-1.81-98-.94-196.95-.46-294.97.02-3.19.04-22.7.46-23.95.32-.95.45-.96,1.38-.46-.71,82.59-.44,165.38-.46,247.99Z"/>
    <g>
      <path class="cls-30" d="M290.26,326.51c.17,15.69.51,31.45,0,47.2l1.38-.46c.04-.69-.06-1.4,0-2.07.25-2.51,2.19-1.68,2.3-1.84l5.99.46c.06,16.47.91,33.01.46,49.51-15.61.48-31.36.19-46.97.23-.08-3.53-.15-7.06-.23-10.59H47.34c-.12,2.08-.25,4.23-.23,6.45,0,1.38,0,2.77,0,4.14-15.62-.05-31.33.23-46.97-.23-.45-16.65.4-33.35.46-49.97,7.1,1.69,5.34-.11,5.53-5.07l2.3.46c0,.47-.28,12.06,1.38,8.06-.76-26.38-.47-52.99-.46-79.44.69.12,2.41-.27,2.76.23.97,1.37-1.19,24.72.46,28.32.05,17.09.38,34.42-.46,51.35l1.15,1.61c15.57,2.93,27.75,16.44,30.86,31.78l211.84.92c.19-.66.43-1.22.69-1.84.85-2.02,1.02-5.14,1.84-7.14,4.86-11.82,16.15-21.51,28.78-23.72.82-.88-.24-1.31-.23-1.38.1-1.13-.48-2.13-.46-2.3,0-.05.9.15.92-.23.94-14.89-.05-31.63,0-46.74,0-1.07,0-2.15,0-3.22.05-17.49-.02-35.01,0-52.5l2.3.69c-.34,19.12.25,38.24.46,57.34Z"/>
      <path class="cls-30" d="M253.42,419.54c-68.76.17-137.56.2-206.32,0,0-1.38,0-2.77,0-4.14,2.75-1.16,4.74,4.56,5.3-.92,2.26,2.71,4.22-.19,5.53,0,.37.05,6.13,5.5,2.07-.69,1.06-2.18,5.95,3.84,6.68,3.91.93.1,1.91-1.79,2.3-1.84.43-.05,2.77,1.68,3.22,1.38.56-.37-.09-1.44.46-1.84.78-.57,3.6,1.95,4.14,1.84.64-.13.65-1.93,1.84-1.84.19.01,2.17,2.45,3.22,1.84.73-.42-2.04-4.75,4.61,0,1.83-4.84,2.6.34,4.61,0,.78-.13.83-2.04,2.3-1.84.25.03,1.93,2.32,3.22,1.84,1.01-.37.19-1.64,1.38-1.84.49-.08,2.55,2.7,4.14,1.84-.34-5.69,2.92,1.12,4.61,0l-2.53-3.91c2.19-1.62,5.46,4.56,7.14,3.91.9-.35.54-1.66.92-1.84.78-.38,2.18.95,2.3.92,1-.24.16-2.77,1.38-3.22.6.96,3.93,3.99,4.61,4.14,2.71.63,1.47-1.65,1.84-1.84.89-.47,2.22,1.65,3.68,1.38,1.7-.32-.87-1.85.46-2.3,2.85,2.58,3.41-.88,4.61-.92,1.46-.04,3.5,4.67,5.99,3.68.5-1.23-2.12-2.79.46-2.76l2.76,2.3-.23-2.53c.69-2.53,4.05,3.18,5.76,2.99,1.81-.2.34-1.92,2.3-1.84,1.04.04,1.92,2.76,3.68,1.84.69-.36-.87-1.83,0-2.3.42-.23,3.7,3.23,4.84,2.07.08-.08-.27-1.79.69-2.07.48-.14,1.82,2.74,3.68,1.84-.79-5.84,1.66-.77,2.76-.46.2.06,3.76-1.01,4.14-.92.35.08,5.85,4.91,1.61-1.15.48-2.01,4.47,2.31,5.3,2.99,2.79.56.74-2.13,2.3-2.3,3.19,3.78,3.58,1.25,5.07.92,1.7-.38,1.73,3.19,2.76-2.76.63.44,3.42,3.68,3.68,3.68,1.42.04.39-2.46,2.3-2.3,1.75.14,4.45,6.48,5.07,0,3.03,4.59,4.87,1.19,6.45,1.38.18.02,2.17,2.12,3.22,1.38.69-.48-.6-2.02,1.38-1.84.34.03,2,2.82,3.68,1.84.3-.17-1.24-2.72.92-2.3,3.03,4.39,3.91.88,5.53.92.15,0,2.22,1.76,2.76,1.38.7-.49-.47-2.13.92-2.3.22-.03,3,2.48,3.68,2.3,1.25-.32-.17-2.49,1.84-2.3.18.02,2.28,2.18,2.76,2.3,1.05.27,1.51-1.64,3.22-1.38.22.03,1.74,1.84,2.76,1.38.83-.37-2.59-4.19,4.61,0,1.4-5.22,2.01-.37,3.68,0,3.93.87-.19-2.81,3.22-2.3,2.33,4.27,6.29,1.71,6.68-2.3.22,2.27.42,4.65,0,6.91Z"/>
      <path class="cls-30" d="M253.42,412.63c-.39,4.01-4.35,6.57-6.68,2.3-3.41-.51.71,3.17-3.22,2.3-1.67-.37-2.29-5.22-3.68,0-7.2-4.19-3.77-.37-4.61,0-1.02.46-2.54-1.35-2.76-1.38-1.71-.26-2.17,1.65-3.22,1.38-.48-.13-2.58-2.29-2.76-2.3-2.02-.19-.59,1.98-1.84,2.3-.68.17-3.47-2.33-3.68-2.3-1.39.17-.22,1.81-.92,2.3-.54.38-2.61-1.38-2.76-1.38-1.61-.04-2.49,3.47-5.53-.92-2.17-.42-.63,2.13-.92,2.3-1.68.98-3.35-1.81-3.68-1.84-1.99-.18-.7,1.36-1.38,1.84-1.05.74-3.04-1.36-3.22-1.38-1.58-.2-3.42,3.21-6.45-1.38-.61,6.48-3.32.14-5.07,0-1.91-.16-.88,2.34-2.3,2.3-.26,0-3.05-3.24-3.68-3.68-1.03,5.95-1.07,2.39-2.76,2.76-1.49.33-1.87,2.86-5.07-.92-1.56.18.49,2.87-2.3,2.3-.82-.68-4.81-5.01-5.3-2.99,4.24,6.06-1.26,1.23-1.61,1.15-.39-.08-3.94.98-4.14.92-1.1-.31-3.55-5.38-2.76.46-1.87.9-3.21-1.98-3.68-1.84-.96.29-.61,1.99-.69,2.07-1.14,1.16-4.41-2.3-4.84-2.07-.87.47.69,1.94,0,2.3-1.77.92-2.65-1.8-3.68-1.84-1.96-.08-.5,1.64-2.3,1.84-1.71.19-5.07-5.53-5.76-2.99l.23,2.53-2.76-2.3c-2.58-.03.04,1.53-.46,2.76-2.49.98-4.53-3.73-5.99-3.68-1.19.04-1.75,3.51-4.61.92-1.33.46,1.24,1.99-.46,2.3-1.47.27-2.79-1.86-3.68-1.38-.37.2.87,2.47-1.84,1.84-.67-.16-4.01-3.19-4.61-4.14-1.23.45-.38,2.99-1.38,3.22-.12.03-1.53-1.3-2.3-.92-.38.18-.02,1.5-.92,1.84-1.68.65-4.95-5.53-7.14-3.91l2.53,3.91c-1.69,1.12-4.94-5.69-4.61,0-1.59.86-3.65-1.92-4.14-1.84-1.19.2-.37,1.47-1.38,1.84-1.29.47-2.97-1.81-3.22-1.84-1.48-.19-1.53,1.71-2.3,1.84-2.01.34-2.77-4.84-4.61,0-6.65-4.75-3.88-.42-4.61,0-1.06.61-3.04-1.83-3.22-1.84-1.19-.09-1.2,1.71-1.84,1.84-.55.11-3.37-2.41-4.14-1.84-.55.41.1,1.47-.46,1.84-.45.3-2.79-1.43-3.22-1.38-.39.05-1.37,1.94-2.3,1.84-.72-.08-5.62-6.09-6.68-3.91,4.06,6.19-1.7.74-2.07.69-.07-.01-.52.16-1.42.47-1.71.59-1.96.71-2.39.66-.37-.04-1.01-.23-1.72-1.13-.56,5.48-2.54-.24-5.3.92,0-1.19-.47-6.17.23-6.45h205.86c1.14.4.15,2.86.23,3.68Z"/>
      <path d="M112.5,402.96c46.55.08,93.19-.39,139.77,0l1.61-.69c.41-3.5,2.01-7.77,3.68-10.82,4.32-7.88,13.78-15.35,22.11-18.42,2.23-.82,4.58-1.37,6.91-1.84-.02.18.56,1.17.46,2.3-11.74,1.85-22.64,9.97-28.09,20.49-.69,1.33-3.93,9.99-3.68,10.82l-35.23.92c-57.38-.8-114.44-.69-171.78,0l-2.99-1.15c-2.78-11.24-10.07-22.05-20.49-27.4-1.96-1.01-10.59-3.33-11.05-3.68-.27-.21-.41-1.56-.69-2.07,16.8,1.74,29.96,15.48,34.31,31.55,21.71-.21,43.47-.04,65.16,0Z"/>
      <path class="cls-30" d="M287.04,373.49c0,.07,1.05.5.23,1.38-12.63,2.21-23.92,11.9-28.78,23.72-.82,1.99-.99,5.12-1.84,7.14-.52.31-1.36-.84-1.38-.92-.24-.84,2.99-9.49,3.68-10.82,1.19-2.29,2.7-4.56,4.38-6.6,7.48-9.09,21.66-13.3,23.71-13.89Z"/>
    </g>
    <path class="cls-30" d="M251.12,12.89l5.53.23c1.59,11.84,10.66,23.97,21.41,29.24,2.19,1.07,10.95,1.97,9.21,4.61-10.77-2.62-21.16-8.97-26.94-18.65-2.78-4.66-3.53-9.73-5.76-14.51-69.68-.03-138.34.03-208.16,0-1.83.55-3.19,8.72-4.38,11.28-4.65,10.09-17.38,21.04-29.01,20.95-.24-1.75,5.44-1.78,6.68-2.3,12.31-5.17,22.87-16.37,23.72-30.16l1.15-1.15,206.55.46Z"/>
    <g>
      <path class="cls-30" d="M299.93,50.2c-.41,106.51-.4,213.1,0,319.61l-5.99-.46c.44-.62-.04-13.02,0-15.2,1.68-89.5-.81-179.03,0-268.49.81-11.31.16-24-.46-35.23l6.45-.23Z"/>
      <path class="cls-4" d="M291.64,94.41c.15,79.64.18,159.08,0,238.78,0,.35,0,.56,0,.92-.02,7.14.06,14.28,0,21.41-.04,4.94.45,10.88,0,15.66-.06.68.04,1.39,0,2.07l-1.38.46c.51-15.75.17-31.51,0-47.2V46.28l1.38.46c-.01,15.86-.03,31.79,0,47.66Z"/>
      <path class="cls-30" d="M293.95,354.14c-.04,2.17.44,14.58,0,15.2-.11.16-2.05-.66-2.3,1.84.45-4.78-.04-10.72,0-15.66,1.04-1.69-.15-2.23,2.3-1.38Z"/>
      <path class="cls-30" d="M293.95,354.14c-2.46-.85-1.27-.31-2.3,1.38.06-7.13-.02-14.28,0-21.41,0-.36,0-.58,0-.92.18-79.7.15-159.15,0-238.78,3.43-.39,1.2-4.71,1.38-6.22.03-.24.91-2.4.92-2.53-.81,89.46,1.68,178.99,0,268.49Z"/>
    </g>
  </g>
</svg>