<?xml version="1.0" encoding="UTF-8"?>
<svg id="Fire_Bolt" data-name="Fire Bolt" xmlns="http://www.w3.org/2000/svg" viewBox="0 0 300 420">
  <defs>
    <style>
      .cls-1 {
        fill: #671212;
      }

      .cls-2 {
        fill: #db6234;
      }

      .cls-3 {
        fill: #e99542;
      }

      .cls-4 {
        fill: red;
      }

      .cls-5 {
        fill: #692d1d;
      }

      .cls-6 {
        fill: #d8753c;
      }

      .cls-7 {
        fill: #902716;
      }

      .cls-8 {
        fill: #f4a74f;
      }

      .cls-9 {
        fill: #cc924f;
      }

      .cls-10 {
        fill: #da8b4d;
      }

      .cls-11 {
        fill: #ff0;
      }
    </style>
  </defs>
  <g id="Generative_Object" data-name="Generative Object">
    <path class="cls-4" d="M8.57,0h283.04c4.05,1.83,7,3.63,8.39,7.79v404.43c-1.55,4.36-4.44,6.34-8.93,7.79H9.65c-1.54-.5-3.65-1.36-5.83-2.93-1.55-1.11-2.73-2.27-3.59-3.26C.11,346.42.05,279.02.05,211.62.04,144.01.08,76.4.18,8.79,1.49,4.43,4.1,1.88,8.57,0Z"/>
    <path d="M287.01,271.79c-1.92,2.95-1,5.65-1.08,8.79-.02.74,0,1.24,0,1.51-.03,2.22-1.08,3.81-1.08,4.02-.42,31.68.52,66.72,0,98.97-.03,2.08,2.1,7.46,1.08,9.55-.6,1.23-4.38.35-4.33,2.76-.03.02.08.59-.54.5l-.27-1-1.08,1.51-.27-1.51c1.73-1.77,2.28-3.84,1.62-6.03.23-.05,1.05-.45,1.08-.5,2.1-3.22-11.86-21.67-14.61-22.86-1.4-.6-3.3.72-4.33,1.51.39,1.55.19,3.15,1.89,3.77,2.1-4.55,7.55,3.29,9.47,5.78,1.34,1.74,2.1,3.98,3.25,5.78-1.05,2.39-4.96-.5-7.31-.5-1.94,0-3.43.26-4.24.49-2.83.81-4.74,2.47-5.77,3.53-1.55.91-3.28,2.21-5.2,3.73-2.13,1.69-4.07,3.43-4,4.06,2.95,2.54,7.09,4.96,10.82,6.28.68,1.78,2.22,1.16.81,3.52-1.91.87-7-.55-8.12-.5-2.8.11-7.7,1.46-9.74,1.51-.77.02-1.47-1.52-2.16-1.51-2.96.06-8.21,1.48-10.82,1.51-.1,0-1.53-1.01-1.62-1-1.39.01-5.2.98-7.04,1-.21,0-1.45-1.53-1.62-1.51-.19.03-.56,1.51-1.08,1.51-1.62-.01-2.02-1.01-2.16-1-1.03,0-1.39,1-1.62,1-3.72.06-8.04-.47-10.28-.5-2.73-.03-5.11-1.5-5.41-1.51-1.58-.04-3.07,1.51-3.25,1.51-.41,0-.13-1-.54-1-1.01-.01-1.4,1.01-1.62,1-3.25-.03-7.46,0-9.74,0-.1,0-1.53-1.01-1.62-1-.11,0-.8,1.5-1.62,1.51-.83,0-2.29-1.51-2.71-1.51-.23,0-1.4,1.51-1.62,1.51-1.19,0-2.03-1.51-2.16-1.51-.1,0-1.53,1-1.62,1-1.59.01-2.6-.51-3.79-.5-.4,0-.14,1-.54,1-.67,0-2.55-1.51-2.71-1.51-.8,0-2.55,1.51-2.71,1.51-.41,0-.13-1-.54-1-1.9-.02-.81,1.03-2.71,1-.29,0-4.04-1.5-4.33-1.51-.36,0-4.1,1.51-4.33,1.51-1.08-.02-2.76-1.5-3.79-1.51-8.99-.08-16.61.41-24.89.5-.41,0-.13,1-.54,1-.27,0-3.37-.99-4.87-1-.4,0-.14,1.01-.54,1-.22,0-.58-.98-1.62-1-.23,0-.63,1.05-1.62,1-.75-.03-1.34-1.46-2.16-1.51-.14,0-1.74,1.53-2.16,1.51-.33-.02-2.89-2.68-5.68-1.76-.07.02,1.2.96.27,1.26-3.94,1.26-4.08-1.01-4.33-1-1.66.02-3.69,1.5-4.33,1.51-3.36.05-7.33-.99-9.74-1-2.37-.02-1.99,1.01-2.16,1-2.78-.01-6.39.01-9.2,0-1.48,0-3.81-.5-5.41-.5-13.46,0-24.21.16-37.61,0l-15.69-9.04c-.21-2.23-1.84-1.66-3.25-.5V20.85c1.45-4.28,4.84-6.37,8.93-8.29h254.36c3.89.87,6.31,3.19,8.93,5.78,1.14,84.34,1.28,169,1.08,253.46Z"/>
    <g>
      <path class="cls-11" d="M267.8,14.07c.3-.21,6.78-.11,7.58,0,4.96.67,10.8,4.2,10.55,9.29-.83,2.85-13.28-7.95-16.51-7.28-1.51.31-6.4,7.68-6.76,9.29-.98,4.35.87,5.51,2.44,9.29-2.48-.37-14.13-8.88-13.8-10.3,2.55-4.21,14.95-6.92,17.05-8.79.61-.55-1.79-.64-.54-1.51Z"/>
      <path class="cls-4" d="M281.06,390.86c.66,2.19.1,4.26-1.62,6.03-5.73,5.88-17.62,1.67-15.69-6.78,1.6-7.04,15.36-5.72,17.32.75Z"/>
      <path class="cls-4" d="M27.51,385.33c10.86-1.31,12.5,12.39,3.25,14.07-12.96,2.34-15.63-12.57-3.25-14.07Z"/>
      <path class="cls-4" d="M271.05,20.6c2.26-.25,4.62.44,6.49,1.51,9.97,5.7-2.29,15.1-9.74,11.56-7.64-3.64-3.7-12.29,3.25-13.06Z"/>
      <path class="cls-4" d="M29.41,34.67c-5.71.11-14.79-6.73-7.04-12.06,12.03-8.27,21.53,11.79,7.04,12.06Z"/>
      <path class="cls-4" d="M262.93,224.57c1.4,47.18,1.28,94.53,0,141.67.06-47.26-1.43-94.48,0-141.67Z"/>
      <path class="cls-4" d="M262.93,54.26c1.61,47.7.6,95.47.54,143.18-1.99-47.73-1.08-95.61-.54-143.18Z"/>
      <path class="cls-4" d="M37.79,223.56c1.22,23.68.31,47.38.27,71.09-.04,23.69.87,47.46-.81,71.09-.09-47.37-1.17-94.83.54-142.18Z"/>
      <path class="cls-5" d="M53.49,379.81h77.39l.81,1.26-69,.25c-6.64,1.01-17.21,4.58-23.81,2.51-5.17-1.62,6.07-1.42,6.49-1.51,2.59-.51,4.93-2.49,8.12-2.51Z"/>
      <path class="cls-5" d="M168.22,379.81h80.64c4.36,2.47,9.04,1.98,13.8,3.27l-94.44-1.26v-2.01Z"/>
      <path class="cls-4" d="M37.79,54.26l.27,72.6-.81,68.07c-.1-46.84-1.17-93.83.54-140.67Z"/>
      <path class="cls-4" d="M249.4,36.17c1.71-.22,10.47-.3,11.91,0,6.29,1.33-7.05,1.89-7.58,2.01-1.2.27-3.1,2.19-5.41,2.51l-80.37-1.26,72.25-.25c2.52-.72,6.81-2.71,9.2-3.01Z"/>
      <path class="cls-4" d="M38.34,36.17c6.74-2.03,15.03,2.1,20.57,2.51,23.74,1.78,48.5-1.41,72.25,1.26l-81.45.25c.63-2.01-15.77-2.69-11.36-4.02Z"/>
      <path class="cls-11" d="M35.63,385.84l14.88,9.8-18.13,8.29c-.97-.49,6.17-8.37,6.22-10.8.06-2.57-2.84-4.85-2.98-7.28Z"/>
      <path class="cls-11" d="M35.9,34.67c.16-2.62,2.89-4.16,2.71-7.28-.13-2.19-3.58-6.3-4.87-8.29-.63-.97-2.84-2.02-1.35-3.01,6.06,1.84,11.99,4.55,17.05,8.29.52,2.13-11.3,9.31-13.53,10.3Z"/>
      <path class="cls-11" d="M262.12,401.91c-3.73-1.32-7.87-3.74-10.82-6.28-.13-1.27,7.74-6.97,9.2-7.79,1.07-.6,2.03-1.35,3.25-1.76l1.62.5c-6.39,5.48-1.59,11.95,3.25,16.58-.89,1.11-5.38-.86-6.49-1.26Z"/>
      <path class="cls-11" d="M281.06,397.89c.62.09.51-.48.54-.5.65-.36,1.88-.43,2.44-1.51,4.02.52.39,5.94-1.62,7.54-3.55,2.82-10.41,3.12-14.88,2.26l13.53-7.79Z"/>
      <path class="cls-11" d="M16.96,396.89l15.69,9.04c-7.67-.09-17.45.49-17.86-9.29l2.16.25Z"/>
      <path class="cls-11" d="M30.49,16.08c-1.43.7-2.87.86-4.87,2.01-1.39.8-10.13,6.92-10.82,5.78-.67-8.63,10.54-10.47,17.59-9.8.78,1.2-1.08,1.61-1.89,2.01Z"/>
      <path d="M30.49,16.08l3.25,3.01c1.29,1.99,4.74,6.1,4.87,8.29.18,3.12-2.54,4.67-2.71,7.28-.08.04.12,1.22-.81,1.51-.3.09-5.99.04-5.68-1.51,14.5-.27,4.99-20.32-7.04-12.06.04-2.61,6.11-1.83,3.25-4.52,2-1.15,3.44-1.31,4.87-2.01Z"/>
      <path class="cls-11" d="M282.14,390.36c-1.42-1.96-3.04-4-4.33-6.03-1.15-1.8-1.91-4.04-3.25-5.78-1.34-1.74-2.22-2.93-2.71-3.46-1.69-1.82-3.89-4.19-5.53-3.62-.34.12-.82.42-1.23,1.3-1.7-.62-1.5-2.22-1.89-3.77,1.03-.79,2.93-2.11,4.33-1.51,2.75,1.19,16.71,19.64,14.61,22.86Z"/>
      <path class="cls-11" d="M282.41,29.64c1.88,4.23-14.01,23.82-16.24,23.61-.25-.02-3.42-2.81-2.98-3.77,2.2-2.14,2.92,1.01,5.41-.5,2.52-1.53,12.67-19.84,13.8-19.34Z"/>
      <path class="cls-11" d="M32.92,367.25c3.27.62,4.53,1.13,3.52,4.27-1.36,1.02-1.97-.88-2.98-.75-2.91.37-13.98,19.64-15.15,19.09.99-9.35,9.87-15.03,14.61-22.61Z"/>
      <path class="cls-11" d="M18.85,30.14c2.59,3.52,9.96,18.89,14.07,19.59.89.15,2.35-1.68,3.52-.75,1.88,1.09-2.12,4.72-2.44,4.77-.99.15-10.59-12.02-11.64-13.82-1.35-2.32-4.53-7.41-3.52-9.8Z"/>
      <g>
        <path class="cls-11" d="M253.73,50.74c3.52.41-1.54,7.15-2.44,8.29-3.98,5.07-24.01,19.75-25.44,24.11-.55,1.7.64,9.97,0,13.56-2.8,15.65-20.21,31.08-31.66,41.95l23.54-39.94c-1.53-3.77-3.07-7.54-4.6-11.3,13.53-12.22,27.06-24.45,40.59-36.67Z"/>
        <path class="cls-4" d="M176.88,113.04c9.28-.68-6.6,9.69-7.85,6.28-.56-1.52,6.04-6.15,7.85-6.28Z"/>
      </g>
      <path class="cls-11" d="M195.28,283.85c6.44,5.65,15.12,14.75,21.34,28.01,4.84,10.33,4.71,15.78,8.7,24.49,4.04,8.83,12.07,20.46,29.77,31.15-.88,1-1.83,1.78-3.25,1-11.99-12.62-28.43-20.94-38.15-35.42-6.13-16.41-12.27-32.82-18.4-49.23Z"/>
      <g>
        <path class="cls-11" d="M82.98,98.22c1.97,3.19,3.6,6.54,5.41,9.8,5.49,9.84,11.59,19.45,17.86,28.89-13.32-9.51-31.22-27.46-32.47-43.71-.25-3.25,1.54-8.77.54-11.05-2.12-4.86-20.96-17.68-25.44-24.11-1-1.43-3.55-5.53-2.71-7.03.48-.5,1.26.03,1.89.25,2.15.75,30.44,25.55,33.82,28.89,1.33,1.32,3.87,3.34,4.6,6.78,1,4.7-1.82,9.09-3.52,11.3Z"/>
        <path class="cls-4" d="M122.76,112.54c1.66-.34,5.99,2.53,6.76,3.77,5.76,9.2-14.26-2.22-6.76-3.77Z"/>
      </g>
      <g>
        <path class="cls-11" d="M103.28,284.35l-20.29,37.93,3.52,11.3c-9.88,14.67-26.17,24.32-39.51,36.17-1.03-.38-1.02-2.99-.81-3.77,1.32-5.07,27.84-24.72,28.68-28.64.29-1.32-1.3-6.7-1.08-9.55,1.27-16.52,17.81-32.29,29.49-43.46Z"/>
        <path class="cls-5" d="M128.17,300.43s.57-.02,1.08,0c.36,0,.72.02,1.08,0-1.77,0-2.16,0-2.16,0Z"/>
      </g>
      <path class="cls-2" d="M171.74,76.87c2.58-.62,2.9.51,1.35,1-1.66.53-1.21-.84-1.35-1Z"/>
      <path class="cls-9" d="M32.38,226.08c.77,1.05.77,1.46,0,2.51-.43-.19-.44-2.32,0-2.51Z"/>
      <path class="cls-3" d="M268.34,144.69c.14-.02.95,2.14.54,2.51-.92-.29-1.13-2.43-.54-2.51Z"/>
      <path class="cls-9" d="M268.34,343.13c.42,0,.42,2.51,0,2.51-.47-.41-.38-2.51,0-2.51Z"/>
      <path class="cls-9" d="M32.38,145.69c.42,0,.42,2.51,0,2.51-.47-.41-.38-2.51,0-2.51Z"/>
      <path class="cls-10" d="M42.12,334.59c.52.08,1.64-.23,1.89.25.07.13-2.39,1.3-1.89-.25Z"/>
      <path class="cls-10" d="M226.13,36.17c1.21,1.25-1.79,1.27-1.89.75l1.89-.75Z"/>
      <path class="cls-9" d="M15.61,191.91c1.09-.2,1.07,1.27.54,1.51-.21.09-1.36-1.36-.54-1.51Z"/>
      <path class="cls-10" d="M216.39,48.73c.71-.05,2.48,1.47-.54,1-.55-.26.47-1,.54-1Z"/>
      <path class="cls-9" d="M177.42,298.92c1.89.23-.9,1.68-1.35.75l1.35-.75Z"/>
      <path class="cls-10" d="M22.64,169.81c.42,0,.41,2.01,0,2.01s-.41-2.01,0-2.01Z"/>
      <path class="cls-9" d="M56.19,322.54c.42,0,.41,2.01,0,2.01s-.41-2.01,0-2.01Z"/>
      <path class="cls-10" d="M238.58,366.75c.45.05,1.84-.18,1.89.25.04.31-2.44.6-1.89-.25Z"/>
      <path class="cls-3" d="M163.89,375.79c.14.41.9,1.15.54,1.51-1,.19-1.11-.83-.54-1.51Z"/>
      <polygon class="cls-3" points="252.1 377.8 252.92 378.05 252.1 378.8 251.83 378.55 252.1 377.8"/>
      <polygon class="cls-3" points="118.97 131.63 119.51 132.13 119.51 132.63 118.97 132.63 118.97 131.63"/>
      <path class="cls-3" d="M270.51,165.29h.54c1.07-.08,1.07.58,0,.5l-.54-.5Z"/>
      <polygon class="cls-10" points="96.24 32.66 97.05 32.91 96.24 33.66 95.97 33.41 96.24 32.66"/>
      <polygon class="cls-3" points="222.88 47.22 223.69 47.48 222.88 48.23 222.61 47.98 222.88 47.22"/>
      <polygon class="cls-3" points="76.76 17.58 77.57 17.83 77.3 18.59 77.03 18.34 76.76 17.58"/>
      <polygon class="cls-3" points="271.05 275.81 271.32 276.57 270.51 276.82 270.23 276.57 271.05 275.81"/>
      <polygon class="cls-3" points="253.73 47.73 254.54 47.98 254.27 48.73 254 48.48 253.73 47.73"/>
      <polygon class="cls-3" points="60.52 388.35 60.79 389.1 59.98 389.35 59.71 389.1 60.52 388.35"/>
      <polygon class="cls-9" points="258.6 83.9 259.41 84.15 258.6 84.9 258.33 84.65 258.6 83.9"/>
      <polygon class="cls-8" points="235.33 173.83 235.6 174.58 234.79 174.83 234.52 174.58 235.33 173.83"/>
      <g>
        <path class="cls-5" d="M151.17,293.4l.27,16.58,12.18-14.07c.09.49.5.54.54,1-.4,3.87-11.72,11.71-12.45,14.32-1.54,5.49,1.6,16.09.54,22.11l14.61-15.32c.1.47-.1,1.04,0,1.51-1.54,2.38-13.69,13.62-14.07,14.82-1.13,3.54.85,12.41,0,16.58l17.32-17.83c-.44,1.45.03,1.32-1.08,3.01-2.59,3.95-15.81,14.68-16.78,17.33-.07.18.09,3.68.27,3.77l18.13-20.1c.7,2.93-17.56,18.33-18.4,22.36-.1.5-.11,2.66.27,2.76l17.05-20.85c2.01-.73.27,1.35.54,2.26l-17.86,19.84c-.75,4.76-.37,9.54-.54,14.32-.04,1.05.97,18.38-2.16,13.82-.76-1.11-1.47-16.21-1.62-18.84-1.19-20.18-3.17-58.92,0-77.87.08-.49-.89-.65-.27-1,1.24.17,2.37-.2,3.52-.5Z"/>
        <path class="cls-2" d="M141.97,293.9c-.23,1.08,4.21,6.08,4.6,6.03,2.19-.29-.54-4.35-1.35-5.02h2.71c-3.17,18.96-1.19,57.69,0,77.87-.66-.21-1.13-.53-1.62-1,.96-.26.61-1.93.27-2.51-.6-1.04-13.67-16.44-14.88-17.58l1.08-.5c.89,1.19,12.92,16.7,13.8,16.08.58-.41.14-1.66.27-2.26-5.89-5.05-9.64-12.03-15.15-17.33l1.08-.5c4.12,5.15,9.39,9.75,12.99,15.32l1.08-2.01-16.78-19.34c.26-.18.75-.42,1.08-.5,3.3,4.99,11.4,10.66,14.88,16.08,3.22-.57-6.59-10.26-7.31-11.05v-1.51c1,1.06,9.33,10.42,8.12,5.78-.28-1.08-14.2-15.78-15.69-16.83l1.08-1c3.12,4.65,11.05,9.95,14.34,15.07,2.58-1.68-13.89-16.84-15.97-18.59.04-.75,1.45-.23,1.08-1.51l15.15,15.32-15.15-16.83c.02-.3.67-2.71,1.08-3.01.22.95,12.05,14.89,12.99,15.32.66.3.7-.23,1.08-.5l-14.07-15.83c-.02-.99.78-1.79,1.08-2.51l12.72,14.57c1.91-.66-10.01-14.11-11.09-15.07.59-1.34-.78-1.09-.54-3.01,2.63,1.35,9.39,12.16,10.82,12.81.66.3.7-.23,1.08-.5.16-1.34-9.72-12.5-11.91-13.82.58-.95,1.47-.09,1.62-1,.39.58,8.88,10.97,9.47,10.55,2.29-1.63-8.74-11.38-10.01-13.56.46-1.29-.02-1.13,1.62-1,1.74,2.97,6.23,7.64,9.2,9.8-2.16-3.87-5.16-7.99-8.12-11.3l1.62.5c.59.81,5.21,7.02,5.68,7.03,3.74.1-7.84-12.12-8.93-13.06.21-.66.93-.85,1.08-1.51,1.61,2.89,6.08,7.39,8.66,9.8-.92-4.26-5.62-8.79-8.66-12.31h1.62c1.84,2.33,4.94,5.01,7.04,7.28.17-2.59-4.95-9.04-7.04-10.8,1.22-1.9,1.67-.57,2.16-.5Z"/>
        <path class="cls-5" d="M151.17,39.69c1.18,23.46.7,47.27.54,70.84-.03,4.94,0,9.91,0,14.82,0,.91.52,2.49-1.08,2.26-1.16-.05-2.34-.5-2.71-.5.85-27.88-1.3-56.03.54-83.9.16-2.46.45-13.14,1.08-14.32,2.15-4.03,1.59,10.09,1.62,10.8Z"/>
        <path class="cls-2" d="M164.16,301.44l-8.66,8.29-3.25,5.02,11.91-11.3c.05.49-.06,1.02,0,1.51-3.43,4.99-9.23,8.64-11.91,13.82l12.45-11.3c.11.81-.12,1.71,0,2.51-4.01,4.14-9.83,8.64-11.91,13.82,4.92-2.68,7.53-9.73,12.99-11.3.03.16-.03.34,0,.5-3.13,5.92-11.11,9.85-12.99,15.83l13.53-13.31c.17.83.36,1.69.54,2.51l-14.61,15.32c1.06-6.01-2.08-16.62-.54-22.11.73-2.6,12.05-10.45,12.45-14.32.15,1.83-.1,3.36,0,4.52Z"/>
        <path class="cls-2" d="M162,292.39c-.13,1.89-11.91,11.71-9.47,13.06l11.09-12.06c.58,1.94-.02,2.39,0,2.51l-12.18,14.07-.27-16.58c1.86-.49,4.53-.81,6.49-1-1.4,2.24-7.07,4.97-5.14,8.04l6.76-8.04c1.38-.09,1.25-.17,2.71,0Z"/>
        <path class="cls-7" d="M130.07,341.12l16.78,19.34-1.08,2.01c-3.6-5.57-8.87-10.18-12.99-15.32-1.5-1.88-4.84-4.55-2.71-6.03Z"/>
        <path class="cls-7" d="M138.73,345.65c.72.79,10.53,10.48,7.31,11.05-3.48-5.42-11.58-11.09-14.88-16.08-.88-1.33-2.27-2.85-1.35-4.52,2.8,3.32,6.01,6.32,8.93,9.55Z"/>
        <path class="cls-7" d="M170.66,77.37s.02.37.01.7c0,.34-.01.7-.01.81,0-1.24,0-1.51,0-1.51Z"/>
        <path class="cls-2" d="M170.66,337.11l-18.13,20.1c-.18-.08-.34-3.59-.27-3.77.97-2.65,14.19-13.38,16.78-17.33.12.96,1.39.03,1.62,1Z"/>
        <path class="cls-7" d="M131.15,333.09c1.5,1.05,15.41,15.75,15.69,16.83,1.22,4.65-7.12-4.72-8.12-5.78-1.17-1.25-9.11-10.12-9.2-10.8-.29-2.19,1.04-.66,1.62-.25Z"/>
        <path class="cls-6" d="M130.07,351.67c4.37,6.04,9.11,11.96,14.07,17.58l-1.08,1c-2.95-3.57-6.31-7.39-9.74-10.55-.67-1.02-1.3-1.93-1.89-3.01-.03-.06-.93,1.11-1.35.25-.05-.09.97-.8.54-2.01-.23-.65-2.79-3.5-.54-3.27Z"/>
        <path class="cls-7" d="M170.11,90.43c-.02.26-.52,1.35-.54,1.51.18-.5.36-1,.54-1.51Z"/>
        <path class="cls-7" d="M131.69,347.66c5.51,5.3,9.26,12.29,15.15,17.33-.13.6.31,1.85-.27,2.26-.88.62-12.91-14.88-13.8-16.08-1.07-1.44-2.48-2.59-3.25-4.27l1.08-.5c.41.44.63.82,1.08,1.26Z"/>
        <path class="cls-7" d="M167.95,101.48c-.14.85-.39,1.64-.54,2.51.18-.84.36-1.67.54-2.51Z"/>
        <path class="cls-5" d="M130.07,83.4c-.05-.65-.01-1.35,0-2.01v2.01Z"/>
        <path class="cls-7" d="M168.49,97.46c-.03.18.16,1.1,0,2.01v-2.01Z"/>
        <path class="cls-5" d="M131.15,87.92c-.04-.15-.38-.61-.54-1.51.18.5.36,1,.54,1.51Z"/>
        <path class="cls-7" d="M132.23,332.08c-.7-1.04-1.68-2.26-1.62-3.52,2.07,1.75,18.54,16.91,15.97,18.59-3.3-5.12-11.22-10.42-14.34-15.07Z"/>
        <path class="cls-7" d="M131.69,351.67c1.21,1.15,14.28,16.55,14.88,17.58.34.58.69,2.25-.27,2.51-.76-.73-1.47-1.72-2.16-2.51-4.96-5.63-9.7-11.54-14.07-17.58l.27-1c.24.48,1.13.79,1.35,1Z"/>
        <path class="cls-7" d="M135.48,318.52c1.08.97,13.01,14.42,11.09,15.07l-12.72-14.57c.2-.48-.33-1.73.27-2.01.22,1.05.83,1.04,1.35,1.51Z"/>
        <path class="cls-7" d="M131.69,327.06c-1.48-.53,0-1.43,0-1.51l15.15,16.83-15.15-15.32Z"/>
        <path class="cls-7" d="M132.77,322.54c-.07-.3,0-.68,0-1l14.07,15.83c-.39.27-.42.8-1.08.5-.94-.43-12.77-14.37-12.99-15.32Z"/>
        <path class="cls-7" d="M166.33,315.5l-13.53,13.31c1.88-5.98,9.86-9.9,12.99-15.83.17.85.38,1.69.54,2.51Z"/>
        <path class="cls-7" d="M165.79,312.49c-5.46,1.58-8.07,8.63-12.99,11.3,2.07-5.17,7.9-9.68,11.91-13.82.09.59.87,1.42,1.08,2.51Z"/>
        <path class="cls-7" d="M139.81,294.4c2.08,1.76,7.21,8.21,7.04,10.8-2.09-2.27-5.19-4.96-7.04-7.28-.68-.86-3.88-4.28-3.25-5.28,1.45-.05,2.32.97,3.25,1.76Z"/>
        <path class="cls-7" d="M132.77,99.47c-.97-1.61.12-1.59,0-2.01v2.01Z"/>
        <path class="cls-7" d="M164.16,301.44c.06.66-.07,1.35,0,2.01l-11.91,11.3,3.25-5.02,8.66-8.29Z"/>
        <path class="cls-5" d="M164.7,307.46l-12.45,11.3c2.68-5.17,8.48-8.82,11.91-13.82.12,1.05.45,1.86.54,2.51Z"/>
        <path class="cls-7" d="M138.18,297.92c3.04,3.51,7.74,8.04,8.66,12.31-2.58-2.41-7.05-6.91-8.66-9.8-.76-1.37-1.53-1.83-1.08-3.77.53-.53.83.96,1.08,1.26Z"/>
        <path class="cls-7" d="M143.06,370.26c1.22,1.47,5.77,4.62,3.25,6.28-4.25-5.74-9.05-10.85-12.99-16.83,3.43,3.16,6.79,6.98,9.74,10.55Z"/>
        <path class="cls-7" d="M134.94,315.5c.06-.45-.12-1.31,0-1.51,2.18,1.32,12.06,12.48,11.91,13.82-.39.27-.42.8-1.08.5-1.44-.66-8.2-11.47-10.82-12.81Z"/>
        <path class="cls-7" d="M133.85,102.99c.12-.47.23-.95.35-1.42"/>
        <path class="cls-7" d="M140.35,307.97c-1.58-2.19-3.98-3.69-3.25-6.03,1.09.94,12.67,13.16,8.93,13.06-.47-.01-5.1-6.22-5.68-7.03Z"/>
        <path class="cls-7" d="M136.56,312.99c-.89-1.34-1.14-1.34-.54-3.01,1.27,2.18,12.31,11.94,10.01,13.56-.59.42-9.08-9.97-9.47-10.55Z"/>
        <path class="cls-1" d="M163.62,293.4l-11.09,12.06c-2.44-1.35,9.34-11.17,9.47-13.06.66.08.96,0,1.35-.5,1.52.82.25,1.43.27,1.51Z"/>
        <path class="cls-7" d="M138.73,307.46c2.96,3.32,5.96,7.44,8.12,11.3-2.97-2.16-7.46-6.83-9.2-9.8-.69-1.17-1.5-1.55-1.08-3.27.53.58,1.71,1.25,2.16,1.76Z"/>
        <path class="cls-7" d="M159.29,128.61c-.7-.02-1.35.07-2.16,0-.94-1.2-6.74-6.52-4.6-8.04l6.76,8.04Z"/>
        <path class="cls-7" d="M159.29,292.39l-6.76,8.04c-1.93-3.07,3.74-5.8,5.14-8.04.53-.05,1.09.03,1.62,0Z"/>
        <path class="cls-7" d="M145.22,294.9c.82.68,3.55,4.73,1.35,5.02-.39.05-4.83-4.95-4.6-6.03,1.56.22,1.82-.18,3.25,1Z"/>
        <path class="cls-7" d="M143.6,127.61c-.32.01-.73.37-2.16.5l5.68-7.54c1.16,2.89-2.01,4.97-3.52,7.03Z"/>
        <g>
          <path class="cls-2" d="M167.95,321.53c-3.33,3.28-12.09,10.74-14.07,14.32-.44.79-1.01,1.35-.27,2.26l14.34-16.58c.05.22,1.31,2.46,1.08,4.02l-15.69,16.33c3.64-1.9,14.91-12.65,15.69-15.83,1.46,1.94,1.75,4.81,1.08,7.03l-17.32,17.83c.85-4.16-1.13-13.04,0-16.58.39-1.2,12.53-12.44,14.07-14.82.02.11.83.87,1.08,2.01Z"/>
          <path class="cls-7" d="M169.03,325.55c-.02.16.04.35,0,.5-.78,3.18-12.06,13.93-15.69,15.83l15.69-16.33Z"/>
          <path class="cls-7" d="M167.95,321.53l-14.34,16.58c-.74-.91-.17-1.47.27-2.26,1.98-3.58,10.74-11.04,14.07-14.32Z"/>
          <path class="cls-7" d="M169.3,329.07c1.01.57-.41,2.64-.81,3.27-2.91,4.59-11.14,10.39-14.88,14.82-2.5-.68,15.03-16.53,15.69-18.09Z"/>
        </g>
        <g>
          <path class="cls-2" d="M164.16,364.23c.51-.76,1.63-1.43.81-2.51-3.87,5.2-10.16,9.93-12.72,15.57-.03.02.07.59-.54.5.18-4.77-.21-9.56.54-14.32l17.86-19.84c.31,1.02,1.62,2.61,1.62,2.76,0,.11-1.02,1.19-1.08,2.01-.01.16,1.11.86,1.08,1-.04.23-1.43.36-1.62,1-.96,3.18-2.06,4.64-2.71,6.53-.56,1.62,1.95,6.35-3.25,7.28Z"/>
          <path class="cls-7" d="M164.16,364.23c-2.33,3.44-8.6,10.25-11.91,13.06,2.55-5.65,8.85-10.37,12.72-15.57.82,1.08-.3,1.75-.81,2.51Z"/>
          <path class="cls-7" d="M169.3,347.15l-16.24,20.1c-.53-.78-.35-1.71,0-2.51,1.28-2.96,13.8-13.8,16.24-17.58Z"/>
          <path class="cls-7" d="M168.76,351.67c2.62,1.17-14.52,19.95-16.24,21.1l16.24-21.1Z"/>
        </g>
        <g>
          <path class="cls-4" d="M143.33,129.11c47.71-2.85,89.72,32.48,92.54,76.36,5.99,1.48,12.19,3.08,18.4,3.52,2.97.21,21.94-.77,22.46.25.3.58-.05,1.93-.81,2.26l-38.97,1.51c-3.13,18.49-10.27,36.69-23.54,50.99-16.07,17.31-48.78,30.44-73.33,26.88-44.38-6.44-71.41-38.95-77.39-78.88-4.34-.42-38.49.43-39.24-1.26-.25-.57.22-1.54.81-1.76,2-.75,20.03-.02,24.35-.5,4.92-.55,9.7-2.34,14.61-3.01l1.35-1.26c.29-37.49,39.11-72.74,78.74-75.11Z"/>
          <path d="M148.74,265.26c8.13-1.13,9.24,9.82,2.16,10.55-7.7.8-8.24-9.71-2.16-10.55Z"/>
          <path d="M83.79,205.48c7.74-1.58,9.75,8.63,3.25,10.05-8.77,1.91-9.08-8.86-3.25-10.05Z"/>
          <path d="M149.28,143.68c6.59-.64,8.68,9.71,1.62,10.55-7.18.86-8.14-9.92-1.62-10.55Z"/>
          <path d="M213.68,204.98c8.05-1.68,9.62,9.25,2.71,10.05-6.73.77-8.45-8.85-2.71-10.05Z"/>
          <path class="cls-11" d="M103.56,198.49c5.23-7.1,14.59-17.71,29.46-25.65,30.53-16.32,61.14-9.07,69.03-6.94-4.93-1.1-22.21-4.31-39.03,5.31-7.38,4.22-12.25,9.53-15.21,13.44,18.08,21.84,36.16,43.67,54.24,65.51-9.48-3.04-29.79-8.15-54.98-3.52-24.82,4.57-41.71,16.27-49.47,22.42,1.69-3.92,4.86-10.36,10.44-17.01,15.97-19.05,35.11-20.2,35.94-28.23.5-4.88-5.68-12.81-40.42-25.33Z"/>
        </g>
      </g>
    </g>
  </g>
</svg>