<?xml version="1.0" encoding="UTF-8"?>
<svg xmlns="http://www.w3.org/2000/svg" xmlns:xlink="http://www.w3.org/1999/xlink" viewBox="0 0 1468.51 704.94">
  <defs>
    <style>
      .cls-1 {
        fill: #2f4f7e;
      }

      .cls-2 {
        filter: url(#drop-shadow-16);
      }

      .cls-2, .cls-3, .cls-4, .cls-5, .cls-6, .cls-7, .cls-8, .cls-9, .cls-10, .cls-11, .cls-12, .cls-13, .cls-14, .cls-15 {
        fill: #fff;
      }

      .cls-16 {
        filter: url(#drop-shadow-9);
      }

      .cls-16, .cls-17, .cls-18, .cls-19, .cls-20 {
        fill: #231f20;
      }

      .cls-21 {
        fill: #193358;
      }

      .cls-22 {
        fill: #4b3b4d;
      }

      .cls-3 {
        filter: url(#drop-shadow-12);
      }

      .cls-23 {
        fill: #f9cabb;
      }

      .cls-24 {
        fill: #fee2d3;
      }

      .cls-25 {
        fill: #e8f1fa;
      }

      .cls-5 {
        filter: url(#drop-shadow-7);
      }

      .cls-6 {
        filter: url(#drop-shadow-15);
      }

      .cls-26 {
        fill: #302739;
      }

      .cls-7 {
        filter: url(#drop-shadow-13);
      }

      .cls-8 {
        filter: url(#drop-shadow-3);
      }

      .cls-9 {
        filter: url(#drop-shadow-4);
      }

      .cls-18 {
        filter: url(#drop-shadow-17);
      }

      .cls-10 {
        filter: url(#drop-shadow-5);
      }

      .cls-19 {
        filter: url(#drop-shadow-1);
      }

      .cls-27 {
        fill: #e9aa9d;
      }

      .cls-28 {
        fill: none;
        filter: url(#drop-shadow-10);
      }

      .cls-11 {
        filter: url(#drop-shadow-8);
      }

      .cls-29 {
        fill: #d3a7a2;
      }

      .cls-12 {
        filter: url(#drop-shadow-2);
      }

      .cls-13 {
        filter: url(#drop-shadow-6);
      }

      .cls-30 {
        fill: #f0d0b4;
        stroke: #231f20;
        stroke-miterlimit: 10;
      }

      .cls-14 {
        filter: url(#drop-shadow-14);
      }

      .cls-15 {
        filter: url(#drop-shadow-11);
      }

      .cls-20 {
        filter: url(#drop-shadow-18);
      }

      .cls-31 {
        fill: #53b7c2;
      }
    </style>
    <filter id="drop-shadow-1" x="510.7" y="306.12" width="324.96" height="324.96" filterUnits="userSpaceOnUse">
      <feOffset dx="3" dy="3"/>
      <feGaussianBlur result="blur" stdDeviation="3"/>
      <feFlood flood-color="#231f20" flood-opacity=".75"/>
      <feComposite in2="blur" operator="in"/>
      <feComposite in="SourceGraphic"/>
    </filter>
    <filter id="drop-shadow-2" x="455.5" y="434.04" width="435.36" height="69.12" filterUnits="userSpaceOnUse">
      <feOffset dx="3" dy="3"/>
      <feGaussianBlur result="blur-2" stdDeviation="3"/>
      <feFlood flood-color="#231f20" flood-opacity=".75"/>
      <feComposite in2="blur-2" operator="in"/>
      <feComposite in="SourceGraphic"/>
    </filter>
    <filter id="drop-shadow-3" x="455.5" y="434.04" width="435.36" height="69.12" filterUnits="userSpaceOnUse">
      <feOffset dx="3" dy="3"/>
      <feGaussianBlur result="blur-3" stdDeviation="3"/>
      <feFlood flood-color="#231f20" flood-opacity=".75"/>
      <feComposite in2="blur-3" operator="in"/>
      <feComposite in="SourceGraphic"/>
    </filter>
    <filter id="drop-shadow-4" x="638.62" y="250.92" width="69.12" height="435.36" filterUnits="userSpaceOnUse">
      <feOffset dx="3" dy="3"/>
      <feGaussianBlur result="blur-4" stdDeviation="3"/>
      <feFlood flood-color="#231f20" flood-opacity=".75"/>
      <feComposite in2="blur-4" operator="in"/>
      <feComposite in="SourceGraphic"/>
    </filter>
    <filter id="drop-shadow-5" x="473.26" y="334.68" width="399.84" height="267.84" filterUnits="userSpaceOnUse">
      <feOffset dx="3" dy="3"/>
      <feGaussianBlur result="blur-5" stdDeviation="3"/>
      <feFlood flood-color="#231f20" flood-opacity=".75"/>
      <feComposite in2="blur-5" operator="in"/>
      <feComposite in="SourceGraphic"/>
    </filter>
    <filter id="drop-shadow-6" x="539.26" y="268.68" width="267.84" height="399.84" filterUnits="userSpaceOnUse">
      <feOffset dx="3" dy="3"/>
      <feGaussianBlur result="blur-6" stdDeviation="3"/>
      <feFlood flood-color="#231f20" flood-opacity=".75"/>
      <feComposite in2="blur-6" operator="in"/>
      <feComposite in="SourceGraphic"/>
    </filter>
    <filter id="drop-shadow-7" x="539.26" y="268.68" width="267.84" height="399.84" filterUnits="userSpaceOnUse">
      <feOffset dx="3" dy="3"/>
      <feGaussianBlur result="blur-7" stdDeviation="3"/>
      <feFlood flood-color="#231f20" flood-opacity=".75"/>
      <feComposite in2="blur-7" operator="in"/>
      <feComposite in="SourceGraphic"/>
    </filter>
    <filter id="drop-shadow-8" x="473.26" y="334.68" width="399.84" height="267.84" filterUnits="userSpaceOnUse">
      <feOffset dx="3" dy="3"/>
      <feGaussianBlur result="blur-8" stdDeviation="3"/>
      <feFlood flood-color="#231f20" flood-opacity=".75"/>
      <feComposite in2="blur-8" operator="in"/>
      <feComposite in="SourceGraphic"/>
    </filter>
    <filter id="drop-shadow-9" x="442.3" y="237.72" width="461.76" height="461.76" filterUnits="userSpaceOnUse">
      <feOffset dx="3" dy="3"/>
      <feGaussianBlur result="blur-9" stdDeviation="3"/>
      <feFlood flood-color="#231f20" flood-opacity=".75"/>
      <feComposite in2="blur-9" operator="in"/>
      <feComposite in="SourceGraphic"/>
    </filter>
    <filter id="drop-shadow-10" x="530.14" y="325.56" width="286.08" height="286.08" filterUnits="userSpaceOnUse">
      <feOffset dx="3" dy="3"/>
      <feGaussianBlur result="blur-10" stdDeviation="3"/>
      <feFlood flood-color="#231f20" flood-opacity=".75"/>
      <feComposite in2="blur-10" operator="in"/>
      <feComposite in="SourceGraphic"/>
    </filter>
    <filter id="drop-shadow-11" x="441.34" y="423.24" width="111.84" height="90" filterUnits="userSpaceOnUse">
      <feOffset dx="3" dy="3"/>
      <feGaussianBlur result="blur-11" stdDeviation="3"/>
      <feFlood flood-color="#231f20" flood-opacity=".75"/>
      <feComposite in2="blur-11" operator="in"/>
      <feComposite in="SourceGraphic"/>
    </filter>
    <filter id="drop-shadow-12" x="792.94" y="423.24" width="112.08" height="90" filterUnits="userSpaceOnUse">
      <feOffset dx="3" dy="3"/>
      <feGaussianBlur result="blur-12" stdDeviation="3"/>
      <feFlood flood-color="#231f20" flood-opacity=".75"/>
      <feComposite in2="blur-12" operator="in"/>
      <feComposite in="SourceGraphic"/>
    </filter>
    <filter id="drop-shadow-13" x="524.86" y="552.12" width="122.4" height="132" filterUnits="userSpaceOnUse">
      <feOffset dx="3" dy="3"/>
      <feGaussianBlur result="blur-13" stdDeviation="3"/>
      <feFlood flood-color="#231f20" flood-opacity=".75"/>
      <feComposite in2="blur-13" operator="in"/>
      <feComposite in="SourceGraphic"/>
    </filter>
    <filter id="drop-shadow-14" x="698.38" y="250.44" width="123.84" height="129.84" filterUnits="userSpaceOnUse">
      <feOffset dx="3" dy="3"/>
      <feGaussianBlur result="blur-14" stdDeviation="3"/>
      <feFlood flood-color="#231f20" flood-opacity=".75"/>
      <feComposite in2="blur-14" operator="in"/>
      <feComposite in="SourceGraphic"/>
    </filter>
    <filter id="drop-shadow-15" x="522.46" y="250.92" width="127.2" height="133.68" filterUnits="userSpaceOnUse">
      <feOffset dx="3" dy="3"/>
      <feGaussianBlur result="blur-15" stdDeviation="3"/>
      <feFlood flood-color="#231f20" flood-opacity=".75"/>
      <feComposite in2="blur-15" operator="in"/>
      <feComposite in="SourceGraphic"/>
    </filter>
    <filter id="drop-shadow-16" x="696.7" y="552.6" width="127.2" height="133.68" filterUnits="userSpaceOnUse">
      <feOffset dx="3" dy="3"/>
      <feGaussianBlur result="blur-16" stdDeviation="3"/>
      <feFlood flood-color="#231f20" flood-opacity=".75"/>
      <feComposite in2="blur-16" operator="in"/>
      <feComposite in="SourceGraphic"/>
    </filter>
    <filter id="drop-shadow-17" x="514.78" y="309.96" width="316.8" height="316.8" filterUnits="userSpaceOnUse">
      <feOffset dx="3" dy="3"/>
      <feGaussianBlur result="blur-17" stdDeviation="3"/>
      <feFlood flood-color="#231f20" flood-opacity=".75"/>
      <feComposite in2="blur-17" operator="in"/>
      <feComposite in="SourceGraphic"/>
    </filter>
    <filter id="drop-shadow-18" x="543.58" y="339" width="259.2" height="259.2" filterUnits="userSpaceOnUse">
      <feOffset dx="3" dy="3"/>
      <feGaussianBlur result="blur-18" stdDeviation="3"/>
      <feFlood flood-color="#231f20" flood-opacity=".75"/>
      <feComposite in2="blur-18" operator="in"/>
      <feComposite in="SourceGraphic"/>
    </filter>
  </defs>
  <g id="Black_Chip_Face" data-name="Black Chip Face">
    <circle class="cls-19" cx="670.17" cy="465.6" r="153.36"/>
    <path class="cls-12" d="M875.91,440.25h-411.47c-1.48,6.6-2.6,14.25-2.79,22.76-.24,10.68,1.04,20.12,2.79,27.95h411.47c1.68-7.51,2.93-16.52,2.81-26.71-.11-9.05-1.27-17.13-2.81-24Z"/>
    <path class="cls-8" d="M875.91,440.25h-411.47c-1.48,6.6-2.6,14.25-2.79,22.76-.24,10.68,1.04,20.12,2.79,27.95h411.47c1.68-7.51,2.93-16.52,2.81-26.71-.11-9.05-1.27-17.13-2.81-24Z"/>
    <path class="cls-9" d="M644.82,259.87c0,137.16,0,274.31,0,411.47,6.6,1.48,14.25,2.6,22.76,2.79,10.68.24,20.12-1.04,27.95-2.79,0-137.16,0-274.31,0-411.47-7.51-1.68-16.52-2.93-26.71-2.81-9.05.11-17.13,1.27-24,2.81Z"/>
    <path class="cls-10" d="M835.67,340.78c-118.78,68.58-237.56,137.16-356.34,205.73,2.02,6.45,4.87,13.64,8.96,21.1,5.13,9.37,10.96,16.9,16.39,22.81,118.78-68.58,237.56-137.16,356.34-205.73-2.3-7.34-5.72-15.77-10.92-24.54-4.62-7.78-9.67-14.19-14.43-19.38Z"/>
    <path class="cls-13" d="M751.08,274.76c-68.58,118.78-137.16,237.56-205.73,356.34,4.98,4.58,11.04,9.37,18.31,13.8,9.13,5.55,17.94,9.16,25.6,11.56,68.58-118.78,137.16-237.56,205.73-356.34-5.66-5.21-12.84-10.8-21.73-15.79-7.89-4.43-15.47-7.46-22.19-9.56Z"/>
    <path class="cls-5" d="M545.35,300.11c68.58,118.78,137.16,237.56,205.73,356.34,6.45-2.02,13.64-4.87,21.1-8.96,9.37-5.13,16.9-10.96,22.81-16.39-68.58-118.78-137.16-237.56-205.73-356.34-7.34,2.3-15.77,5.72-24.54,10.92-7.78,4.62-14.19,9.67-19.38,14.43Z"/>
    <path class="cls-11" d="M479.33,384.69c118.78,68.58,237.56,137.16,356.34,205.73,4.58-4.98,9.37-11.04,13.8-18.31,5.55-9.13,9.16-17.94,11.56-25.6-118.78-68.58-237.56-137.16-356.34-205.73-5.21,5.66-10.8,12.84-15.79,21.73-4.43,7.89-7.46,15.47-9.56,22.19Z"/>
    <path class="cls-16" d="M888.92,429.43c-9.51-57.94-41.47-108.31-86.67-141.89,0,0-.02-.02-.03-.02-17.34-12.88-36.63-23.29-57.34-30.7-23.34-8.35-48.49-12.9-74.71-12.9s-53.42,4.93-77.55,13.94c-23.3,8.7-44.74,21.2-63.57,36.76-40.41,33.39-68.77,80.82-77.63,134.81-1.94,11.77-2.94,23.86-2.94,36.18s.97,23.98,2.84,35.55c8.57,53.21,36.09,100.09,75.42,133.5,16.27,13.81,34.55,25.32,54.36,34.01,27.26,11.97,57.39,18.63,89.07,18.63,27.28,0,53.42-4.93,77.55-13.94,23.3-8.7,44.74-21.2,63.57-36.76,40.55-33.52,68.98-81.18,77.73-135.44,1.86-11.58,2.84-23.45,2.84-35.55s-1-24.4-2.94-36.18ZM766.37,558.8c-17.09,17.63-38.99,30.59-63.58,36.73-10.44,2.62-21.37,4.01-32.62,4.01-13.94,0-27.38-2.12-40.02-6.08-22.6-7.07-42.62-19.96-58.32-36.92-14.36-15.51-25.08-34.41-30.83-55.39-3.12-11.32-4.78-23.24-4.78-35.55s1.73-24.67,4.94-36.18c6.08-21.75,17.52-41.26,32.79-57.03,17.1-17.63,39-30.58,63.59-36.73,10.44-2.62,21.37-4.01,32.62-4.01,10.18,0,20.09,1.13,29.61,3.28,23.24,5.24,44.18,16.52,61.1,32.1,18.03,16.6,31.5,38.1,38.29,62.38,3.22,11.5,4.94,23.63,4.94,36.18s-1.66,24.24-4.78,35.55c-6.03,22-17.54,41.72-32.97,57.64Z"/>
    <path class="cls-28" d="M804.12,465.6c0,12.31-1.66,24.24-4.78,35.55-6.03,22-17.54,41.72-32.97,57.64-17.09,17.63-38.99,30.59-63.58,36.73-10.44,2.62-21.37,4.01-32.62,4.01-13.94,0-27.38-2.12-40.02-6.08-22.6-7.07-42.62-19.96-58.32-36.92-14.36-15.51-25.08-34.41-30.83-55.39-3.12-11.32-4.78-23.24-4.78-35.55s1.73-24.67,4.94-36.18c6.08-21.75,17.52-41.26,32.79-57.03,17.1-17.63,39-30.58,63.59-36.73,10.44-2.62,21.37-4.01,32.62-4.01,10.18,0,20.09,1.13,29.61,3.28,23.24,5.24,44.18,16.52,61.1,32.1,18.03,16.6,31.5,38.1,38.29,62.38,3.22,11.5,4.94,23.63,4.94,36.18Z"/>
    <path class="cls-15" d="M536.23,465.6c0,12.31,1.66,24.24,4.78,35.55h-90.44c-1.87-11.08-3.24-24.43-2.98-39.53.2-12.04,1.4-22.86,2.98-32.2h90.61c-3.22,11.5-4.94,23.63-4.94,36.18Z"/>
    <path class="cls-3" d="M892.78,463.38c.13,14.41-1.21,27.16-3.01,37.78h-90.44c3.12-11.32,4.78-23.24,4.78-35.55s-1.73-24.67-4.94-36.18h90.61c1.64,9.72,2.88,21.15,3.01,33.95Z"/>
    <path class="cls-7" d="M635.14,595.1c-14.81,25.66-29.62,51.3-44.43,76.96-1.5-.55-3.05-1.13-4.63-1.75-9.05-3.55-19.18-8.29-29.78-14.66-9.92-5.97-18.33-12.21-25.31-18.06.25-.43.5-.86.74-1.29,15.04-26.04,30.07-52.07,45.1-78.11,15.69,16.96,35.72,29.85,58.32,36.92Z"/>
    <path class="cls-14" d="M810.06,291.15c-14.81,25.67-29.64,51.32-44.45,76.99-16.92-15.58-37.86-26.86-61.1-32.1,15.04-26.05,30.07-52.08,45.1-78.13.24-.42.48-.83.72-1.24,8.91,3.26,19.05,7.67,29.77,13.72,10.55,5.96,19.47,12.28,26.85,18.23,0,0,.02,0,.03.02,1.06.84,2.09,1.69,3.08,2.52Z"/>
    <path class="cls-6" d="M637.55,335.67c-24.59,6.15-46.49,19.1-63.59,36.73-14.97-25.93-29.94-51.86-44.91-77.79-.16-.28-.32-.56-.48-.83,7.8-6.4,17.31-13.33,28.6-19.98,12.72-7.49,24.68-12.86,35-16.73.15.26.31.53.45.79,14.98,25.93,29.95,51.87,44.93,77.81Z"/>
    <path class="cls-2" d="M811.78,637.43c-8.9,7.29-20.04,15.31-33.57,22.82-10.78,5.98-20.96,10.49-30.03,13.9-.15-.26-.31-.53-.45-.79-14.98-25.94-29.96-51.88-44.93-77.82,24.59-6.14,46.49-19.1,63.58-36.73,14.98,25.93,29.95,51.86,44.92,77.8.16.28.32.56.48.83Z"/>
    <path class="cls-18" d="M670.18,315.97c-82.47,0-149.33,66.86-149.33,149.33s66.86,149.33,149.33,149.33,149.33-66.86,149.33-149.33-66.86-149.33-149.33-149.33ZM670.18,596.39c-72.4,0-131.09-58.69-131.09-131.09s58.69-131.09,131.09-131.09,131.09,58.69,131.09,131.09-58.69,131.09-131.09,131.09Z"/>
    <circle class="cls-20" cx="670.17" cy="465.6" r="120.58"/>
  </g>
  <g id="Chip_Boy" data-name="Chip Boy">
    <circle id="Face" class="cls-30" cx="669.06" cy="467.36" r="99.51"/>
    <g id="Generative_Object" data-name="Generative Object">
      <path class="cls-25" d="M665.36,368.08c82.02-2.7,131.71,88.44,85.12,156.07-40.51,58.8-129.5,56.21-166.41-4.85-39.15-64.76,5.82-148.74,81.29-151.22Z"/>
      <g>
        <path class="cls-4" d="M708.87,540.87c-5.47-2.42-12-5.1-17.61-7.15-2.05-1.41-6.19-2.6-7.15-5.1-.31-.82-.56-2.63.13-3.32s13.46-6.05,15.82-7.4c4.11-2.35,9.59-5.78,11.87-10.08.58-1.09,1.38-4.64,1.53-4.85.48-.66,2.07-.26,2.94-.64,6.9-3.06,16.58-19.6,10.85-26.16-1.21-1.39-3.56-1.51-3.7-1.66-.68-.73,5.23-16.01,5.74-19.01,6.25-36.41-26.92-67.89-62.4-65.21-5.45.41-16.52,3.6-20.67,7.15-1.02.87-3.54,4.75-3.83,4.85-.66.23-2.47-.17-3.32,0-10.89,2.19-18.82,10.28-24.37,19.52-2.4,4-5.45,9.57-4.98,14.17.35-.02,2.48-5.67,3.96-5.49-5.98,13.1-3.45,31.22,2.81,43.9-.25.71-4.68-.48-6.13,3.57-2.52,7.06,4.52,20.44,10.85,23.86.96.52,3.42.78,3.7,1.15.16.21,1.19,4.02,1.79,5.1,2.51,4.55,8.21,7.87,12.63,10.34,2.02,1.13,14.89,6.49,15.19,7.27.49,1.28-.84,4.08-1.79,4.98-2.09,1.99-10.25,4.8-13.27,6.13l-19.01,8.17c-47.87-30.87-57.56-97.26-18.5-139.74,32.94-35.82,88.4-39.54,125.7-8.04,47.58,40.18,41.95,114.21-9.7,147.78l-9.06-4.08Z"/>
        <g>
          <g>
            <path class="cls-17" d="M653.49,531.17c-.42,1.37.26,13.19.77,14.55.25.67.4.46.51.77-.35,2.74.59,5.9,1.02,8.68.14.88.14,1.91.26,2.81-12.42-1.64-24.48-5.74-34.97-12.63-.17-1.05,16.51-7.73,18.38-8.55,3.02-1.33,11.18-4.14,13.27-6.13l.77.51Z"/>
            <path class="cls-17" d="M691.26,533.72c-.93-.34-2.16-.93-3.06-1.15-.93-.23.79,1.12-1.28-.38-.55-.4-1.05-1.32-1.79-.77-.07-.32-1.03-1.31-1.15-1.79l-11.87,12.38c2.09-.36,7.94-4.22,9.83-3.7,2.1.58.19,6.75,1.91,7.66-.08.19-.19.31-.26.51-.02.06-.65-.27-1.02.64-.3.74-.44,5.25-1.4,5.49-1.02-.31-7.67-4.07-8.04-3.45-.03,1.06.04,2.13,0,3.19-.08,2.03.06,4.09,0,6.13-.03,0,.11.86-.51.38v-9.19l-6.51-.64-.38,9.57c-.41.65-.55.08-.77.13l-.26-9.7-7.78,3.57c-1.03-.39-.99-5.28-1.4-6-.15-.25-.75-.08-.77-.13-.11-.31-.26-.1-.51-.77,2.21.14-.03-6.78,2.17-7.4,1.59-.45,7.89,3.41,9.83,3.7l-11.49-11.87c.37.04.18-.46.38-.51.03,0,.26.4.64.26.14.75.49.72.51.77.42.89,10.1,11.01,10.85,11.23.23.07,3.85.07,4.08,0,.74-.21,10.47-10.18,10.85-10.85.44-.77.38-.82.51-1.66.74.36,1.14-.07,1.53-.77.96,2.51,5.1,3.69,7.15,5.1Z"/>
            <path class="cls-4" d="M664.97,558.73c-2.35.55-6.48-.44-8.93-.77-.12-.9-.12-1.93-.26-2.81.34-.14,1.08.51,1.15.51.42-.02,7.14-3.51,7.4-3.83.62-.76.32-1.93.38-2.81l.26,9.7Z"/>
            <polygon class="cls-4" points="666.12 551.33 672.12 551.46 671.99 558.73 666 558.6 666.12 551.33"/>
            <path class="cls-4" d="M673.14,558.48c.06-2.03-.08-4.09,0-6.13.55-.8.68-.49,1.4-.26,2.38.78,4.84,3.05,7.4,3.57.35.35-.05,2.18-.26,2.3-.57.31-7.39.5-8.55.51Z"/>
            <path class="cls-4" d="M654.77,530.15l11.49,11.87c-1.93-.29-8.24-4.15-9.83-3.7-2.2.62.05,7.55-2.17,7.4-.5-1.36-1.18-13.17-.77-14.55.08-.26.69-1.49.89-1.53l.38.51Z"/>
            <path class="cls-25" d="M664.72,549.03c-.07.88.24,2.05-.38,2.81-.26.32-6.99,3.81-7.4,3.83-.07,0-.81-.65-1.15-.51-.43-2.78-1.37-5.94-1.02-8.68.02.05.62-.13.77.13.41.72.38,5.61,1.4,6l7.78-3.57Z"/>
            <path class="cls-4" d="M685.14,531.42c.37,1.63-.6,12.96-1.28,14.55-1.72-.91.19-7.08-1.91-7.66-1.89-.52-7.74,3.34-9.83,3.7l11.87-12.38c.12.48,1.08,1.47,1.15,1.79Z"/>
            <g>
              <path class="cls-17" d="M686.92,532.19c-.53-.04-.23,1.23.26.64l-.26-.64c2.06,1.5.35.15,1.28.38.9.22,2.13.81,3.06,1.15,5.61,2.05,12.14,4.73,17.61,7.15,2.71,1.2,5.35,2.58,8.04,3.83.58.55.48.49,0,1.02-.97,1.08-10.85,5.85-12.76,6.64-6.75,2.77-14.54,4.91-21.82,5.49l1.28-11.36c.06-.2.17-.32.26-.51.67-1.58,1.65-12.92,1.28-14.55.74-.55,1.24.37,1.79.77Z"/>
              <path class="cls-1" d="M686.92,532.19l.26.64c-.49.59-.79-.68-.26-.64Z"/>
            </g>
          </g>
          <path class="cls-24" d="M682.59,529.13c0,.08.01.17,0,.26-.13.84-.07.89-.51,1.66-.78,1.38-6.32,5.94-9.05,9.3-.38.46-.88,1.12-1.8,1.55-1.61.74-3.3.23-4.08,0-.75-.22-10.43-10.34-10.85-11.23,2.78.48,5.31,2.9,8.29,3.57,7.16,1.62,11.86-2.38,17.99-5.1Z"/>
          <path class="cls-23" d="M682.59,529.13c-6.13,2.72-10.84,6.72-17.99,5.1-2.99-.67-5.51-3.09-8.29-3.57-.02-.04-.37-.01-.51-.77-.1-.53-.15-3.65.38-3.83,5.24,2.18,10.25,4.84,16.08,3.83,1.38-.24,10.01-3.93,10.34-3.45-.04.89.05,1.8,0,2.68Z"/>
          <g>
            <path class="cls-22" d="M684.12,528.62c-.39.69-.79,1.13-1.53.77.01-.08,0-.17,0-.26.05-.88-.04-1.79,0-2.68-.33-.49-8.96,3.21-10.34,3.45-5.83,1.01-10.84-1.65-16.08-3.83-.54.17-.48,3.3-.38,3.83-.37.14-.6-.26-.64-.26-.21.05-.01.55-.38.51l-.38-.51c-.2.04-.81,1.27-.89,1.53l-.77-.51c.94-.9,2.28-3.7,1.79-4.98-.3-.79-13.16-6.14-15.19-7.27-4.42-2.47-10.12-5.78-12.63-10.34-.6-1.08-1.62-4.89-1.79-5.1-.28-.37-2.74-.63-3.7-1.15-6.33-3.43-13.36-16.81-10.85-23.86,1.45-4.06,5.87-2.86,6.13-3.57-6.25-12.68-8.79-30.8-2.81-43.9-1.47-.19-3.61,5.47-3.96,5.49-.47-4.6,2.57-10.16,4.98-14.17,5.56-9.25,13.48-17.33,24.37-19.52.85-.17,2.66.23,3.32,0,.29-.1,2.81-3.98,3.83-4.85,4.15-3.54,15.22-6.73,20.67-7.15,35.48-2.68,68.66,28.8,62.4,65.21-.52,3.01-6.42,18.29-5.74,19.01.14.15,2.49.27,3.7,1.66,5.73,6.56-3.95,23.1-10.85,26.16-.86.38-2.46-.02-2.94.64-.15.21-.95,3.76-1.53,4.85-2.28,4.3-7.75,7.73-11.87,10.08-2.37,1.35-15.12,6.7-15.82,7.4s-.44,2.5-.13,3.32Z"/>
            <g>
              <g>
                <path class="cls-17" d="M706.58,455.37c-.28-.42.04-1.34,0-1.4-.92-1.54-9.15-8.45-11.23-10.72-2.56-2.79-4.71-5.93-7.15-8.81,2.06-.07,17.34-4.28,17.36-5.23l-4.85-6.25s-.18-.29.26-.51l6.51,6.38c4.53-1.94,8.99-3.73,13.14-6.38.07-.04.22-.07.51-.26.21-.14.94-.14,1.02-.77,7.57,13.42,8.23,25.93,4.08,40.71-.34,1.21-8.07,23.78-8.68,22.72l.26-23.48-1.15-1.66-.38,4.21c-4.07-1-7.43-5.18-9.7-8.55Z"/>
                <path class="cls-17" d="M659.87,431.37c1.1,1.61,1.15,3.82,2.42,5.36,7.99-.03,16.08-.2,23.86-2.04,4.52,6.05,8.85,12.46,14.42,17.61.76.71,4.62,3.05,4.72,3.32.12.33.12,2.28.26,2.94.14.69,1.43,2.87.64,3.19-14.98,1.98-28.8-4.21-38.67-15.19-.56-.63-3.69-5.38-4.21-4.98l3.06,15.31c-7.75-5.42-12.42-12.88-16.97-20.93l11.1.77-1.4-6.13c.38.18.55.45.77.77Z"/>
                <path class="cls-17" d="M630.52,423.46c-.58.91-4.5,5.45-4.34,6.25l11.23,4.21c-3.88,7.22-7.56,15.21-12,22.08-1.06,1.64-1.74,3.1-3.57,3.83l-1.66,23.86c-.12-6.7-4.51-12.57-6.25-18.76-2.46-8.7-3.23-22.51-.51-31.14.33-1.06,2.91-5.56,2.81-5.87-.14-.44-1.03-.45-1.4-.38-.9.17-1.69,2.14-2.68,1.91.89-1.91,2.03-3.67,3.06-5.49.59.72,1.52,1.07,2.3,1.53.45.27.12.47.38.77.26-.23.4-.51.64-.77l6,3.57c1.23-1.99,3.02-5.12,5.23-6.13.31-.14.65-.27.89-.51l.38.38c-.24.17-.36.4-.51.64Z"/>
                <path class="cls-17" d="M640.73,427.55c-1.14,2.07-2.19,4.28-3.32,6.38l-11.23-4.21c-.16-.81,3.76-5.34,4.34-6.25l10.21,4.08Z"/>
                <path class="cls-17" d="M659.1,430.61l1.4,6.13-11.1-.77c-1.32-2.34-2.32-4.8-3.57-7.15l12.63,1.28c.19.22.36.38.64.51Z"/>
                <path class="cls-17" d="M683.35,428.82c1.65,1.74,3.29,3.77,4.85,5.61,2.43,2.87,4.59,6.02,7.15,8.81,2.08,2.27,10.31,9.18,11.23,10.72.04.06-.28.99,0,1.4l-1.28.26c-.1-.27-3.96-2.61-4.72-3.32-5.57-5.15-9.9-11.56-14.42-17.61-1.3-1.74-2.58-3.55-3.57-5.49-.52-.81-.97-.13-1.28-.13.42-.89.76-.6.64-1.79.32.69.93,1.03,1.4,1.53Z"/>
                <path class="cls-17" d="M624.14,416.83c-2.68,1.72-5.43,5.74-6.64,8.68-.78-.46-1.7-.81-2.3-1.53,2.49-4.39,4.2-6.77,7.66-10.46l1.28,3.32Z"/>
                <path class="cls-17" d="M715,411.47c3.02,3.3,4.96,6.07,7.15,9.95-.08.62-.81.63-1.02.77-1.71-3.3-4.49-7.61-7.4-9.95l1.28-.77Z"/>
                <path class="cls-29" d="M707.21,458.68l2.81,3.32c-1.79-.05-2.76-1.72-2.81-3.32Z"/>
                <path class="cls-17" d="M686.16,434.69c-7.78,1.84-15.88,2.01-23.86,2.04-1.28-1.54-1.32-3.75-2.42-5.36-.01-.98-.24-.81.64-1.02,1.85-.44,17.88-1.24,20.8-1.28.31,0,.75-.68,1.28.13,1,1.94,2.28,3.75,3.57,5.49Z"/>
                <path class="cls-17" d="M720.61,422.44c-4.15,2.65-8.62,4.44-13.14,6.38l-6.51-6.38c4.45-2.23,8.96-4.59,12.25-8.42,2.66,2.69,5.22,5.31,7.4,8.42Z"/>
                <path class="cls-17" d="M700.71,422.95l4.85,6.25c-.02.95-15.3,5.16-17.36,5.23-1.56-1.84-3.2-3.87-4.85-5.61,3.62-1.32,7.48-1.99,11.1-3.32,1.94-.71,4.42-1.66,6.25-2.55Z"/>
                <path class="cls-17" d="M629.75,422.95c-2.22,1-4,4.14-5.23,6.13l-6-3.57c1.84-1.97,4.21-5.36,6.13-7.66l5.1,5.1Z"/>
                <g>
                  <path class="cls-17" d="M715,411.47l-1.28.77c-.41-.33-5.43-3.51-5.61-2.94,1.9,1.4,3.46,3.06,5.1,4.72-3.29,3.83-7.8,6.2-12.25,8.42-.43.22-.21.49-.26.51-1.83.89-4.31,1.84-6.25,2.55-3.62,1.32-7.48,2-11.1,3.32-.47-.5-1.08-.85-1.4-1.53.12,1.19-.22.9-.64,1.79-2.92.04-18.95.84-20.8,1.28-.88.21-.65.04-.64,1.02-.22-.32-.38-.59-.77-.77-.28-.13-.44-.29-.64-.51l-12.63-1.28c-2.38-4.46-2.11-6.7-5.1-1.28l-10.21-4.08c.15-.24.27-.47.51-.64l-.38-.38c-.24.24-.59.37-.89.51l-5.1-5.1c.48-.57.93-1.33,1.53-1.91-.06-.13-1.86.78-2.04.89l-1.28-3.32c4.73-5.05,9.15-8.69,16.21-9.95,1.03-.18,3.32.27,4.08,0,.39-.14,1.51-2.49,1.91-2.94,4.91-5.35,14.68-8.51,21.82-9.06,17.95-1.38,36.17,6.83,48.11,19.91Z"/>
                  <path class="cls-17" d="M649.53,404.58c1.46-.18,3.04.06,4.47.38-7.65.77-8.86,4.51-8.17,11.49.3,3.05,2.3,7.42,2.42,9.83.02.32-.13.73-.26,1.02-.93.19-3.61-11.53-3.7-12.63-.35-4.52-.39-9.4,5.23-10.08Z"/>
                  <path class="cls-17" d="M637.54,407.13c6.75-.58,5.42,6.44,2.04,9.7,1.46-7.92,1.59-8.98-7.02-7.27-.42-.77,4.47-2.38,4.98-2.42Z"/>
                </g>
                <path class="cls-17" d="M713.72,412.23c2.91,2.34,5.69,6.65,7.4,9.95-.29.19-.44.21-.51.26-2.18-3.11-4.74-5.74-7.4-8.42-1.65-1.66-3.21-3.32-5.1-4.72.18-.57,5.2,2.6,5.61,2.94Z"/>
                <path class="cls-17" d="M624.65,417.85c-1.92,2.29-4.29,5.68-6.13,7.66-.24.26-.38.53-.64.77-.26-.29.06-.5-.38-.77,1.21-2.94,3.95-6.96,6.64-8.68.18-.12,1.98-1.02,2.04-.89-.6.58-1.05,1.34-1.53,1.91Z"/>
              </g>
              <g>
                <path class="cls-23" d="M684.37,465.06c-5.34-2.54-10.69-5.14-14.68-9.7-.01,2.61,4.12,5.82,4.72,7.53.14.39.35.59-.13.89-10.77-.16-18.12-7.83-23.61-16.21-1.74-2.65-5.17-10.55-6.89-12.25-.3-.29-.4-.48-.89-.38-.25.05-2.59,3.67-2.94,4.21-2.52,3.92-14.04,23.07-15.06,26.29-1.22,3.86-.91,10.87-1.79,15.06l-.51.26-.51-2.68c.05-5.2.38-10.53,1.02-15.7l19.78-35.35c7.22,12.99,13.91,27.52,28.2,34.07-2.56-3.32-4.56-8.12-5.36-12.25-.13-.67-.53-2.12-.13-2.68,6.32,8.09,15.82,14.14,25.91,16.21-2.18.83-5.21,1.32-7.15,2.68Z"/>
                <g>
                  <path class="cls-24" d="M716.02,495.18c3.38-.06,7.18-3.47,8.42-6.51,1.59-3.89,1.27-8.26-4.08-6.25,1.05-2.54,1.2-7.73,4.98-6.13,5.76,2.45-.33,15.52-2.94,19.01-1.62,2.18-5.77,7.05-8.68,5.61.8-1.84,1.73-3.82,2.3-5.74Z"/>
                  <path class="cls-23" d="M716.02,495.18c1.42-4.82,2.4-8.07,4.34-12.76,5.35-2,5.68,2.36,4.08,6.25-1.24,3.03-5.04,6.45-8.42,6.51Z"/>
                </g>
                <g>
                  <path class="cls-24" d="M618.78,482.16c-.73,1.04-2.18-.6-3.19-.51-1.33.12-1.35,1.15-1.66,1.79-1.92,3.96,3.74,11.99,8.68,11.74,1.01,3.58,4.11,9.27-2.42,4.34-4.78-3.6-11.61-16.1-8.29-21.82.94-1.63,4.23-2.48,5.36-1.02.23.29,1.26,4.6,1.53,5.49Z"/>
                  <path class="cls-23" d="M619.29,484.21c1.15,3.65,2.27,7.29,3.32,10.97-4.93.25-10.6-7.78-8.68-11.74,1.77-2.51,3.47.43,5.36.77Z"/>
                  <path class="cls-27" d="M618.78,482.16c.2.63.31,1.39.51,2.04-1.89-.34-3.59-3.28-5.36-.77.31-.64.33-1.67,1.66-1.79,1.01-.09,2.47,1.55,3.19.51Z"/>
                </g>
                <g>
                  <path class="cls-24" d="M684.37,465.06c-.12.08-1.47,1.21-1.15,1.53,7.88-2.07,16.32-3.08,24.25-.77l-5.1-2.81c2.78.64,6.2-.91,8.93-.26.67.16,4.17,3.03,5.23,3.45-.66,5.62,0,11.34-.26,16.97l-1.28-.13.26,9.83c-.84,3.88-3.83,13.88-6.13,16.72-4.92,6.08-34.29,20.16-41.73,19.27-5.95-.71-29.81-12.08-34.71-16.08-8.55-6.98-10.69-24.22-10.59-34.71l.51,2.68.51-.26c.88-4.19.56-11.2,1.79-15.06,1.02-3.22,12.54-22.37,15.06-26.29.35-.54,2.68-4.16,2.94-4.21.49-.1.6.09.89.38,1.72,1.7,5.15,9.6,6.89,12.25,5.49,8.37,12.83,16.05,23.61,16.21.48-.3.26-.5.13-.89-.6-1.71-4.74-4.92-4.72-7.53,3.98,4.56,9.33,7.16,14.68,9.7Z"/>
                  <g>
                    <path class="cls-23" d="M716.28,483.19c-.15,3.2-.35,6.57-1.02,9.7l-.26-9.83,1.28.13Z"/>
                    <path class="cls-22" d="M639.58,462.26c5.5-.53,11.3.47,15.7,3.96-8.53-1.27-16.92-3.36-25.39-.38,2.36-1.91,6.71-3.29,9.7-3.57Z"/>
                    <path class="cls-22" d="M658.98,506.41c4.67,1.76,9.57,2.52,14.55,1.79,1.18-.17,5.08-1.78,5.36-1.79,2.7-.08-1.9,1.92-2.3,2.04-2.65.82-8.21,1.06-10.97.77-.48-.05-8.26-1.77-6.64-2.81Z"/>
                    <path class="cls-27" d="M669.44,491.1c.49,1.95.79,4.63-.26,6.38l.26-6.38Z"/>
                    <g>
                      <path class="cls-26" d="M654.26,478.08c-.39-2.68-1.82-4-4.08-5.1-4.81-2.35-8.73-1.83-13.78-.26-4.67,1.46-6.56,3.28-4.59,8.42-7.75-9.42,11.46-15.8,17.99-12.25.32.68.05.44-.38.38-.33-.04-3.97-1.51-4.08-.77,4.93.6,9.31,4.26,8.93,9.57Z"/>
                      <path class="cls-4" d="M636.39,472.72c-1.42,6.06.27,14.86,7.66,15.31.26.35.98.52-.13.51-4.58-.03-10.42-2.94-12.12-7.4-1.97-5.14-.08-6.96,4.59-8.42Z"/>
                      <path class="cls-4" d="M654.26,478.08c.67,4.6-4.77,9.71-9.19,9.95,5.97-2.09,6.75-9.8,5.1-15.06,2.27,1.11,3.7,2.43,4.08,5.1Z"/>
                      <g>
                        <path class="cls-21" d="M650.17,472.98c1.65,5.26.87,12.97-5.1,15.06-.33.02-.69.02-1.02,0-7.39-.45-9.08-9.26-7.66-15.31,5.05-1.58,8.98-2.09,13.78.26Z"/>
                        <path class="cls-31" d="M640.09,481.14c1.03-.22,1.44,1.01,1.53,1.02.72.11,3.12.11,3.83,0,.32-.05.69-1.28,1.79-1.02,1.95.46-.1,4.85-1.53,5.61-5.05,2.7-8.1-5.08-5.61-5.61Z"/>
                        <path class="cls-4" d="M645.71,472.98c3.45-1.07,3.67,4.83.77,4.85-2.18.01-2.57-4.29-.77-4.85Z"/>
                      </g>
                    </g>
                    <g>
                      <path class="cls-26" d="M706.32,481.4c2.15-4.89.64-7.33-4.34-8.93-2.8-.9-11.68-1.96-13.53.51-2.11-.17-4.05,3.3-4.34,5.1-.27-6.02,4.86-9.62,10.46-9.57-1.54-.98-4.13.5-5.61.77-.85.15-.44-.18-.13-.38,5.97-3.96,26.15,3.41,17.48,12.51Z"/>
                      <path class="cls-4" d="M706.32,481.4c-1.89,4.28-6.4,6.46-10.85,7.15-.18.03-1.77.26-1.15-.51,7.43-.32,9.18-9.63,7.66-15.57,4.98,1.6,6.49,4.05,4.34,8.93Z"/>
                      <path class="cls-4" d="M688.46,472.98c-2.43,3.25-.62,13.42,4.08,14.8-4.11-.59-9.14-5.17-8.42-9.7.29-1.81,2.23-5.28,4.34-5.1Z"/>
                      <g>
                        <path class="cls-21" d="M701.98,472.47c1.52,5.94-.22,15.25-7.66,15.57-.63.03-1.18-.17-1.79-.26-4.71-1.39-6.51-11.56-4.08-14.8,1.85-2.47,10.73-1.41,13.53-.51Z"/>
                        <path class="cls-31" d="M690.88,481.14c1-.32,1.48.97,1.79,1.02.7.11,3.13.11,3.83,0,.31-.05.78-1.34,1.79-1.02,1.93.62-.28,7.73-5.36,5.87-1.8-.66-3.91-5.27-2.04-5.87Z"/>
                        <path class="cls-4" d="M697.26,472.98c2.97-.8,3.66,4.4,1.02,4.85-2.83.49-3.09-4.29-1.02-4.85Z"/>
                      </g>
                    </g>
                  </g>
                </g>
              </g>
            </g>
          </g>
        </g>
      </g>
    </g>
  </g>
</svg>