<?xml version="1.0" encoding="UTF-8"?>
<svg xmlns="http://www.w3.org/2000/svg" xmlns:xlink="http://www.w3.org/1999/xlink" viewBox="0 0 1468.51 704.94">
  <defs>
    <style>
      .cls-1 {
        filter: url(#drop-shadow-16);
      }

      .cls-1, .cls-2, .cls-3, .cls-4, .cls-5, .cls-6, .cls-7, .cls-8, .cls-9, .cls-10, .cls-11, .cls-12, .cls-13, .cls-14 {
        fill: #fff;
      }

      .cls-15 {
        filter: url(#drop-shadow-9);
      }

      .cls-15, .cls-16, .cls-17, .cls-18, .cls-19 {
        fill: #231f20;
      }

      .cls-20 {
        fill: #c3aead;
      }

      .cls-2 {
        filter: url(#drop-shadow-12);
      }

      .cls-21 {
        fill: #6d4f4e;
      }

      .cls-22 {
        fill: #ab8784;
      }

      .cls-4 {
        filter: url(#drop-shadow-7);
      }

      .cls-5 {
        filter: url(#drop-shadow-15);
      }

      .cls-23 {
        fill: #4d2523;
      }

      .cls-24 {
        fill: #ec9391;
      }

      .cls-6 {
        filter: url(#drop-shadow-13);
      }

      .cls-7 {
        filter: url(#drop-shadow-3);
      }

      .cls-8 {
        filter: url(#drop-shadow-4);
      }

      .cls-25 {
        fill: #432829;
      }

      .cls-26 {
        fill: #f9c4b2;
      }

      .cls-17 {
        filter: url(#drop-shadow-17);
      }

      .cls-9 {
        filter: url(#drop-shadow-5);
      }

      .cls-27 {
        fill: #f5e0cd;
      }

      .cls-28 {
        fill: #d07d7c;
      }

      .cls-18 {
        filter: url(#drop-shadow-1);
      }

      .cls-29 {
        fill: none;
        filter: url(#drop-shadow-10);
      }

      .cls-10 {
        filter: url(#drop-shadow-8);
      }

      .cls-11 {
        filter: url(#drop-shadow-2);
      }

      .cls-12 {
        filter: url(#drop-shadow-6);
      }

      .cls-30 {
        fill: #2c1f21;
      }

      .cls-13 {
        filter: url(#drop-shadow-14);
      }

      .cls-14 {
        filter: url(#drop-shadow-11);
      }

      .cls-31 {
        fill: #fcdecc;
      }

      .cls-19 {
        filter: url(#drop-shadow-18);
      }
    </style>
    <filter id="drop-shadow-1" x="510.7" y="306.12" width="324.96" height="324.96" filterUnits="userSpaceOnUse">
      <feOffset dx="3" dy="3"/>
      <feGaussianBlur result="blur" stdDeviation="3"/>
      <feFlood flood-color="#231f20" flood-opacity=".75"/>
      <feComposite in2="blur" operator="in"/>
      <feComposite in="SourceGraphic"/>
    </filter>
    <filter id="drop-shadow-2" x="455.5" y="434.04" width="435.36" height="69.12" filterUnits="userSpaceOnUse">
      <feOffset dx="3" dy="3"/>
      <feGaussianBlur result="blur-2" stdDeviation="3"/>
      <feFlood flood-color="#231f20" flood-opacity=".75"/>
      <feComposite in2="blur-2" operator="in"/>
      <feComposite in="SourceGraphic"/>
    </filter>
    <filter id="drop-shadow-3" x="455.5" y="434.04" width="435.36" height="69.12" filterUnits="userSpaceOnUse">
      <feOffset dx="3" dy="3"/>
      <feGaussianBlur result="blur-3" stdDeviation="3"/>
      <feFlood flood-color="#231f20" flood-opacity=".75"/>
      <feComposite in2="blur-3" operator="in"/>
      <feComposite in="SourceGraphic"/>
    </filter>
    <filter id="drop-shadow-4" x="638.62" y="250.92" width="69.12" height="435.36" filterUnits="userSpaceOnUse">
      <feOffset dx="3" dy="3"/>
      <feGaussianBlur result="blur-4" stdDeviation="3"/>
      <feFlood flood-color="#231f20" flood-opacity=".75"/>
      <feComposite in2="blur-4" operator="in"/>
      <feComposite in="SourceGraphic"/>
    </filter>
    <filter id="drop-shadow-5" x="473.26" y="334.68" width="399.84" height="267.84" filterUnits="userSpaceOnUse">
      <feOffset dx="3" dy="3"/>
      <feGaussianBlur result="blur-5" stdDeviation="3"/>
      <feFlood flood-color="#231f20" flood-opacity=".75"/>
      <feComposite in2="blur-5" operator="in"/>
      <feComposite in="SourceGraphic"/>
    </filter>
    <filter id="drop-shadow-6" x="539.26" y="268.68" width="267.84" height="399.84" filterUnits="userSpaceOnUse">
      <feOffset dx="3" dy="3"/>
      <feGaussianBlur result="blur-6" stdDeviation="3"/>
      <feFlood flood-color="#231f20" flood-opacity=".75"/>
      <feComposite in2="blur-6" operator="in"/>
      <feComposite in="SourceGraphic"/>
    </filter>
    <filter id="drop-shadow-7" x="539.26" y="268.68" width="267.84" height="399.84" filterUnits="userSpaceOnUse">
      <feOffset dx="3" dy="3"/>
      <feGaussianBlur result="blur-7" stdDeviation="3"/>
      <feFlood flood-color="#231f20" flood-opacity=".75"/>
      <feComposite in2="blur-7" operator="in"/>
      <feComposite in="SourceGraphic"/>
    </filter>
    <filter id="drop-shadow-8" x="473.26" y="334.68" width="399.84" height="267.84" filterUnits="userSpaceOnUse">
      <feOffset dx="3" dy="3"/>
      <feGaussianBlur result="blur-8" stdDeviation="3"/>
      <feFlood flood-color="#231f20" flood-opacity=".75"/>
      <feComposite in2="blur-8" operator="in"/>
      <feComposite in="SourceGraphic"/>
    </filter>
    <filter id="drop-shadow-9" x="442.3" y="237.72" width="461.76" height="461.76" filterUnits="userSpaceOnUse">
      <feOffset dx="3" dy="3"/>
      <feGaussianBlur result="blur-9" stdDeviation="3"/>
      <feFlood flood-color="#231f20" flood-opacity=".75"/>
      <feComposite in2="blur-9" operator="in"/>
      <feComposite in="SourceGraphic"/>
    </filter>
    <filter id="drop-shadow-10" x="530.14" y="325.56" width="286.08" height="286.08" filterUnits="userSpaceOnUse">
      <feOffset dx="3" dy="3"/>
      <feGaussianBlur result="blur-10" stdDeviation="3"/>
      <feFlood flood-color="#231f20" flood-opacity=".75"/>
      <feComposite in2="blur-10" operator="in"/>
      <feComposite in="SourceGraphic"/>
    </filter>
    <filter id="drop-shadow-11" x="441.34" y="423.24" width="111.84" height="90" filterUnits="userSpaceOnUse">
      <feOffset dx="3" dy="3"/>
      <feGaussianBlur result="blur-11" stdDeviation="3"/>
      <feFlood flood-color="#231f20" flood-opacity=".75"/>
      <feComposite in2="blur-11" operator="in"/>
      <feComposite in="SourceGraphic"/>
    </filter>
    <filter id="drop-shadow-12" x="792.94" y="423.24" width="112.08" height="90" filterUnits="userSpaceOnUse">
      <feOffset dx="3" dy="3"/>
      <feGaussianBlur result="blur-12" stdDeviation="3"/>
      <feFlood flood-color="#231f20" flood-opacity=".75"/>
      <feComposite in2="blur-12" operator="in"/>
      <feComposite in="SourceGraphic"/>
    </filter>
    <filter id="drop-shadow-13" x="524.86" y="552.12" width="122.4" height="132" filterUnits="userSpaceOnUse">
      <feOffset dx="3" dy="3"/>
      <feGaussianBlur result="blur-13" stdDeviation="3"/>
      <feFlood flood-color="#231f20" flood-opacity=".75"/>
      <feComposite in2="blur-13" operator="in"/>
      <feComposite in="SourceGraphic"/>
    </filter>
    <filter id="drop-shadow-14" x="698.38" y="250.44" width="123.84" height="129.84" filterUnits="userSpaceOnUse">
      <feOffset dx="3" dy="3"/>
      <feGaussianBlur result="blur-14" stdDeviation="3"/>
      <feFlood flood-color="#231f20" flood-opacity=".75"/>
      <feComposite in2="blur-14" operator="in"/>
      <feComposite in="SourceGraphic"/>
    </filter>
    <filter id="drop-shadow-15" x="522.46" y="250.92" width="127.2" height="133.68" filterUnits="userSpaceOnUse">
      <feOffset dx="3" dy="3"/>
      <feGaussianBlur result="blur-15" stdDeviation="3"/>
      <feFlood flood-color="#231f20" flood-opacity=".75"/>
      <feComposite in2="blur-15" operator="in"/>
      <feComposite in="SourceGraphic"/>
    </filter>
    <filter id="drop-shadow-16" x="696.7" y="552.6" width="127.2" height="133.68" filterUnits="userSpaceOnUse">
      <feOffset dx="3" dy="3"/>
      <feGaussianBlur result="blur-16" stdDeviation="3"/>
      <feFlood flood-color="#231f20" flood-opacity=".75"/>
      <feComposite in2="blur-16" operator="in"/>
      <feComposite in="SourceGraphic"/>
    </filter>
    <filter id="drop-shadow-17" x="514.78" y="309.96" width="316.8" height="316.8" filterUnits="userSpaceOnUse">
      <feOffset dx="3" dy="3"/>
      <feGaussianBlur result="blur-17" stdDeviation="3"/>
      <feFlood flood-color="#231f20" flood-opacity=".75"/>
      <feComposite in2="blur-17" operator="in"/>
      <feComposite in="SourceGraphic"/>
    </filter>
    <filter id="drop-shadow-18" x="543.58" y="339" width="259.2" height="259.2" filterUnits="userSpaceOnUse">
      <feOffset dx="3" dy="3"/>
      <feGaussianBlur result="blur-18" stdDeviation="3"/>
      <feFlood flood-color="#231f20" flood-opacity=".75"/>
      <feComposite in2="blur-18" operator="in"/>
      <feComposite in="SourceGraphic"/>
    </filter>
  </defs>
  <g id="Black_Chip_Face" data-name="Black Chip Face">
    <circle class="cls-18" cx="670.17" cy="465.6" r="153.36"/>
    <path class="cls-11" d="M875.91,440.25h-411.47c-1.48,6.6-2.6,14.25-2.79,22.76-.24,10.68,1.04,20.12,2.79,27.95h411.47c1.68-7.51,2.93-16.52,2.81-26.71-.11-9.05-1.27-17.13-2.81-24Z"/>
    <path class="cls-7" d="M875.91,440.25h-411.47c-1.48,6.6-2.6,14.25-2.79,22.76-.24,10.68,1.04,20.12,2.79,27.95h411.47c1.68-7.51,2.93-16.52,2.81-26.71-.11-9.05-1.27-17.13-2.81-24Z"/>
    <path class="cls-8" d="M644.82,259.87c0,137.16,0,274.31,0,411.47,6.6,1.48,14.25,2.6,22.76,2.79,10.68.24,20.12-1.04,27.95-2.79,0-137.16,0-274.31,0-411.47-7.51-1.68-16.52-2.93-26.71-2.81-9.05.11-17.13,1.27-24,2.81Z"/>
    <path class="cls-9" d="M835.67,340.78c-118.78,68.58-237.56,137.16-356.34,205.73,2.02,6.45,4.87,13.64,8.96,21.1,5.13,9.37,10.96,16.9,16.39,22.81,118.78-68.58,237.56-137.16,356.34-205.73-2.3-7.34-5.72-15.77-10.92-24.54-4.62-7.78-9.67-14.19-14.43-19.38Z"/>
    <path class="cls-12" d="M751.08,274.76c-68.58,118.78-137.16,237.56-205.73,356.34,4.98,4.58,11.04,9.37,18.31,13.8,9.13,5.55,17.94,9.16,25.6,11.56,68.58-118.78,137.16-237.56,205.73-356.34-5.66-5.21-12.84-10.8-21.73-15.79-7.89-4.43-15.47-7.46-22.19-9.56Z"/>
    <path class="cls-4" d="M545.35,300.11c68.58,118.78,137.16,237.56,205.73,356.34,6.45-2.02,13.64-4.87,21.1-8.96,9.37-5.13,16.9-10.96,22.81-16.39-68.58-118.78-137.16-237.56-205.73-356.34-7.34,2.3-15.77,5.72-24.54,10.92-7.78,4.62-14.19,9.67-19.38,14.43Z"/>
    <path class="cls-10" d="M479.33,384.69c118.78,68.58,237.56,137.16,356.34,205.73,4.58-4.98,9.37-11.04,13.8-18.31,5.55-9.13,9.16-17.94,11.56-25.6-118.78-68.58-237.56-137.16-356.34-205.73-5.21,5.66-10.8,12.84-15.79,21.73-4.43,7.89-7.46,15.47-9.56,22.19Z"/>
    <path class="cls-15" d="M888.92,429.43c-9.51-57.94-41.47-108.31-86.67-141.89,0,0-.02-.02-.03-.02-17.34-12.88-36.63-23.29-57.34-30.7-23.34-8.35-48.49-12.9-74.71-12.9s-53.42,4.93-77.55,13.94c-23.3,8.7-44.74,21.2-63.57,36.76-40.41,33.39-68.77,80.82-77.63,134.81-1.94,11.77-2.94,23.86-2.94,36.18s.97,23.98,2.84,35.55c8.57,53.21,36.09,100.09,75.42,133.5,16.27,13.81,34.55,25.32,54.36,34.01,27.26,11.97,57.39,18.63,89.07,18.63,27.28,0,53.42-4.93,77.55-13.94,23.3-8.7,44.74-21.2,63.57-36.76,40.55-33.52,68.98-81.18,77.73-135.44,1.86-11.58,2.84-23.45,2.84-35.55s-1-24.4-2.94-36.18ZM766.37,558.8c-17.09,17.63-38.99,30.59-63.58,36.73-10.44,2.62-21.37,4.01-32.62,4.01-13.94,0-27.38-2.12-40.02-6.08-22.6-7.07-42.62-19.96-58.32-36.92-14.36-15.51-25.08-34.41-30.83-55.39-3.12-11.32-4.78-23.24-4.78-35.55s1.73-24.67,4.94-36.18c6.08-21.75,17.52-41.26,32.79-57.03,17.1-17.63,39-30.58,63.59-36.73,10.44-2.62,21.37-4.01,32.62-4.01,10.18,0,20.09,1.13,29.61,3.28,23.24,5.24,44.18,16.52,61.1,32.1,18.03,16.6,31.5,38.1,38.29,62.38,3.22,11.5,4.94,23.63,4.94,36.18s-1.66,24.24-4.78,35.55c-6.03,22-17.54,41.72-32.97,57.64Z"/>
    <path class="cls-29" d="M804.12,465.6c0,12.31-1.66,24.24-4.78,35.55-6.03,22-17.54,41.72-32.97,57.64-17.09,17.63-38.99,30.59-63.58,36.73-10.44,2.62-21.37,4.01-32.62,4.01-13.94,0-27.38-2.12-40.02-6.08-22.6-7.07-42.62-19.96-58.32-36.92-14.36-15.51-25.08-34.41-30.83-55.39-3.12-11.32-4.78-23.24-4.78-35.55s1.73-24.67,4.94-36.18c6.08-21.75,17.52-41.26,32.79-57.03,17.1-17.63,39-30.58,63.59-36.73,10.44-2.62,21.37-4.01,32.62-4.01,10.18,0,20.09,1.13,29.61,3.28,23.24,5.24,44.18,16.52,61.1,32.1,18.03,16.6,31.5,38.1,38.29,62.38,3.22,11.5,4.94,23.63,4.94,36.18Z"/>
    <path class="cls-14" d="M536.23,465.6c0,12.31,1.66,24.24,4.78,35.55h-90.44c-1.87-11.08-3.24-24.43-2.98-39.53.2-12.04,1.4-22.86,2.98-32.2h90.61c-3.22,11.5-4.94,23.63-4.94,36.18Z"/>
    <path class="cls-2" d="M892.78,463.38c.13,14.41-1.21,27.16-3.01,37.78h-90.44c3.12-11.32,4.78-23.24,4.78-35.55s-1.73-24.67-4.94-36.18h90.61c1.64,9.72,2.88,21.15,3.01,33.95Z"/>
    <path class="cls-6" d="M635.14,595.1c-14.81,25.66-29.62,51.3-44.43,76.96-1.5-.55-3.05-1.13-4.63-1.75-9.05-3.55-19.18-8.29-29.78-14.66-9.92-5.97-18.33-12.21-25.31-18.06.25-.43.5-.86.74-1.29,15.04-26.04,30.07-52.07,45.1-78.11,15.69,16.96,35.72,29.85,58.32,36.92Z"/>
    <path class="cls-13" d="M810.06,291.15c-14.81,25.67-29.64,51.32-44.45,76.99-16.92-15.58-37.86-26.86-61.1-32.1,15.04-26.05,30.07-52.08,45.1-78.13.24-.42.48-.83.72-1.24,8.91,3.26,19.05,7.67,29.77,13.72,10.55,5.96,19.47,12.28,26.85,18.23,0,0,.02,0,.03.02,1.06.84,2.09,1.69,3.08,2.52Z"/>
    <path class="cls-5" d="M637.55,335.67c-24.59,6.15-46.49,19.1-63.59,36.73-14.97-25.93-29.94-51.86-44.91-77.79-.16-.28-.32-.56-.48-.83,7.8-6.4,17.31-13.33,28.6-19.98,12.72-7.49,24.68-12.86,35-16.73.15.26.31.53.45.79,14.98,25.93,29.95,51.87,44.93,77.81Z"/>
    <path class="cls-1" d="M811.78,637.43c-8.9,7.29-20.04,15.31-33.57,22.82-10.78,5.98-20.96,10.49-30.03,13.9-.15-.26-.31-.53-.45-.79-14.98-25.94-29.96-51.88-44.93-77.82,24.59-6.14,46.49-19.1,63.58-36.73,14.98,25.93,29.95,51.86,44.92,77.8.16.28.32.56.48.83Z"/>
    <path class="cls-17" d="M670.18,315.97c-82.47,0-149.33,66.86-149.33,149.33s66.86,149.33,149.33,149.33,149.33-66.86,149.33-149.33-66.86-149.33-149.33-149.33ZM670.18,596.39c-72.4,0-131.09-58.69-131.09-131.09s58.69-131.09,131.09-131.09,131.09,58.69,131.09,131.09-58.69,131.09-131.09,131.09Z"/>
    <circle class="cls-19" cx="670.17" cy="465.6" r="120.58"/>
  </g>
  <g id="Chip_Girl" data-name="Chip Girl">
    <circle class="cls-27" cx="670.77" cy="464.47" r="101.71"/>
    <g id="Generative_Object" data-name="Generative Object">
      <path class="cls-3" d="M760.27,511.81c-5.89,11.07-12.7,19.31-22.02,27.71h-.52c.27-.61.63-1.69.78-2.33.89.09,1.54-.86,2.07-1.42,4.85-5.12,9.47-10.5,13.47-16.32.73-1.06,3.74-6.94,4.14-7.25.77-.6,1.2-.37,2.07-.39Z"/>
      <path class="cls-3" d="M653.04,564.38c-.21-.05-.53.13-.52-.26.25.01.53-.1.52.26Z"/>
      <path class="cls-3" d="M644.75,562.57c-.24-.02-.53.1-.52-.26.35.13.49.25.52.26Z"/>
      <path class="cls-3" d="M643.71,562.31c-.26-.09-.52-.17-.78-.26"/>
      <path class="cls-3" d="M642.94,562.05c-.18-.06-.53.14-.52-.26.6.11.49.25.52.26Z"/>
      <path class="cls-3" d="M636.98,559.98c-.13-.05-.3.01-.26-.26.16.04.29,0,.26.26Z"/>
      <path class="cls-3" d="M736.95,540.56l.26-.26s-.11.13-.26.26Z"/>
      <g>
        <path class="cls-3" d="M760.27,511.81c-.87.02-1.3-.21-2.07.39-.4.31-3.42,6.2-4.14,7.25-4,5.82-8.62,11.19-13.47,16.32-.53.56-1.18,1.52-2.07,1.42,3.15-14.16-5.22-28.64-8.29-42.09-1.77-7.75-3.83-19.36-3.63-27.2.04-1.6,1.18-3.39.78-5.96-.27-1.73-2.46-3.98-2.59-4.66-.45-2.4,2.07-13.75,2.33-17.35,2.94-40.12-19.23-70.66-61.51-68.25-37.33,2.13-53.97,34.2-51.41,68.51.26,3.54,2.76,14.71,2.33,17.09-.5,2.75-3.03,2.74-2.59,8.81.69,9.42-.32,17.18-2.33,26.68-2.41,11.4-13.65,36.4-8.29,46.75-30.74-25.8-41.84-69-29.01-107.1,1.61-4.78,3.92-9.4,6.22-13.86.45.74.47,1.4,1.55.91,10.74-20.71,28.76-37.6,50.38-46.49.8-.45-.11-1.41-.65-1.81,87.52-35.82,173.07,56.8,128.47,140.64Z"/>
        <path class="cls-3" d="M631.8,371.17c.54.4,1.45,1.36.65,1.81-21.61,8.89-39.63,25.78-50.38,46.49-1.09.49-1.11-.17-1.55-.91,11.08-21.5,28.81-38.2,51.28-47.4Z"/>
        <g>
          <path class="cls-16" d="M730.22,499.12l-1.3-2.72c2.56,13.74,8.16,26,6.99,40.4-.13,1.56-.91,3.26-1.04,4.79-.02.26-.07.53.26.52-.85.71-1.83,1.63-2.85,2.07,3.71-6.98.23-24.13-2.33-31.47-3.56-10.23-6.03-15.56-8.29-26.68-.11-.55-.22-1.77-1.04-1.68.24-2.03.37-8.49.78-9.71.11-.34,3.4-2.64,3.63-3.63l.52.26c1.55,9.28,3.11,18.56,4.66,27.84Z"/>
          <path class="cls-16" d="M620.4,483.58c-1.5,5.59-2.15,11.43-3.89,16.96-1.41,4.49-3.93,8.66-5.44,12.95-3.38,9.62-4.8,20.4-2.59,30.43-.97-.78-1.94-1.47-2.85-2.33v-.26c.7.52.57-.22.52-.65-1.43-11.56-.58-17.02,2.07-28.23,1.17-4.96,4.05-10.45,3.63-15.67,2.01-8.45,2.99-17.38,3.89-26.03.56.67,4.03,3.74,4.14,4.14.39,1.33.29,6.69.52,8.68Z"/>
          <path class="cls-16" d="M732.29,544.18c-.28.53-.67.66-1.04,1.04-.74-2.44-1.99-4.62-3.37-6.73.88-7.97.45-16.13-1.3-23.96-.61-2.75-1.78-5.26-2.59-7.9-1.12-3.63-2.17-7.41-3.37-11.01-.08-.24-.62-1.54-1.04-1.42.48-3.27.65-6.57,1.04-9.84.82-.09.92,1.13,1.04,1.68,2.26,11.12,4.73,16.45,8.29,26.68,2.56,7.34,6.05,24.49,2.33,31.47Z"/>
          <path class="cls-16" d="M724,506.63c2.85,9.12,3.02,18.87,1.3,28.23-1.5-1.17-6.27-2.98-8.29-3.89,2.43-7.31,2.23-15.72,0-23.05,1.21-4.21,1.95-9.37,2.59-13.73.42-.11.96,1.19,1.04,1.42,1.2,3.59,2.25,7.38,3.37,11.01Z"/>
          <path class="cls-16" d="M717.01,530.97c-1.29-.58-8.36-3.91-9.07-3.89l5.44-9.71c1.04-3.15,2.72-6.28,3.63-9.45v23.05Z"/>
          <path class="cls-16" d="M730.22,499.12c2.22,8.62,6.55,17.26,7.51,26.03.58,5.32.86,12.24-2.85,16.45.4-1.54.75-3.14,1.04-4.79,2.57-15.04-1.48-28.41-5.7-37.68Z"/>
          <path class="cls-16" d="M605.64,541.33c-7.01-14.6,2.82-30.29,6.22-44.55.43,5.22-2.45,10.71-3.63,15.67-2.65,11.21-3.5,16.67-2.07,28.23.05.43.18,1.17-.52.65Z"/>
          <path class="cls-16" d="M727.89,538.48c-.85-1.3-1.25-2.58-2.59-3.63,1.72-9.37,1.56-19.11-1.3-28.23.81,2.64,1.98,5.15,2.59,7.9,1.74,7.83,2.17,15.99,1.3,23.96Z"/>
          <g>
            <path class="cls-16" d="M621.7,494.19c.68,4.52,1.31,9.08,2.59,13.47-2.27,7.29-2.76,16.21.26,23.31-2.84,1.26-7.9,2.99-9.84,5.18-.7-4.81-.66-9.78-.26-14.63,0-.05.51-.73.52-.78.5-5.13.81-9.97,2.59-14.89,1.07-3.4,2.18-7.49,3.37-10.75.14-.37.28-1.04.78-.91Z"/>
            <path class="cls-16" d="M633.35,527.09c-1.08.18-7.22,3.18-8.81,3.89-3.01-7.1-2.53-16.02-.26-23.31,1.12,3.84,2.96,7.54,4.4,11.27l4.66,8.16Z"/>
            <path class="cls-16" d="M614.71,536.15c-.41.46-.37,1.61-1.3,1.55-.92-9.2,0-19.21,2.59-28.1.35-1.19,1.23-2.74,1.55-3.76-1.78,4.92-2.09,9.76-2.59,14.89,0,.05-.51.73-.52.78-.4,4.86-.44,9.82.26,14.63Z"/>
          </g>
          <g>
            <path class="cls-31" d="M702.51,529.68c-4.77-.83-11.25-5.69-16.19-6.99-3.75-.99-19.06-3.14-22.79-3.11-2.21.02-19.63,4.5-22.66,5.44,10.37-5.68,14.55-5.79,15.28-18.65,6.78,5.26,12.99,7.97,21.37,4.66,3.25-1.28,8.76-3.86,7.38-8.03l.52.39c-.61,3.76-.12,10.29,2.07,13.47,2.49,3.61,16.42,8.63,16.58,9.58.03.18-1.39,2.76-1.55,3.24Z"/>
            <path class="cls-26" d="M684.9,503c1.38,4.17-4.13,6.75-7.38,8.03-8.38,3.31-14.59.6-21.37-4.66.04-.66-.3-3.21.39-3.37,3.69,1.65,10.79,5.67,14.76,5.44,3.7-.21,10.08-3.96,13.6-5.44Z"/>
            <path class="cls-3" d="M640.61,561.28c-.92-.22-.96-.4-1.3-.52l1.3.52Z"/>
            <g>
              <path class="cls-16" d="M707.95,527.09c.76-.75,3.05,1.18,9.07,3.89,2.02.91,6.79,2.71,8.29,3.89,1.34,1.05,1.74,2.33,2.59,3.63,1.38,2.12,2.63,4.3,3.37,6.73-5.96,6.24-23.75,13.74-32.12,16.32.16-1.45,1.45-2.59,2.07-3.63,8.81-14.65,10.88-20.85,10.88-20.85-.4-5.69-5.17-8.97-4.14-9.97Z"/>
              <path class="cls-16" d="M621.44,538.74c-1.93,1.44-4.51,2.26-3.89,5.05.43,1.91,7.89,8.89,8.81,11.53-5.77-3.01-11.15-6.43-16.32-10.36l3.37-7.25c.92.05.89-1.1,1.3-1.55,1.95-2.19,7-3.92,9.84-5.18,1.59-.7,7.73-3.7,8.81-3.89,1.35-.23,1.4.15,1.42,1.55l-13.34,10.1Z"/>
            </g>
            <g>
              <path class="cls-16" d="M738.51,537.19c0,.62-.63,1.99-.78,2.33-.01.03-.4,0-.26.52-.13.12-.23.23-.26.26l-.26.26c-.6.52-1.2,1.04-1.81,1.55-.33,0-.28-.26-.26-.52,3.71-4.21,3.43-11.12,2.85-16.45-.96-8.77-5.29-17.41-7.51-26.03-2.34-9.11-3.71-18.47-4.66-27.84l-.52-.26c-.23.99-3.52,3.29-3.63,3.63-.4,1.22-.54,7.68-.78,9.71-.38,3.27-.56,6.57-1.04,9.84-.64,4.36-1.38,9.52-2.59,13.73-.91,3.18-2.58,6.31-3.63,9.45l-5.44,9.71c-1.32.04-2.72,2.51-4.4,2.85-.15.03-.98-.25-1.04-.26.17-.48,1.58-3.06,1.55-3.24-.15-.95-14.09-5.97-16.58-9.58-2.19-3.18-2.68-9.71-2.07-13.47l-.52-.39c-3.52,1.48-9.9,5.23-13.6,5.44-3.98.23-11.07-3.79-14.76-5.44-.69.15-.35,2.71-.39,3.37-.73,12.85-4.91,12.97-15.28,18.65-.06.02-1.47.57-1.04.78-1.43.78-2.41.57-3.37,2.07-.15.24-.51-.38-.52,1.3-.52-.36-1.26.24-1.68.52-4.07,2.71-8.88,6.14-12.82,9.07l13.34-10.1c-.03-1.4-.08-1.78-1.42-1.55l-4.66-8.16c-1.45-3.73-3.28-7.42-4.4-11.27-1.28-4.39-1.91-8.95-2.59-13.47-.53-3.54-.88-7.07-1.3-10.62-.23-1.99-.13-7.34-.52-8.68-.12-.41-3.58-3.48-4.14-4.14-.9,8.65-1.87,17.58-3.89,26.03-3.39,14.26-13.23,29.95-6.22,44.55v.26c-.69-.66-1.91-1.25-2.33-2.07-5.37-10.35,5.88-35.35,8.29-46.75,2.01-9.5,3.02-17.25,2.33-26.68-.44-6.07,2.09-6.06,2.59-8.81.43-2.39-2.07-13.56-2.33-17.09-1.01-13.58,1.34-27.01,4.97-35.38,2.33-5.38,7.03-15.83,18.32-23.82,11.3-7.99,22.73-9,28.13-9.31,42.29-2.42,64.45,28.13,61.51,68.25-.26,3.61-2.78,14.96-2.33,17.35.13.68,2.32,2.93,2.59,4.66.39,2.47-.26,4.48-.41,4.94-2.84,8.65,11.51,66.8,11.54,70.3Z"/>
              <g>
                <path class="cls-3" d="M738.25,539.52c-.3.27-.58.34-.78.52-.14-.53.25-.49.26-.52h.52Z"/>
                <g>
                  <g>
                    <path class="cls-31" d="M721.67,469.07c3.09-1.42,3.34-7.21,0-8.29.03-.74-.26-3.93.39-4.14,6.56,3.68,5.07,12.2-.26,16.32-.32-1.15-.11-2.66-.13-3.89Z"/>
                    <path class="cls-26" d="M721.67,469.07c-.04-2.74-.1-5.55,0-8.29,3.34,1.08,3.09,6.87,0,8.29Z"/>
                    <path class="cls-28" d="M715.2,469.59c-.02.37.05.83,0,1.3l-1.55-1.3c.08-.28.47-.89.52-1.04l1.04,1.04Z"/>
                    <g>
                      <path class="cls-31" d="M665.34,398.88c1.21-.01,1.34,4.19,1.68,5.31,3.99,13.03,13.24,26.28,24.35,34.19l-4.92,2.07c2.19-.1,5.53-.84,7.64-.39.79.17,12.5,7.07,13.99,8.03,1.25.81,7.6,5.34,7.9,6.35.77,2.59-4.43,18.79-5.44,22.53-1.48,5.47-.3,7.05-4.66,11.91s-28.46,18.17-34.58,18.52c-8.32.47-37.08-16.03-39.76-24.99-1.07-3.6-5.21-19.03-5.44-22.02-1.05-13.98,15.88-44.29,26.55-53.48,1.71-1.47,10.99-8.01,12.69-8.03Z"/>
                      <g>
                        <g>
                          <path class="cls-24" d="M680.49,485.13c-3.89,8.92-15.04,8.77-19.43.26l19.43-.26Z"/>
                          <path class="cls-16" d="M680.49,485.13l-19.43.26c-.46-.9-1.86-1.56-1.17-2.85,3.49,2.09,9.42,2,13.47,1.81,2.54-.12,5.75-.09,7.77-1.81,1.14,1.01-.31,1.83-.65,2.59Z"/>
                        </g>
                        <path class="cls-23" d="M645.92,438.51c2.63-.17,6.37.22,8.55,1.81-7.19-.95-14.58.15-20.85,3.76,3.17-2.91,7.97-5.28,12.3-5.57Z"/>
                        <path class="cls-31" d="M670.78,471.14c1.28.14,1.43,4.3.52,5.18-2.58.88-1.93-5.33-.52-5.18Z"/>
                        <g>
                          <path class="cls-3" d="M642.94,469.59c-1.94-.5-5.34-3.24-6.22-5.05-.21-.42.56-.41.52-.52-.1-.25-.51-.36-.52-.39-1.38-4.52-.39-6.67,3.5-9.32-2.04,5.38-2.25,11.48,2.72,15.28Z"/>
                          <path class="cls-3" d="M654.85,456.64c-.2,4.83-.8,10.27-5.44,12.43,4.18-3.43,4.58-9.44,2.33-14.12.28-.53,2.91,1.11,3.11,1.68Z"/>
                          <path class="cls-23" d="M643.33,449.65c2.19-.28,5.91.07,7.51,1.55l-2.33-.78c-5.26-.51-8.84.88-13.08,3.76,1.76-1.88,5.34-4.21,7.9-4.53Z"/>
                          <g>
                            <path class="cls-23" d="M654.85,456.64c-.2-.57-2.82-2.21-3.11-1.68,2.25,4.67,1.85,10.68-2.33,14.12-2.84,1.32-3.33,1.33-6.48.52-4.97-3.8-4.76-9.9-2.72-15.28-3.89,2.66-4.88,4.8-3.5,9.32-.75-.35-4.2-3.51-4.14-4.01.04-.41,4.65-5.85,5.31-6.35,5.8-4.34,13.12-2.1,18,2.46l-.91-.13c.35.6-.13.98-.13,1.04Z"/>
                            <g>
                              <path class="cls-22" d="M652.26,463.63c-1.36,5.36-7.02,7.81-10.88,3.11v-.52c1.1,1.3,2.39.03,2.85,0,2.39-.16,2.14.73,4.66-1.04,1.33-.93.84-1.2,1.3-1.55.7-.54,1.37-.15,2.07,0Z"/>
                              <path class="cls-3" d="M649.02,453.79c2.78-.52,3.38,4.78,1.04,5.18-2.91.5-3.23-4.77-1.04-5.18Z"/>
                              <path class="cls-21" d="M652.26,463.63c-.7-.15-1.38-.54-2.07,0l-1.04-1.04c.32-1.04.08-2.25.26-2.72.06-.16,2.39-1.6,2.72-2.2.72.22.35,5.08.13,5.96Z"/>
                              <path class="cls-21" d="M642.68,464.15c-.94.76-1.3.82-1.3,2.07v.52c-1.67-2.03-2.2-3.67-2.07-6.35,4.65,0,2.41,1.59,3.37,3.76Z"/>
                              <path class="cls-20" d="M644.23,466.22c-.46.03-1.75,1.3-2.85,0,0-1.26.36-1.31,1.3-2.07.06.13,2.02.95,1.55,2.07Z"/>
                              <path class="cls-3" d="M650.19,463.63c-.45.35.04.62-1.3,1.55-1.88-1.21.15-2.23.26-2.59l1.04,1.04Z"/>
                            </g>
                          </g>
                        </g>
                        <g>
                          <path class="cls-25" d="M704.58,463.63c.59-1.63.99-3.35.52-5.05-.27-.96-2.95-4.54-4.14-3.76-.05.04-.3-.04-.26.26-1.19-2.65-4.35-.88-3.89,1.94.14.88,1.29,1.46,1.55,1.94.22.4.41.13.52.52.22.77-.06,2.28-.26,3.11-.03.13-1.82,1.37-.26,2.33-1.25.94-3.04,2.51-4.66,1.04-.43-.39-.02-1.39-1.3-1.55-.88-2.63.21-4.53-3.63-4.01-.24,2.64.31,4.06,1.81,6.09,3.34,4.49,8.08,3.47,10.36-1.3l.26.52c-.79,1.71-1.56,2.75-3.11,3.89-2.77.7-4.7,1.03-6.99-1.04-3.29-2.97-3.84-9.96-1.3-13.6-.29-.63-3,1.25-3.24,1.68l.39-1.17-1.04.39c.3-1.67,5.87-4.37,7.38-4.66,7.69-1.51,11.53,2.57,15.41,8.42l-4.14,4.01Z"/>
                          <path class="cls-3" d="M704.58,463.63c-1.05,2.91-3.82,5.29-6.48,5.96,1.55-1.14,2.32-2.18,3.11-3.89,1.62-3.53,1.68-7.36-.26-10.88,1.19-.78,3.88,2.8,4.14,3.76.47,1.7.07,3.42-.52,5.05Z"/>
                          <path class="cls-3" d="M691.11,468.55c-3.58-2.08-5.88-8.73-5.18-12.69l1.04-.39-.39,1.17c.24-.43,2.95-2.32,3.24-1.68-2.55,3.64-2,10.63,1.3,13.6Z"/>
                          <path class="cls-23" d="M694.09,449.65c4.33-.51,8.22.94,11.27,4.01-4.65-2.94-9.52-4.49-14.89-2.46.29-.67,2.93-1.47,3.63-1.55Z"/>
                          <path class="cls-22" d="M701.47,463.89c-.08.27-.39,1.03-.52,1.3-2.28,4.77-7.02,5.78-10.36,1.3-.14-.53.25-.49.26-.52.65,1.14,2.2,1.14,2.85,0,1.62,1.47,3.41-.09,4.66-1.04.36-.27,1.68.02,1.3-1.55.27.31.59,1.02.65,1.04.4.14.64-.69,1.17-.52Z"/>
                          <path class="cls-3" d="M700.69,455.09c.82,1.81-.2,4.14-2.33,3.89-.26-.48-1.41-1.07-1.55-1.94-.46-2.82,2.69-4.59,3.89-1.94Z"/>
                          <path class="cls-21" d="M701.47,463.89c-.53-.18-.76.66-1.17.52-.06-.02-.38-.73-.65-1.04-.29-.34-.43-.88-1.04-.78.2-.83.48-2.33.26-3.11l2.85-1.68c.32,2.19.38,3.95-.26,6.09Z"/>
                          <path class="cls-21" d="M692.41,464.41c-1.45-.19-1.36.68-1.55,1.55,0,.03-.4-.02-.26.52-1.5-2.02-2.05-3.45-1.81-6.09,3.84-.52,2.75,1.39,3.63,4.01Z"/>
                          <path class="cls-30" d="M701.21,465.7l-.26-.52c.13-.27.44-1.02.52-1.3.64-2.13.58-3.89.26-6.09l-2.85,1.68c-.11-.38-.3-.11-.52-.52,2.13.26,3.15-2.07,2.33-3.89-.04-.3.2-.22.26-.26,1.94,3.51,1.88,7.35.26,10.88Z"/>
                          <path class="cls-20" d="M692.41,464.41c1.28.17.86,1.16,1.3,1.55-.65,1.14-2.2,1.14-2.85,0,.19-.88.1-1.74,1.55-1.55Z"/>
                          <path class="cls-3" d="M699.66,463.37c.38,1.57-.93,1.28-1.3,1.55-1.56-.97.23-2.2.26-2.33.61-.1.75.44,1.04.78Z"/>
                        </g>
                      </g>
                    </g>
                  </g>
                  <g>
                    <path class="cls-16" d="M712.09,389.82l-9.32,8.94c4.16,1.93,7.56,5.11,10.36,8.68-.93.54-1.89,1.06-2.85,1.55-.07.04-.19-.03-.26,0-1.12-.88-6.15-7.6-6.86-7.77-1.7-.41-8.66,2.11-11.01,1.81-2.84-2.7-6.63-5.82-10.36-7.12l9.58,10.49c-4.32,1.25-8.48,1.75-12.95,2.2,1.04.89,3.28,4.88,4.27,5.31,1.61.7,13.96.98,14.37-.13l-5.44-7.38c.84-.25,1.82-.61,2.59-1.04,2.3,2.43,4,4.83,5.96,7.51l-2.59,1.42c1.77,1.61,13.71,18.41,11.78,19.81-13.28-5.94-24.18-14.54-32.89-26.16l3.5,11.53-1.3-.65c-.28-.61-2.38-4.74-2.59-4.92,2.4,1.15-.6-5.29-.91-5.44-.55-.26-4.22.51-5.05.78-1.73-4.33-3.05-8.24-3.5-12.95-6.44,3.47-12.59,7.46-17.74,12.69-.07-.53-1.23-.49-1.3-.52-1.49-.67-10.13-5.45-10.36-6.6-.25-1.26,2.84-3.92,3.37-5.18-3.92-2.58-9.53-2.66-10.1-8.42,20.74-21.13,61.84-20.8,81.59,1.55Z"/>
                    <path class="cls-16" d="M720.9,439.29c1.02,22.15.43,65.09-11.66,83.79-.66,1.02-3.35,4.61-4.27,5.05-.37.18-.58.39-.65-.13-.1-.79,4.78-12.73,5.44-15.02,5.43-18.96,7.02-40.02,6.48-59.7-.05-1.93-.14-4.05.26-5.96.74.46,2.68,2.39,2.33.65-.06-.31-2.4-2.11-2.85-2.46-1.81-11.45-8.55-23.04-15.28-32.38,3.33-.96,6.27-2.59,9.32-4.14.07-.03.19.04.26,0,2.89,4.46,6.55,8.73,8.29,13.86,1.65,4.88,2.12,11.92,2.33,16.45Z"/>
                    <path class="cls-16" d="M627.01,477.88c4.55-.13,2.62,1.9,3.5,4.79,2.97,9.83,16.48,15.27,24.61,19.94-.11,2.92.25,5.91-.26,8.81-1.48,8.45-11.3,10.22-17.74,13.86-5.03-12.1-8.47-25.89-9.71-38.98-.08-.87-.79-8.3-.39-8.42Z"/>
                    <path class="cls-16" d="M711.7,477.88c.12-.08,2.62.09,2.98.13-1.34,12.67-2.91,25.37-6.73,37.56-.6,1.91-2.02,6.81-2.85,8.29-.33.59-.39,1.12-1.17,1.17-1.5.09-14.46-7.15-15.67-8.94-1.59-2.34-2.98-11.4-1.81-13.73.27-.54,9.25-4.65,10.75-5.57,4.22-2.59,10.88-7.41,12.82-12.04.54-1.3,1.3-6.61,1.68-6.86Z"/>
                    <path class="cls-16" d="M647.6,408.47c.06.03,1.23,0,1.3.52-1.96,1.99-3.76,4.24-5.44,6.48l-1.42-.78-12.95,16.06c-.66-3.23,8.44-16.97,8.42-18,0-.47-1.3-1.05-1.81-.78-1.29.69-10.36,19.86-10.88,22.27-1.17,5.48-.34,13.94-.26,19.81.35,24.33,2.19,49.25,11.66,71.87l-.91,1.94c-11.31-15.54-13.9-35.94-14.63-54.78-.39-9.85,1.42-24.81-.52-33.8.75.51.5-.18.52-.65.36-11.7,2.66-20.36,9.07-30.17,1.06.33,5.59,3.36,6.35,3.11.38-.13,3.66-5.89,4.66-6.48l-2.98,7.38c.86.35,3.78,2.2,4.53,1.94.38-.13,4.41-5.35,5.31-5.96Z"/>
                    <path class="cls-16" d="M700.18,412.87s.5.24.52.26c6.73,9.34,13.47,20.92,15.28,32.38-9.71-7.49-21.91-13.77-29.79-23.44-1.56-1.92-3.48-5.98-4.66-7.25-.46-.5-.57-.56-1.04,0,3.35,9.2,9.62,19.63,18.26,24.73,5.69,3.36,12.04,4.26,17.74,7.77-.4,1.91-.31,4.03-.26,5.96-7.47-7.5-17.99-10.7-26.29-17.09-4.85-3.74-8.54-8.24-12.04-13.21.43-1.07,1.75.68,2.07.91,1.86.63-1.33-3.9-1.55-4.4-.25-.57.27-.62.26-.65l1.3.65-3.5-11.53c8.72,11.62,19.62,20.22,32.89,26.16,1.92-1.41-10.01-18.2-11.78-19.81l2.59-1.42Z"/>
                    <path class="cls-16" d="M647.6,408.47c-.9.61-4.93,5.83-5.31,5.96-.75.25-3.67-1.6-4.53-1.94l2.98-7.38c-1,.58-4.28,6.35-4.66,6.48-.76.25-5.29-2.78-6.35-3.11.04-.06-.04-.2,0-.26,2.23-3.36,5.04-6.26,7.9-9.07l-10.75,7.51-5.18-4.92c2.33-5,4.89-9.48,8.81-13.47.57,5.76,6.18,5.84,10.1,8.42-.52,1.26-3.61,3.92-3.37,5.18.23,1.15,8.87,5.93,10.36,6.6Z"/>
                    <path class="cls-16" d="M626.88,406.65v.26c-2.56,4.12-4.55,8.6-5.7,13.34-1.44,5.97-1.33,11.69-1.55,17.74-.09,2.46.08,16.68-.26,17.48-.05.12-1.7,1.37-2.07.26-.96-2.87-2.16-15.4-2.33-18.91-.58-12.24,1.6-24.09,6.73-35.09l5.18,4.92Z"/>
                    <path class="cls-16" d="M643.46,415.46c-8.79,11.67-14.92,26.5-17.87,40.79l-1.04-2.2c-.08-5.87-.91-14.34.26-19.81.52-2.41,9.59-21.59,10.88-22.27.51-.27,1.8.3,1.81.78.02,1.03-9.08,14.77-8.42,18l12.95-16.06,1.42.78Z"/>
                    <path class="cls-16" d="M713.13,407.43c.06-.04.19.04.26,0,3.12,5.08,6.31,10.23,7.51,16.19,1.47-1.01,3.2-.56,4.92-.65.88,7.47.5,25.23-1.81,32.25-.41,1.25-1.83.74-2.07.26-.85-1.72.82-16.36,0-17.87-.7-1.29-.8,1.75-1.04,1.68-.21-4.53-.68-11.57-2.33-16.45-1.74-5.13-5.4-9.39-8.29-13.86.96-.5,1.92-1.01,2.85-1.55Z"/>
                    <path class="cls-16" d="M720.12,402.77c-2.27,1.5-4.39,3.28-6.73,4.66-.06.04-.19-.04-.26,0-2.8-3.57-6.2-6.74-10.36-8.68l9.32-8.94c3.65,4.13,5.8,7.93,8.03,12.95Z"/>
                    <path class="cls-16" d="M720.12,402.77c2.84,6.41,4.87,13.21,5.7,20.2-1.72.08-3.45-.36-4.92.65-1.2-5.96-4.39-11.11-7.51-16.19,2.34-1.38,4.47-3.17,6.73-4.66Z"/>
                    <path class="cls-16" d="M629.73,408.21c-.04.06.04.2,0,.26-6.41,9.82-8.71,18.48-9.07,30.17-.01.47.23,1.16-.52.65-.06-.29-.28-1.14-.52-1.3.23-6.05.11-11.77,1.55-17.74,1.15-4.74,3.14-9.22,5.7-13.34l2.85,1.3Z"/>
                    <path class="cls-16" d="M676.09,413.9c.21.18,2.31,4.31,2.59,4.92.01.03-.51.08-.26.65.22.51,3.41,5.04,1.55,4.4-.32-.22-1.64-1.98-2.07-.91-2.31-3.28-4.45-6.47-6.22-10.1.96.21,3.78.48,4.4,1.04Z"/>
                    <path class="cls-16" d="M676.09,413.9c-.62-.55-3.45-.83-4.4-1.04-.57-1.18-1.07-2.41-1.55-3.63.83-.27,4.5-1.04,5.05-.78.31.15,3.31,6.59.91,5.44Z"/>
                    <path class="cls-31" d="M625.97,463.63c.11,1.53,4,12.81,3.37,13.21-.25.16-2.48-.09-2.72-.39-.41-.5-.84-11.34-.65-12.82Z"/>
                    <path class="cls-31" d="M715.2,470.88c-.29,2.92.86,6.48-3.24,5.96-.45-.3,1.44-6.38,1.68-7.25l1.55,1.3Z"/>
                    <path class="cls-31" d="M715.2,469.59l-1.04-1.04c.49-1.64.57-3.83,1.55-5.31.13,2.13-.38,4.25-.52,6.35Z"/>
                    <path class="cls-16" d="M710.02,408.98c-3.05,1.56-5.99,3.18-9.32,4.14-.02-.02-.5-.24-.52-.26-1.96-2.69-3.65-5.08-5.96-7.51-.69-.73-1.35-1.64-2.07-2.33,2.35.3,9.31-2.22,11.01-1.81.71.17,5.75,6.89,6.86,7.77Z"/>
                    <path class="cls-16" d="M691.37,406.39c.08-.02.18.02.26,0l5.44,7.38c-.42,1.11-12.76.83-14.37.13-.99-.43-3.24-4.42-4.27-5.31,4.47-.45,8.63-.95,12.95-2.2Z"/>
                    <path class="cls-16" d="M692.15,403.03c.73.69,1.38,1.6,2.07,2.33-.77.43-1.75.79-2.59,1.04-.08.02-.18-.02-.26,0l-9.58-10.49c3.73,1.3,7.52,4.42,10.36,7.12Z"/>
                    <path class="cls-16" d="M629.73,408.21l-2.85-1.3v-.26l10.75-7.51c-2.86,2.8-5.67,5.71-7.9,9.07Z"/>
                    <g>
                      <path class="cls-31" d="M619.24,456.64l.26,16.32c-5.51-4-6.8-12.63-.26-16.32Z"/>
                      <path class="cls-26" d="M618.72,461.04l.26,7.25c-2.63-1.11-1.89-5.33-.26-7.25Z"/>
                    </g>
                    <g>
                      <path class="cls-16" d="M715.98,445.5c.45.35,2.79,2.15,2.85,2.46.35,1.74-1.59-.19-2.33-.65-5.7-3.51-12.05-4.41-17.74-7.77-8.64-5.1-14.91-15.54-18.26-24.73.47-.56.57-.5,1.04,0,1.18,1.27,3.1,5.33,4.66,7.25,7.87,9.67,20.08,15.95,29.79,23.44Z"/>
                      <path class="cls-16" d="M685.28,422.71c7.31,8.14,16.64,13.97,25.25,20.59-11.05-2.44-20.32-10.45-25.25-20.59Z"/>
                    </g>
                  </g>
                </g>
              </g>
            </g>
          </g>
        </g>
      </g>
    </g>
  </g>
</svg>