<?xml version="1.0" encoding="UTF-8"?>
<svg id="Layer_2" data-name="Layer 2" xmlns="http://www.w3.org/2000/svg" viewBox="0 0 300.68 439.08">
  <defs>
    <style>
      .cls-1 {
        fill: #fcceb5;
      }

      .cls-2 {
        fill: #f4f7dc;
      }

      .cls-3 {
        fill: #f0d0ec;
      }

      .cls-4 {
        fill: #fcb203;
      }

      .cls-5 {
        fill: #f79484;
      }

      .cls-6 {
        fill: #f8ecec;
      }

      .cls-7 {
        fill: #fe756d;
      }

      .cls-8 {
        fill: #f8e1d7;
      }

      .cls-9 {
        fill: #f0b2b6;
      }

      .cls-10 {
        fill: #f6dcc6;
      }

      .cls-11 {
        fill: #f6e09c;
      }

      .cls-12 {
        fill: #db6234;
      }

      .cls-13 {
        fill: #fcee00;
      }

      .cls-14 {
        fill: #1e0403;
      }

      .cls-15 {
        fill: #a20000;
      }

      .cls-16 {
        fill: #fc7357;
      }

      .cls-17 {
        fill: #fc4444;
      }

      .cls-18 {
        fill: #fda200;
      }

      .cls-19 {
        fill: #f95000;
      }

      .cls-20 {
        fill: #060c01;
      }

      .cls-21 {
        fill: #fc8100;
      }

      .cls-22 {
        fill: #fffefe;
      }

      .cls-23 {
        fill: #fac44a;
      }

      .cls-24 {
        fill: #f68c8c;
      }

      .cls-25 {
        fill: #ffcb00;
      }

      .cls-26 {
        fill: #ebe8b0;
      }

      .cls-27 {
        fill: #f4dfb7;
      }

      .cls-28 {
        fill: #850602;
      }

      .cls-29 {
        fill: #f5d0c7;
      }

      .cls-30 {
        fill: #010100;
      }

      .cls-31 {
        fill: #f7ec69;
      }

      .cls-32 {
        fill: #f7d59a;
      }

      .cls-33 {
        fill: #7b2703;
      }

      .cls-34 {
        fill: #fadb00;
      }

      .cls-35 {
        fill: #fe6e00;
      }

      .cls-36 {
        fill: #691904;
      }

      .cls-37 {
        fill: #f9a446;
      }

      .cls-38 {
        fill: #bf0100;
      }

      .cls-39 {
        fill: #f2aca1;
      }

      .cls-40 {
        fill: #fe713b;
      }

      .cls-41 {
        fill: #5a0407;
      }

      .cls-42 {
        fill: #ef0201;
      }

      .cls-43 {
        fill: #360002;
      }

      .cls-44 {
        fill: #f2e5d2;
      }

      .cls-45 {
        fill: #260103;
      }

      .cls-46 {
        fill: #fa8758;
      }

      .cls-47 {
        fill: #120301;
      }

      .cls-48 {
        fill: #faa47b;
      }
    </style>
  </defs>
  <g id="Generative_Object" data-name="Generative Object">
    <g>
      <path class="cls-47" d="M269.98.7c15.07.8,23.95,9.24,26.76,23.94v391.55c-2.22,10.98-9.16,20.82-20.77,22.89H24.56c-12.04-2.67-18.88-12.42-20.77-24.3V25.35C6.62,5.32,19.46-.29,38.29,2.11"/>
      <g>
        <g>
          <g>
            <path class="cls-13" d="M43.22,2.82c-1.65.98-2.33.28-3.52-.7"/>
            <path class="cls-13" d="M101.67,0c.31,1,2.11,4.96.35,5.28-.95.05-1.96-1.07-2.46-1.76"/>
          </g>
          <path class="cls-13" d="M205.19,4.23c-4.52,3.01-2.9-.98-2.11-3.52"/>
        </g>
        <g>
          <path class="cls-42" d="M22.45,8.1c11.49-2.4,46.95,1.96,61.27,2.11,44.54.46,89.26.45,133.8,0,13.7-.14,49.04-4.4,59.86-2.11,5.89,1.24,12.17,10.85,13.03,16.55v391.55c-2.39,7.71-6.36,14.08-14.44,16.55H23.85c-7.52-3.43-11.84-9.39-13.73-17.25V23.24c1.54-5.15,6.73-13.97,12.32-15.14Z"/>
          <path class="cls-20" d="M34.42,15.14c16.07-1.86,44.97,2,62.68,2.11,56.83.38,113.63-.32,170.42-1.41,23.06,4.26,15.24,47.54,15.85,65.14,3.24,94.09,3.63,189.03,0,283.1-.84,21.76,8.28,56.98-20.07,62.32H35.83c-9.5-2.09-16.79-9.32-19.37-18.66V32.39c1.15-7.19,10.7-16.41,17.96-17.25Z"/>
          <g>
            <path class="cls-13" d="M33.36,70.77c-2.5,7.26,10.86,13.54,11.27,14.44.9,2-2.62,9.43-4.93,10.92-.9.58-1.7.9-2.82.7-1.27-.96-3.71-1.98-5.63-3.52-.69-.55-.67-3-2.46-2.82l-3.87,4.93c-.49,43.41.01,86.91,0,130.28,0,.23,0,.47,0,.7-.03,37.32-.7,74.63,0,111.97-.15,1.06.6,3.13-.7,3.52-.14-.13-2.11-.4-2.11-2.11l-1.41-243.31c7.17-9.6,10.26-13.89,9.86-26.41,1.17-.07,1.53.62,2.82.7Z"/>
            <path class="cls-13" d="M92.52,415.14c.08.09-.1,1.73,1.06,2.11h110.56c1.04-.71,1.65-1.96,2.46-2.82,6.3-6.62-6.54-7.98-.7-16.55,7.62-11.18,16.49,10.33,19.37,11.62,2.42,1.08,8.42-1.08,8.8,3.87-5.92,1.49-11.94.97-17.96,1.06-.19,0-3.33-1.44-3.52-1.41-.88.16-5.32,6.93-7.04,7.75h-113.38c-1.67-.62-5.18-7.6-5.63-7.75-1.94-.6-21.37,3.22-22.18.35,2.23-4.49,7.5-2.94,10.21-4.58,2.23-1.35,6.48-12.34,11.27-13.38,6.05-1.32,9.44,4.81,8.1,10.21-.94,3.8-7.36,2.94-1.41,9.51Z"/>
            <path class="cls-42" d="M127.73,236.27c-26.99,19.63-51.74,42.15-77.46,63.38-5.23,4.31-10.39,8.64-15.85,12.68,17.83-20.03,40.62-35.47,60.21-53.87-.1-2.86-14.57,4.54-16.2,3.87,11.18-6.45,21.87-14.86,33.8-20.07-21.05,8.26-40.73,22.73-61.27,33.45-1.6.83-3.09.48-3.52.7l44.37-29.23-17.61,2.46c9.65-3.75,21.07-11.57,30.99-13.38,2.19-.4,21.79-1.75,22.89-1.41l-.35,1.41Z"/>
            <path class="cls-13" d="M278.43,341.9c.61-2,.89-5.58-2.11-4.93,3.43-32.92-.81-75.79-.7-109.86,0-.46,0-.94,0-1.41.11-39.38,3.45-83.68.7-122.54-.18-2.53.28-6.05-.7-8.45l1.41-.7c.18.29,2.68,1.83,2.82,2.46v242.25l-1.41,3.17Z"/>
            <path class="cls-25" d="M29.14,240.49c.05,8.44-.09,16.91,0,25.35.22,20.7.08,41.28,0,61.97,0,2.57-.08,5.18,0,7.75.13,4.32-.68,9.27.7,13.38,2.96,3.27,7.06-10.56,13.38-1.76,8.4,11.7-4.83,7.79-7.75,12.68-3.58,5.99.69,9.85.7,10.56,0,.37-4.64,4.36-5.28,5.28-1.21-12.61-.7-18.06-5.99-29.58l2.11.35c-1.05-.76-.73-2.04-.7-3.17.09-4.21,0-8.47,0-12.68.05-24.56-2.94-60.78,0-83.8.13-1,1.79-7.02,2.82-6.34Z"/>
            <path class="cls-13" d="M208.71,24.3c-4.57,1.46,3.37,3.32,2.82,6.34l-4.58-4.23c-33.46,1.1-66.9.79-100.35,0-3.79-.09-9.06-.41-12.68,0-.75.08-1.02,1.04-2.11.7,4.2-3.13,7.44-.81,7.75-4.23,34.79-2.42,72.31,1.81,107.39,0,.49.22,1.66,1.36,1.76,1.41Z"/>
            <path class="cls-38" d="M271.39,119.37c0,.47,0,.94,0,1.41l-2.82,1.76c.16,27.45,1.9,55.36,1.41,82.75-1.09.52-2.3,1.89-3.52,2.11l-.35-17.61c-7.69,2.54-15.75,3.74-23.59,5.63h-1.41l14.79-4.93c1.55-.36,10.24-1.87,10.56-2.46.09-5.75-.13-11.52,0-17.25.02-.76-.01-1.45,0-2.11.25-14.8.47-29.58-.35-44.37-10.99,9.2-22.8,17.36-34.15,26.06l-.7-.7c.14-.15,1.14-1.45,0-1.41,4.1-2.66,34.41-23.68,35.21-25.7.96-2.43-.98-9.96.35-13.03,3.92,1.83.81,9.16,4.58,9.86Z"/>
            <path class="cls-13" d="M137.59,308.1c-.23,4.18-2.17,8.73-.7,12.68-.15,1.2-.63,1.67-.7,2.82-.02.23,0,.47,0,.7.25,1.42-.55,2.16-.7,3.52-.03.23.02.47,0,.7-.11,1.15.07,2.36,0,3.52-.01.05-.37-.27-.7.7s.22,3.03,0,4.23c-2.56.38-2.21-.62-2.11-2.82.71-14.62.07-29.68,0-44.37-.01-2.32.04-4.45.7-6.69l-2.11,4.58c-.02-.08-1.09.04-.7-1.41,1.72-7.22,2.3-14.6,3.87-21.83l1.41,16.9c1.25.24.5-22.52.35-25-.17-2.84-.98-20.16-1.41-21.13-1.61-3.67-5.76.88-7.04,1.76v-.7l.35-1.41c-1.1-.34-20.7,1.01-22.89,1.41v-1.41c9.9-1.91,20.28-1.13,30.28-1.76,2.06,24.33,3.43,50.56,2.11,75Z"/>
            <path class="cls-13" d="M273.5,100.35c.3,3.01.46,6.13.7,9.15-1.05,29.7-.13,62.29,0,92.25l-2.82,1.41c-.16-27.49-.4-54.85,0-82.39,0-.47,0-.94,0-1.41.1-6.31.08-12.7,0-19.01h2.11Z"/>
            <path class="cls-13" d="M278.43,341.9c-1.27,4.19-8.16,9.49-9.15,15.14-.57,3.23.94,18.67-1.06,20.07-8.35-8.36-4.01-4.35-3.17-8.1,4.26-18.97-19.92-6.62-9.15-21.83,6.71-9.48,12,2.56,13.03,2.46.57-.05,1.77-2.9,2.46-3.52,1.28-1.15,2.69-1.89,3.52-3.52,1.57-3.07,1.07-2.38,1.41-5.63,3-.65,2.72,2.93,2.11,4.93Z"/>
            <path class="cls-13" d="M99.56,22.89c-.31,3.41-3.55,1.09-7.75,4.23-8.36,6.24,3.18,5.52,2.11,13.03-.28,1.96-6.15,8.39-8.1,8.1-2.16-.33-7.97-12.67-10.56-14.08-2.18-1.19-9.07-.72-10.92-4.58,1.03-1.33,17.8.51,20.77-.35,4.79-1.39,1.44-5.43,14.44-6.34Z"/>
            <path class="cls-13" d="M211.53,30.63c.55-3.02-7.39-4.88-2.82-6.34,2.94,1.26,5.03,4.95,8.1,5.63,2.24.5,17.64-1.99,17.96.35-5.59,4.58-9.69,2.13-14.79,8.45-3.67,4.55-2.48,12.12-10.92,7.39-10.79-6.05,1.93-12.58,2.46-15.49Z"/>
            <path class="cls-38" d="M32.66,244.01l.7,89.08c-3.45-1.96.1-9.85-2.11-13.38l-2.11,8.1c.08-20.69.22-41.27,0-61.97,1.8-.92,2.03-7.69,2.11-9.51.22-4.54,0-9.19,0-13.73l1.41,1.41Z"/>
            <path class="cls-42" d="M106.6,26.41c.11,2.35,6.19,2.69,8.1,2.82,21.64,1.49,48.39.43,70.42,0,2.23-.04,16.16-1.82,16.9-1.41.62.35-.54,3.44-.7,3.52-2.73,1.38-54.1.87-61.27.7-5.04-.12-37.58-.74-39.44-1.41-1.62-.58-1.63-4.62-6.69-4.23,3.62-.41,8.89-.09,12.68,0Z"/>
            <path class="cls-13" d="M268.57,70.77c-.77,11.98,3.05,14.45,8.45,23.24l-1.41.7c-.1-.25-3.62-3.19-4.23-3.52-5.58-3.04-4.7,4.11-8.1,4.93-4.92,1.18-12.38-10.28-7.75-12.68.16-.08,1.4,1.55,3.52,0,4.23-3.09,6.25-6.59,5.99-11.97l3.52-.7Z"/>
            <path class="cls-45" d="M206.6,414.44c-.82.86-1.42,2.11-2.46,2.82h-110.56c-1.16-.38-.98-2.03-1.06-2.11,2.03,2.41,3.27.73,4.23.7,15.8-.38,31.2-.65,47.18-.7,7.97-.03,15.97.06,23.94,0,3.31-.03,31.47.56,31.69-1.06-4.15-2.69-12.81,2.62-15.49-2.46,3.89.08,23.96-1.95,17.25,4.23l5.28-1.41Z"/>
            <path class="cls-13" d="M134.77,108.1c.02.23-.02.47,0,.7,1.61,20.54,4.16,67.12,0,85.92-.42.04-1.38-.06-1.41,0-.42-14.15,1.19-28.51-1.41-42.25.81.12.61-.56.7-.7,1.38-2.08.69-16.13.7-19.72.02-7.7.51-16.38,0-23.94h1.41Z"/>
            <path class="cls-13" d="M38.29,70.77c10.45,1.95,21.54,3.88,28.87-6.69,5.94-8.55,3.23-16.53,1.06-25.7,17.41,19.44-8.43,49.58-29.93,32.39Z"/>
            <path class="cls-13" d="M230.9,39.08l-2.46,15.14c3.15,15.75,18.46,21.25,32.75,16.55-19.41,16.7-47.17-12.08-30.28-31.69Z"/>
            <path class="cls-19" d="M143.92,411.62v3.52c-15.98.06-31.38.32-47.18.7.43-7.28,12.42-2.68,17.96-2.82,9.72-.24,19.45-1.29,29.23-1.41Z"/>
            <path class="cls-38" d="M85.47,117.96c.29,3.96,5.1,10.15,8.45,11.97,1.95,2.89,4.41,5.48,6.34,8.45-2.18-.34-1.21,1.61-.7,2.46,4.06,6.83,9.85,17.55,14.08,23.59-11.57-14.11-20.37-30.44-30.28-45.77l.7-2.11c.07.1.83.59,1.41,1.41Z"/>
            <path class="cls-15" d="M269.28,287.68c.18,11.97-.03,23.96.7,35.92l-3.52-1.41c-.62-6.19.4-8.47-3.52-12.68l.7-.7c.72.39,2.26,2.16,2.82,1.06l.7-22.18c.37.18,1.49-.11,2.11,0Z"/>
            <path class="cls-8" d="M78.43,262.32c-8.73,5.04-17.8,9.46-26.76,14.08l-.7-.7c20.54-10.72,40.22-25.19,61.27-33.45-11.93,5.21-22.63,13.62-33.8,20.07Z"/>
            <path class="cls-4" d="M170.69,411.62c-.03,2.8-3.64-.06-2.82,3.52-7.97.06-15.97-.03-23.94,0v-3.52c8.9-.1,17.86-.09,26.76,0Z"/>
            <path class="cls-42" d="M165.76,332.75l2.11-1.41c2.36,14.72,6.14,29.59,6.69,44.37-3.2-14.2-6.55-28.58-8.8-42.96Z"/>
            <path class="cls-38" d="M70.69,127.82c2.86,7.48,11.39,13.24,16.9,19.72,4.18,4.91,8.02,10.38,11.97,15.49-2.26-.27-4.91-3.63-6.34-5.28-8.43-9.74-16.68-19.72-25.35-29.23l2.11-1.41c.21.22.46.45.7.7Z"/>
            <path class="cls-42" d="M134.77,108.1h-1.41c-.92-13.55-6.08-27.82-4.58-41.55,2.36,13.78,4.86,27.58,5.99,41.55Z"/>
            <path class="cls-35" d="M184.07,411.62c2.68,5.09,11.34-.23,15.49,2.46-.22,1.62-28.38,1.03-31.69,1.06-.82-3.58,2.78-.72,2.82-3.52,4.45.04,8.93-.1,13.38,0Z"/>
            <path class="cls-42" d="M134.77,336.97c-3.06,13.03-2.37,27.95-6.34,40.49.23-14.48,3.53-28.96,4.23-43.31-.09,2.2-.45,3.2,2.11,2.82Z"/>
            <path class="cls-38" d="M273.5,320.77c-.02,6.93.51,15.3,1.41,21.83-.84,1.63-2.24,2.37-3.52,3.52-.17-4.2.23-8.48,0-12.68-.12-2.15-.57-4.33-.7-6.34-.04-1.74.63-4.28.7-5.63l2.11-.7Z"/>
            <path class="cls-42" d="M84.07,116.55l-.7,2.11c-6.93-10.72-14.92-20.83-21.13-32.04,8.55,8.93,14.71,19.92,21.83,29.93Z"/>
            <path class="cls-42" d="M69.98,127.11l-2.11,1.41c-6.5-7.12-13.59-16.02-20.42-22.54l.7-.7c7.38,7.23,14.7,14.35,21.83,21.83Z"/>
            <path class="cls-42" d="M82.66,321.48c-6.29,9.04-11.75,19.65-19.72,27.11,5.99-9.57,11.91-19.23,18.31-28.52l1.41,1.41Z"/>
            <path class="cls-41" d="M269.98,323.59c.09,1.41.68,3.21.7,3.52.14,2.01.59,4.19.7,6.34l-4.93,1.06c-.29-4,.39-8.39,0-12.32l3.52,1.41Z"/>
            <path class="cls-22" d="M88.29,146.83l-.7.7c-5.51-6.48-14.05-12.24-16.9-19.72,6.04,6.38,11.91,12.25,17.61,19.01Z"/>
            <path class="cls-36" d="M275.61,94.72c.98,2.4.53,5.92.7,8.45-1.61-.09-2.05,4.65-2.11,6.34-.24-3.02-.4-6.14-.7-9.15-.19-1.95.14-4.01,0-5.99-1.47-1.84-1.19-.61-2.11,1.06-.03-.98-.74-2.71,0-4.23.61.33,4.12,3.27,4.23,3.52Z"/>
            <path class="cls-33" d="M268.57,70.77l-3.52.7c-.06-1.2.07-1.75-.7-2.82,7.06-1.85,2.29-7.88,7.75-12.68-.41,4.95-3.21,9.9-3.52,14.79Z"/>
            <path class="cls-42" d="M43.92,278.52l1.41,1.41c-.7.34-11.49,7.24-11.27,4.58,2.63-3,6.45-4.24,9.86-5.99Z"/>
            <path class="cls-28" d="M132.66,151.76l-2.82-11.97c.8,1.71,1.88,3.63,2.82,5.28l.7-13.03c-.01,3.59.67,17.64-.7,19.72Z"/>
            <path class="cls-31" d="M93.92,129.93c-3.35-1.82-8.16-8.01-8.45-11.97,2.84,4.02,5.68,7.86,8.45,11.97Z"/>
            <path class="cls-38" d="M36.18,68.66c-.25,1.75.87,1.12,2.11,2.11-1.66-.31-3.45.09-4.93,0-1.29-.08-1.65-.77-2.82-.7-.08-2.52-1.38-6.21-.7-9.15,1.34,3.21.99,5.74,1.41,6.69.81,1.82,3.61.71,4.93,1.06Z"/>
            <path class="cls-28" d="M48.15,105.28l-.7.7c-3.41-3.25-6.79-6.31-10.56-9.15,1.12.2,1.92-.12,2.82-.7,2.2,3.19,5.65,6.41,8.45,9.15Z"/>
            <path class="cls-15" d="M87.59,289.08c3.22-3.54,6.7-7.01,9.86-10.56-.38,4.13-6.41,8.27-9.86,10.56Z"/>
            <path class="cls-12" d="M22.09,339.79c0,1.72,1.97,1.98,2.11,2.11,1.04.99.19,2.86,2.11,1.41-.02,1.13-.35,2.41.7,3.17l-2.11-.35c-.51-1.11-6.26-6.35-2.82-6.34Z"/>
            <path class="cls-3" d="M139,309.51c-.23.94-.48,1.85-.7,2.82-.6,2.56-1.07,5.81-1.41,8.45-1.47-3.95.48-8.5.7-12.68l1.41,1.41Z"/>
            <path class="cls-42" d="M273.5,100.35h-2.11c-.02-1.63.05-3.3,0-4.93.92-1.67.64-2.9,2.11-1.06.14,1.97-.19,4.03,0,5.99Z"/>
            <path class="cls-7" d="M51.67,276.41c-2.12,1.09-4.16,2.45-6.34,3.52l-1.41-1.41c1.1-.56,2.37-1.52,3.52-2.11.43-.22,1.92.13,3.52-.7l.7.7Z"/>
            <path class="cls-36" d="M136.18,323.59c.08-1.15.55-1.62.7-2.82.34-2.64.8-5.89,1.41-8.45,1.03,2.55,0,9.44-2.11,11.27Z"/>
            <path class="cls-28" d="M70.69,237.68c-3.84.89-7.27,2.04-11.27,2.82l11.27-2.82Z"/>
            <path class="cls-38" d="M29.84,348.94c-1.38-4.11-.57-9.06-.7-13.38l.7,13.38Z"/>
            <path class="cls-38" d="M132.66,289.79l-1.41-.7c-.05-.45.1-1.05,0-1.41l2.11-4.58c-.67,2.24-.72,4.37-.7,6.69Z"/>
            <path class="cls-28" d="M135.47,327.82c.15-1.36.96-2.1.7-3.52,0,.23,2.3,3.9-.7,3.52Z"/>
            <path class="cls-28" d="M165.76,317.96c-.03-1.4.02-2.82,0-4.23.14.73,1.89,3.32,0,4.23Z"/>
            <path class="cls-28" d="M134.77,336.97c.22-1.2-.32-3.27,0-4.23,1.85.94.2,3.36,0,4.23Z"/>
            <path class="cls-36" d="M135.47,332.04c.07-1.16-.11-2.37,0-3.52,1.86.76.16,2.92,0,3.52Z"/>
            <path class="cls-47" d="M31.25,93.31c1.93,1.54,4.36,2.56,5.63,3.52,3.78,2.85,7.16,5.9,10.56,9.15,6.83,6.52,13.93,15.42,20.42,22.54,8.68,9.51,16.93,19.49,25.35,29.23,1.43,1.65,4.07,5.01,6.34,5.28.7.91.65,2.5,2.11,2.82l6.69,9.15-29.23-19.01c-.52-.46-.97-1.03-1.41-1.41-10.87-9.43-30.62-24.63-42.61-32.39-1.08-.7-2.93-2.74-3.87-1.06l59.86,48.94c1.67,1.82,3.34,3.74,4.93,5.63,1.78,2.12,3.62,4.09,5.63,5.99l-1.76.35-36.27-18.31c-1.37-.85-2.29-1.8-2.82-2.11-5.6-3.37-17.91-10.63-23.59-12.68-.84-.3-1.88-1.48-3.17-.35,8.7,5.25,17.13,10.98,26.06,15.85,1.11.6,1.82,1.25,2.11,1.41l29.58,20.77c-.78,1.1-1.23,1.04-2.46,1.06-5.45.07-26.35-8.98-33.45-11.27-5.15-1.66-10.3-3.42-15.49-4.93-2.34-1.31-4.57-2.48-7.04-3.52-.32-13.23-.28-26.59-1.41-39.79-.14,10.56.19,21.13,0,31.69,0,.53-1.4.17-1.41.7,0,.26,1.41,1.15,1.41,1.41-.23,14.76-1.29,29.57-.7,44.37l-1.41-3.17-.7-93.66c.35-4.88-1.19-14.06,2.11-16.2Z"/>
            <path class="cls-47" d="M266.46,168.66l-63.03,20.42c1.92-7.85,14.29-9.76,19.37-15.49,6.73-3.42,13.12-7.61,19.72-11.27,4.14-2.29,19.79-9.66,22.18-11.97.31-.3,1.53-2.56.7-2.82-7.8,4.92-16,9.38-24.3,13.38-15.49,7.47-31.81,13.35-46.83,21.83l12.32-12.68c8.3-6.74,16.87-13.22,25.35-19.72,11.36-8.7,23.17-16.86,34.15-26.06.83,14.78.6,29.57.35,44.37Z"/>
            <path class="cls-20" d="M218.57,261.62c3.3,2.03,7.14,3.21,10.56,4.93,12.85,6.45,25.15,14.81,38.03,21.13l-.7,22.18c-.56,1.1-2.09-.66-2.82-1.06-11.92-6.48-46.87-35.63-58.8-45.77-5.32-4.52-10.24-9.48-15.14-14.44l28.87,13.03Z"/>
            <path class="cls-47" d="M271.39,120.77c-.4,27.54-.16,54.9,0,82.39.01,1.85,0,3.77,0,5.63.01,5.33.1,10.83-.35,16.2-1.62,1.15-9.57-1.49-11.62-1.76-1.33-.18-.42,1.13-1.06,1.06-.25-.03-2.01-1.83-4.58-2.11-14.8-1.66-32.33-3.09-47.18-2.82,2.35-2.28,5.49-2.68,8.45-3.52,12.79-3.62,24.71-5.66,38.03-6.34,3.54-.18,9.87-1.53,13.03-.7,1.32.34,3.64,9.49,3.87-3.52.49-27.39-1.25-55.3-1.41-82.75l2.82-1.76Z"/>
            <path class="cls-47" d="M266.46,170.77c-.13,5.74.09,11.51,0,17.25-.32.59-9.01,2.1-10.56,2.46-18.58,4.35-38.23,7.46-57.04,9.51l8.45-6.69c15.43-4.21,30.21-11.83,45.07-17.61,4.72-1.63,9.25-3.85,14.08-4.93Z"/>
            <path class="cls-47" d="M271.39,227.82c-.38,1.2.2,4.03,0,5.63-.3,2.43-1.08,8.53-.7,10.56l-66.9-17.96,67.61,1.76Z"/>
            <path class="cls-47" d="M266.46,207.39c-2.8.5-9.94.55-13.38.7-2.33.1-4.71-.06-7.04,0-15.44.39-31.08-.54-46.48,0v-.7c4.6.38,35.46-10.16,42.96-11.97s15.9-3.09,23.59-5.63l.35,17.61Z"/>
            <path class="cls-47" d="M43.92,209.51c4.71.44,9.39.94,14.08,1.41,3.28.33,6.55.32,9.86.7.63.07,2.22.54,3.52.7.23.03.47-.03.7,0,5.33,1.55,10.56,4.02,16.2,3.52h.7c.11.16,3.21-.28,0,2.11-5.99.53-11.72,1.86-17.61,2.82l-41.2,4.23c-3.28-1.07-1.27-13.8-1.06-16.9,4.9-.06,9.89.95,14.79,1.41Z"/>
            <path class="cls-47" d="M86.18,204.58c3.1.9,9.61,1.88,11.27,4.93-.57,0-2.25-1.81-2.82,0-14.68-.53-29.65-1.38-44.37-2.11-2.09-.1-4.26.16-6.34,0-15.37-1.22-11.96-2.28-10.21-17.61,17.46,5.02,35.03,9.7,52.46,14.79Z"/>
            <path class="cls-47" d="M58.71,192.61c-4.66-1.18-10.37-1.6-15.49-2.82-1.47-.35-9.5-1.26-9.86-1.76-.93-5.55.23-10.99,0-16.55,15.92,3.98,29.96,13.45,44.72,19.72,4.5,1.91,11.42,1.39,14.08,5.63-11.46,1.13-22.13-3.37-33.45-4.23Z"/>
            <path class="cls-47" d="M31.25,237.68c-1.2,1.96-.31,3.08-1.06,4.93l-1.06-4.93c-.04-3.49-.23-7.12,0-10.56,10.41,1.25,27.73-1.93,38.38-2.11,8.91-.15,18.13,1.68,27.11.35l-60.92,17.25-.35-5.99c-.85-1.01-1.78.52-2.11,1.06Z"/>
            <path class="cls-4" d="M29.84,203.17c-.54.04-1.41,2.66-1.41,2.82l-2.11-1.41c.55-24.6-1.25-50.24,0-74.65.29-5.77,2.34-13.77,2.82-20.42l.7,93.66Z"/>
            <path class="cls-42" d="M33.36,167.96c.03,1.14-.05,2.21,0,3.52.23,5.56-.93,11,0,16.55.35.5,8.39,1.41,9.86,1.76-1.42,1.33,1.09,1.94,1.76,2.11,12.04,3.03,22.91,4.68,34.86,9.15,2.34.88,4.6,1.47,6.34,3.52-17.43-5.09-35-9.77-52.46-14.79-1.75,15.32-5.16,16.39,10.21,17.61v2.11c-4.9-.46-9.89-1.47-14.79-1.41.14-2.11-.7-2-.7-2.11,0-.16.87-2.77,1.41-2.82l1.41,3.17c-.59-14.8.47-29.61.7-44.37,0-.26-1.41-1.15-1.41-1.41,0-.53,1.4-.17,1.41-.7.19-10.56-.14-21.13,0-31.69,1.13,13.2,1.09,26.56,1.41,39.79Z"/>
            <path class="cls-14" d="M275.61,227.11c-.1,34.07,4.13,76.94.7,109.86-.34,3.26.16,2.56-1.41,5.63-.9-6.53-1.43-14.91-1.41-21.83.08-25.07.7-50.24.7-75.35v-18.31c.16.11.97-.06,1.41,0Z"/>
            <path class="cls-47" d="M276.32,103.17c2.74,38.85-.59,83.16-.7,122.54-2.45-6.6-1.37-14.68-1.41-21.83,0-.7,0-1.41,0-2.11-.13-29.96-1.05-62.55,0-92.25.06-1.69.5-6.43,2.11-6.34Z"/>
            <path class="cls-31" d="M253.78,222.18l-73.59,2.82-1.41-4.23c9.18,1.26,19.08-1.25,27.82-1.41,14.85-.27,32.38,1.16,47.18,2.82Z"/>
            <path class="cls-47" d="M26.32,129.93c-1.25,24.41.55,50.04,0,74.65-.16,7-1.29,14.07-.7,21.13h-.7c.01-43.37-.49-86.87,0-130.28l1.41,34.51Z"/>
            <path class="cls-43" d="M270.69,244.72c.1.13-.24.5.7.7-3.05,24.68,1.36,51.67,0,76.06-.08,1.35-.74,3.9-.7,5.63-.02-.31-.62-2.11-.7-3.52-.73-11.96-.52-23.94-.7-35.92-.21-13.55-.63-27.33-.35-40.85.03-1.53-.31-2.17,1.76-2.11Z"/>
            <path class="cls-35" d="M25.61,225.7c2.22-1,3.33,1.39,3.52,1.41-.23,3.44-.04,7.07,0,10.56,0,.93,0,1.88,0,2.82-1.03-.68-2.69,5.34-2.82,6.34l-1.41-20.42c0-.23,0-.47,0-.7h.7Z"/>
            <path class="cls-43" d="M31.25,237.68v4.93c0,4.54.22,9.2,0,13.73-.09,1.82-.32,8.59-2.11,9.51-.09-8.44.05-16.91,0-25.35,0-.93,0-1.88,0-2.82l1.06,4.93c.74-1.85-.14-2.97,1.06-4.93Z"/>
            <path class="cls-27" d="M58.71,192.61c5.87,1.49,16.48,5.42,21.13,8.45-11.95-4.47-22.81-6.12-34.86-9.15-.67-.17-3.18-.79-1.76-2.11,5.12,1.22,10.83,1.64,15.49,2.82Z"/>
            <path class="cls-4" d="M274.21,232.04v13.38c-.89-.12-1.97.18-2.82,0-.94-.2-.6-.57-.7-.7-.02-.03.18.28,0-.7-.38-2.03.41-8.13.7-10.56l2.82-1.41Z"/>
            <path class="cls-16" d="M50.26,207.39c2.23,2.04,5.17,1.17,7.75,1.41v2.11c-4.69-.47-9.37-.97-14.08-1.41v-2.11c2.08.16,4.25-.1,6.34,0Z"/>
            <path class="cls-35" d="M274.21,227.11v4.93l-2.82,1.41c.2-1.6-.38-4.43,0-5.63,1.04-3.29,1.9-1.35,2.82-.7Z"/>
            <path class="cls-19" d="M274.21,201.76c0,.7,0,1.41,0,2.11-3.96-.67-.35,3.05-2.82,4.93,0-1.87.01-3.78,0-5.63l2.82-1.41Z"/>
            <g>
              <path class="cls-42" d="M165.05,123.59c-1.21-.5-1.96,1.82-2.11,2.46-1.76,7.58-4.05,21.46-4.93,29.23-1.22,10.83-1.84,21.52-.35,32.39,1.12-10.69.51-20.93,1.76-31.69.39-3.39,1.62-6.87,2.11-10.56l2.82,3.17c13.4-27.07,21.29-56.75,33.45-84.15-3.05,13.3-8.43,26.96-13.03,40.14-7.19,20.63-13.76,40.18-19.72,61.27-1.35,4.79-3.38,9.05-4.23,14.08-.02.13-1.35,1.07-.7,2.46.6.72,1.2-1.36,1.41-1.76,1.86-3.65,2.95-9.94,4.23-14.08,2.47-8.04,5.24-15.96,7.75-23.94,2.72,2.64-2.65,12.28,2.11,8.8l44.72-78.52c1.66-.14-.1,2.53-.35,3.17-6.3,15.76-19.91,38.47-28.17,54.58-4.63,4.12-7.68,11.31-10.56,16.9-1.31,2.54-2.31,5.18-3.52,7.75-.66,1.41-6.1,10.07-4.58,10.56,1.7-2.57,3.07-5.64,4.58-8.45,2.64,3.94,5.03-3.39,5.99-4.23.15-.13,1.56,1.22,3.87-1.06,18.73-18.44,34.39-46.85,52.46-66.55l1.76.35c-9.46,12.22-19.08,24.49-28.17,36.97-16.36,18.92-29.55,40.3-45.07,59.86-2.22,2.79-5.17,5-7.04,8.1l7.75-7.39c11.53-13.72,21.76-28.54,32.39-42.96,2.23,1.3.8,2.94,0,4.58-2.87,5.9-10.14,10.86-12.68,15.49-.45.82-1.75,1.5.35,1.76l71.83-64.79c1.68-.08-1.62,3.71-1.76,3.87-11.05,12.39-25.07,24.16-36.62,36.27-15.68,12.8-28.28,28.89-41.55,44.01l15.49-15.14c-.46,2.58,3.56.2,3.87,0,10.04-6.37,20.64-11.83,30.63-18.31,1.14-.04.14,1.26,0,1.41-7.23,7.39-19.46,11.32-24.65,20.42l-12.32,12.68c15.02-8.48,31.34-14.36,46.83-21.83-1.76.54-13.11,8.93-16.55,10.56-2.07.98-5.76,1.26-8.8,2.82-.86.44-2.36.82-3.52,1.41-6.51,3.31-15.54,7.98-20.07,13.38,7-3.96,13.57-9.12,20.77-12.68.93-.46,1.89-.95,2.82-1.41.78-.39,5.85-.8,7.04-1.41-5.08,5.74-17.45,7.64-19.37,15.49l63.03-20.42c-.01.66.02,1.35,0,2.11-4.84,1.08-9.36,3.3-14.08,4.93-2.68.92-5.29,1.8-8.1,2.82-13.85,5.01-28.94,9.95-41.55,16.2,1.59.1,3.17-1.02,4.58-1.41l-8.45,6.69c18.81-2.05,38.46-5.16,57.04-9.51l-14.79,4.93c-8.54,0-33.11,8.21-42.25,11.27-.9.3-6.71.98-6.34,2.46,2.45.07,4.47-.97,7.04-1.06,15.4-.54,31.04.39,46.48,0l-30.99,7.75c-2.96.84-6.1,1.24-8.45,3.52-8.74.16-18.63,2.67-27.82,1.41l1.41,4.23,73.59-2.82c2.57.29,4.33,2.08,4.58,2.11.64.08-.28-1.23,1.06-1.06,2.05.27,10,2.91,11.62,1.76.45-5.37.36-10.86.35-16.2,2.47-1.88-1.14-5.6,2.82-4.93.04,7.15-1.04,15.23,1.41,21.83,0,.46,0,.94,0,1.41-.44-.06-1.25.11-1.41,0-.92-.65-1.78-2.59-2.82.7l-67.61-1.76,66.9,17.96c.18.99-.02.68,0,.7-2.07-.06-1.73.59-1.76,2.11-.27,13.52.15,27.3.35,40.85-.62-.11-1.74.18-2.11,0-12.88-6.32-25.18-14.68-38.03-21.13l-8.1-5.63-2.46.7-28.87-13.03c4.9,4.96,9.83,9.92,15.14,14.44,11.94,10.15,46.88,39.29,58.8,45.77l-.7.7c-7.39-7.94-35.06-26.12-45.42-33.1-9.66-6.51-20.01-12.21-29.93-18.31-5.04-5.97-10.91-11.5-15.85-17.61-.71.21.11,2,.35,2.46,2.89,5.39,20.32,25.44,25.35,30.99,4.39,4.83,9.36,9.61,14.44,13.73-3.47-5.68-8.81-9.75-13.03-14.79l60.92,64.08c-23.93-22.6-45.54-49.55-73.59-66.9-.14-.17-3.06-4.63-3.52-2.46,2.85,4.12,6.37,8.23,9.15,12.32,16.46,24.21,33.21,48.2,50,72.18,0,2.08-1.83-.4-2.11-.7-11.98-13.11-26.78-35.43-38.03-50.35-4.51-5.98-7.99-12.89-14.08-17.61-.95-1.17-6.62-9.76-7.75-5.63-1.84-3.47-4.34-7.09-6.34-10.56-.75-1.3-1.13-3.76-2.46-4.23-.92,1.46,1.39,3.34,1.76,4.23,6.68,16,15.55,31.62,23.24,47.18,6.67,13.49,14.05,26.88,20.42,40.49.23.49,5.62,12.49,2.82,9.15l-47.89-85.56c-.68-2.81-1.38-5.65-2.11-8.45-1-3.85-1.57-8.26-2.82-11.97-.14-.41-.81-3.05-1.41-2.46-.69,1.26.68,3.01.7,3.17.63,4.19,1.93,7.91,2.82,11.97,4.06,18.59,7.69,33.27,13.38,51.41,3.08,9.81,10.42,25.49,11.97,34.86.24,1.44,1.22,2.96-1.06,3.17-1.28-3.51-26.52-79.99-28.52-76.41,1.56,7.11,2.17,14.47,0,21.48-1.41-9.63-2.6-19.28-4.23-28.87-.95-5.62-1.74-11.38-3.17-16.9-.71,6.02,1.69,11.81,2.46,17.61,1.95,14.6,2.18,31.19,4.23,45.07l-7.75-36.97-4.23,22.89c-.13-5.44-1.17-10.81-1.41-16.2-.38-8.65.57-17.41-.35-26.06-1.32,8.86-1.21,17.84-1.06,26.76.25,14.77.8,29.2.7,44.01-.01,2.04-.47,2.77,2.11,2.46.02,8.6.82,17.1.7,25.7-1.41,1.36-2.07-3.91-2.11-4.23-2.57-20.69-2.92-45.32-4.23-66.55,2.11.31,1.37-1.88,1.41-3.17.18-6.29-.11-15.76-2.82-21.13,1.72,7.55.93,15.31,1.41,22.89-2.85-3.67-3.73,9.27-4.23,10.92-.54,1.81-2.44,4.47-2.82,5.99l-1.41-1.41c1.32-24.44-.06-50.67-2.11-75-10.01.63-20.38-.15-30.28,1.76-8.98,1.73-15.34,7.24-23.59,10.56-11.61,4.67-23.73,8.35-34.86,14.08-3.66,1.19-7.28,2.91-10.92,4.23-2.05-.09-2.41-2.47-.7-3.52,18.27-6.58,37.35-14.32,54.23-22.54l-17.25-.7c3.28-.83,7.89.02,10.92-2.11-12.95.87-26.18,3.33-38.38,7.75-3.96.73-7.98,3.05-11.97,1.41l-1.41-1.41v-4.93c.33-.54,1.27-2.07,2.11-1.06l.35,5.99,60.92-17.25c-8.98,1.33-18.21-.5-27.11-.35-10.65.18-27.97,3.36-38.38,2.11-.19-.02-1.31-2.41-3.52-1.41-.59-7.06.55-14.13.7-21.13l2.11,1.41c0,.11.85,0,.7,2.11-.21,3.1-2.23,15.83,1.06,16.9l41.2-4.23c-2.89.47-19.96,2.86-20.77,3.52s-.43,1.6.7,1.41l80.99-7.75c-14.29-1.06-29.03-1.26-43.31,0,3.21-2.39.11-1.95,0-2.11-.31-.47,1.12-.82.35-1.41-1.15-.88-4-.97-5.28-1.41-8.34-2.85-17.3-3.42-26.06-4.23-2.58-.24-5.51.63-7.75-1.41,14.71.73,29.68,1.58,44.37,2.11s30.48,1.91,45.42-.7c2.65,1.74-2.51,2.63-1.41,4.93l4.58-5.28c-1.23-3.22-40.23,1-45.77,1.06-1.65-3.05-8.17-4.02-11.27-4.93-1.74-2.05-4-2.64-6.34-3.52-4.65-3.03-15.26-6.97-21.13-8.45,11.32.85,21.99,5.35,33.45,4.23-2.67-4.24-9.59-3.72-14.08-5.63-14.76-6.27-28.8-15.74-44.72-19.72-.05-1.31.03-2.38,0-3.52,2.48,1.04,4.7,2.21,7.04,3.52,15.12,8.48,34.38,13.12,48.94,20.42,3.55,1.78,5.25,6.16,5.63,6.34,1.13.5,15.14-.05,17.96,0,6.91.12,13.85-.09,20.77,0,1.63-.98.79-2.3,1.06-3.52,4.16-18.79,1.61-65.37,0-85.92l10.21,42.25c.75-13.51,2.99-27.01,3.87-40.49.75-11.34-.49-24.87.7-35.92.04-.36.63-6.2,2.11-4.93-.05,11.38.06,22.78,0,34.15-1.44-.64-1.42,1.97-1.41,2.46.25,18.08-.94,38.43,0,54.93l.7,8.45c-.22-4.96,2.21-11.64,2.11-16.2,0-.23-2.1-.72-2.11-1.41-.23-11.19.71-22.34.7-33.45,1.28,2.58,1.84,26.9,3.87,26.76l1.06-1.76,17.96-84.15c-2.18,21.5-6.33,42.73-9.51,64.08Z"/>
              <g>
                <path class="cls-8" d="M213.64,122.89c-4.14,5.69-7.79,11.94-11.97,17.61-10.63,14.41-20.86,29.23-32.39,42.96l-.7-.7c15.52-19.56,28.71-40.94,45.07-59.86Z"/>
                <path class="cls-22" d="M164.35,305.28c.41,2.79.88,5.67,1.41,8.45.02,1.4-.03,2.82,0,4.23.08,3.99,1.45,9.27,2.11,13.38l-2.11,1.41c-.56-3.54-1.6-7.1-2.11-10.56-2.05-13.88-2.27-30.47-4.23-45.07l.7-.7c1.63,9.59,2.82,19.25,4.23,28.87Z"/>
                <path class="cls-8" d="M187.59,258.1c4.01,4.75,7.27,10.01,11.27,14.79,4.22,5.04,9.56,9.11,13.03,14.79-5.08-4.12-10.05-8.9-14.44-13.73-5.03-5.55-22.46-25.59-25.35-30.99-.25-.46-1.06-2.25-.35-2.46,4.94,6.1,10.81,11.64,15.85,17.61Z"/>
                <path class="cls-22" d="M173.5,142.61c-2.51,7.99-5.28,15.9-7.75,23.94l-.7-.7c5.96-21.08,12.53-40.63,19.72-61.27-3.36,12.78-7.31,25.43-11.27,38.03Z"/>
                <path class="cls-2" d="M151.67,103.87c-.03,4.92,0,9.87,0,14.79,0,11.12-.93,22.26-.7,33.45.01.69,2.11,1.18,2.11,1.41.1,4.56-2.33,11.23-2.11,16.2l-.7-8.45c-.94-16.5.25-36.85,0-54.93,0-.5-.03-3.11,1.41-2.46Z"/>
                <path class="cls-8" d="M222.8,137.68c-8.93,9.36-17.96,18.76-26.06,28.87l-15.49,15.14c13.26-15.12,25.87-31.21,41.55-44.01Z"/>
                <path class="cls-22" d="M151.67,308.1c.26,10.31-.03,20.65,0,30.99-2.58.3-2.13-.42-2.11-2.46.1-14.82-.45-29.25-.7-44.01l1.41-.7c.24,5.38,1.27,10.76,1.41,16.2Z"/>
                <path class="cls-29" d="M105.19,234.86v1.41c-9.92,1.81-21.34,9.63-30.99,13.38-9.09,3.53-18.19,6.84-27.46,9.86,11.13-5.73,23.25-9.42,34.86-14.08,8.26-3.32,14.61-8.83,23.59-10.56Z"/>
                <path class="cls-6" d="M171.39,278.52c3.51,14.55,6.39,29.27,10.56,43.66-5.69-18.14-9.32-32.82-13.38-51.41l.7-.7c.73,2.8,1.43,5.64,2.11,8.45Z"/>
                <path class="cls-29" d="M179.84,277.82c6.18,11.65,11.28,24.37,16.2,36.62-7.69-15.57-16.56-31.18-23.24-47.18h.7c2,3.47,4.5,7.09,6.34,10.56Z"/>
                <path class="cls-10" d="M72.09,236.97c-1.46.37-1.33.69-1.41.7l-11.27,2.82c-4.75.92-9.94,1.22-14.79,2.11,12.2-4.41,25.43-6.88,38.38-7.75-3.03,2.13-7.64,1.28-10.92,2.11Z"/>
                <path class="cls-6" d="M165.05,123.59c-1.08,7.26-2.55,14.54-3.52,21.83-.49,3.69-1.72,7.17-2.11,10.56l-1.41-.7c.88-7.76,3.17-21.64,4.93-29.23.15-.64.91-2.96,2.11-2.46Z"/>
                <path class="cls-13" d="M146.04,294.01c-.03-.46.03-.95,0-1.41-.47-7.57.31-15.34-1.41-22.89,2.71,5.37,3,14.84,2.82,21.13-.04,1.29.71,3.48-1.41,3.17Z"/>
                <path class="cls-24" d="M191.81,130.63c-3.09,6.02-6.7,11.7-9.86,17.61l-.7-.7c2.88-5.59,5.93-12.79,10.56-16.9Z"/>
                <path class="cls-48" d="M201.67,301.06c-5.61-5.08-9.37-11.81-14.08-17.61,6.1,4.71,9.57,11.62,14.08,17.61Z"/>
                <path class="cls-24" d="M186.18,270.07c2.05,2.64,4.35,6.72,5.63,9.86-2.78-4.09-6.3-8.21-9.15-12.32.46-2.17,3.39,2.29,3.52,2.46Z"/>
                <path class="cls-48" d="M178.43,155.99c-.24.45-.47.96-.7,1.41-1.5,2.81-2.88,5.88-4.58,8.45-1.52-.5,3.92-9.16,4.58-10.56l.7.7Z"/>
                <path class="cls-44" d="M181.95,148.24c-1.29,2.42-2.2,5.27-3.52,7.75l-.7-.7c1.21-2.57,2.21-5.2,3.52-7.75l.7.7Z"/>
                <path class="cls-47" d="M215.76,247.54c5.28,1.13,10.37,3.35,15.49,4.93,4.26,1.31,33.46,10.77,34.86,11.97,1,.86.41,19.56-.7,20.42l-63.38-38.03c.3-3.76,7.12.48,8.45.7,1.58.27,3.79-.32,5.28,0Z"/>
                <path class="cls-47" d="M249.56,241.2c2.31.58,16.45,3.13,16.9,3.87.65,1.08-.23,15.38-.35,17.96-11.02-4.2-21.97-8.61-32.75-13.38-9.44-4.18-17.64-8.3-27.46-11.97-.51-.19-2.35.02-1.76-1.41,3,.56,5.93-.45,8.8-.7l36.62,5.63Z"/>
                <path class="cls-13" d="M71.39,220.77c5.89-.96,11.61-2.29,17.61-2.82,14.28-1.26,29.02-1.06,43.31,0l-80.99,7.75c-1.14.19-1.53-.74-.7-1.41s17.89-3.05,20.77-3.52Z"/>
                <path class="cls-13" d="M164,227.82c9.01-1.77,23.36,1.92,32.75,2.46l-34.15-1.06c-1.93.82-3.1,22.14-5.63,26.06-1.62-9.12,1.57-17.69,3.17-26.41,1.3-.04,2.99-.88,3.87-1.06Z"/>
                <path class="cls-42" d="M233.36,249.65c.12.85-1.2,1.19-1.41,1.41-8.3-2.09-15.99-6.34-23.94-9.15-.82-.29-2.27-1.22-2.82-1.41l.7-2.82c9.82,3.67,18.02,7.79,27.46,11.97Z"/>
                <path class="cls-13" d="M94.63,209.51c.57-1.81,2.25,0,2.82,0,5.54-.06,44.54-4.27,45.77-1.06l-4.58,5.28c-1.1-2.3,4.06-3.19,1.41-4.93-14.94,2.62-30.32,1.25-45.42.7Z"/>
                <path class="cls-13" d="M143.57,225c-.05,12.02,3.42,24.36-.7,35.92l.7-35.92Z"/>
                <path class="cls-39" d="M252.38,175.7c-14.86,5.78-29.64,13.4-45.07,17.61-1.41.38-2.99,1.51-4.58,1.41,12.61-6.25,27.7-11.18,41.55-16.2,2.81-1.02,5.42-1.89,8.1-2.82Z"/>
                <path class="cls-13" d="M162.59,244.01c9.05,6.32,16.52,14.45,24.3,22.18-9.01-5.29-18.45-13.48-24.3-22.18Z"/>
                <path class="cls-9" d="M241.11,195.42h1.41c-7.5,1.82-38.36,12.35-42.96,11.97-.54-.04-.78-.1-.7-.7,9.15-3.06,33.71-11.27,42.25-11.27Z"/>
                <path class="cls-39" d="M253.08,208.1v1.41c-13.32.68-25.24,2.71-38.03,6.34l30.99-7.75c2.33-.06,4.71.1,7.04,0Z"/>
                <polygon class="cls-13" points="190.05 196.13 175.97 209.51 170.69 211.27 190.05 196.13"/>
                <path class="cls-13" d="M159.42,155.99c-1.25,10.76-.64,21-1.76,31.69-1.48-10.87-.87-21.56.35-32.39l1.41.7Z"/>
                <path class="cls-46" d="M249.56,241.2l-36.62-5.63c12.09-1.08,24.94,2.7,36.62,5.63Z"/>
                <path class="cls-5" d="M231.95,150.35c-8.48,6.5-17.05,12.98-25.35,19.72,5.19-9.1,17.42-13.03,24.65-20.42l.7.7Z"/>
                <path class="cls-39" d="M242.52,162.32c-6.59,3.65-12.99,7.85-19.72,11.27-1.2.61-6.26,1.02-7.04,1.41v-.7c3.05-1.56,6.74-1.83,8.8-2.82,3.44-1.64,14.79-10.02,16.55-10.56.45-.14,1.41.85,1.41,1.41Z"/>
                <path class="cls-11" d="M84.07,213.03v.7c-4.13-.99-7.9-.89-11.97-1.41-.23-.03-.47.03-.7,0l-3.52-.7c-3.31-.38-6.58-.37-9.86-.7v-2.11c8.76.81,17.71,1.37,26.06,4.23Z"/>
                <path class="cls-13" d="M166.81,214.44l30.63,3.17c-10.24.15-20.75-.4-30.63-3.17Z"/>
                <path class="cls-16" d="M231.95,251.06c-.11.12-.62,1.08-.7,1.41-5.13-1.58-10.21-3.8-15.49-4.93-1.7-1.57-5.74-4.12-7.75-4.93v-.7c7.96,2.82,15.65,7.06,23.94,9.15Z"/>
                <path class="cls-25" d="M137.94,131.34c.92,11.2,2.87,22.62.7,33.8l-.7-33.8Z"/>
                <path class="cls-13" d="M150.26,291.9l-1.41.7c-.15-8.92-.27-17.9,1.06-26.76.93,8.65-.03,17.4.35,26.06Z"/>
                <polygon class="cls-13" points="182.31 194.72 173.85 196.83 153.08 196.48 182.31 194.72"/>
                <path class="cls-1" d="M205.19,240.49c.54.19,1.99,1.12,2.82,1.41v.7c-7.66-3.1-17.63-4.94-25.7-7.04,7.6-.4,15.68,2.46,22.89,4.93Z"/>
                <path class="cls-37" d="M212.94,176.41c-7.2,3.56-13.77,8.72-20.77,12.68,4.54-5.4,13.56-10.07,20.07-13.38l.7.7Z"/>
                <polygon class="cls-13" points="127.38 220.07 121.74 225.7 111.53 230.99 127.38 220.07"/>
                <path class="cls-46" d="M214,159.51c2.08-.01-.41,1.86-.7,2.11-2.98,2.55-8.78,6.07-12.32,8.1l13.03-10.21Z"/>
                <path class="cls-40" d="M229.14,266.55c-3.43-1.72-7.26-2.9-10.56-4.93l2.46-.7,8.1,5.63Z"/>
                <path class="cls-31" d="M165.76,166.55c-1.27,4.15-2.36,10.44-4.23,14.08l-.7-.7c.85-5.03,2.87-9.3,4.23-14.08l.7.7Z"/>
                <path class="cls-32" d="M160.12,276.41l-.7.7c-.78-5.79-3.18-11.59-2.46-17.61,1.43,5.53,2.22,11.28,3.17,16.9Z"/>
                <path class="cls-25" d="M169.28,183.45l-7.75,7.39c1.87-3.1,4.82-5.31,7.04-8.1l.7.7Z"/>
                <path class="cls-23" d="M169.28,270.07l-.7.7c-.89-4.06-2.19-7.78-2.82-11.97l.7-.7c1.25,3.71,1.81,8.13,2.82,11.97Z"/>
                <path class="cls-18" d="M155.54,159.51c2.29,1.89-.75,7.58-1.41,9.86l1.41-9.86Z"/>
                <path class="cls-37" d="M198.85,206.69c-.07.6.17.66.7.7v.7c-2.58.09-4.6,1.13-7.04,1.06-.38-1.49,5.44-2.16,6.34-2.46Z"/>
                <path class="cls-35" d="M89,215.85h-.7c-.5-1.6-2.83-1.78-4.23-2.11v-.7c1.28.44,4.13.52,5.28,1.41.76.59-.67.94-.35,1.41Z"/>
                <path class="cls-46" d="M173.5,267.25h-.7c-.37-.89-2.68-2.76-1.76-4.23,1.33.47,1.71,2.92,2.46,4.23Z"/>
                <path class="cls-26" d="M215.76,174.3v.7c-.93.46-1.88.95-2.82,1.41l-.7-.7c1.16-.59,2.66-.97,3.52-1.41Z"/>
                <path class="cls-35" d="M166.46,258.1l-.7.7c-.02-.16-1.4-1.91-.7-3.17.6-.58,1.27,2.05,1.41,2.46Z"/>
                <path class="cls-21" d="M161.53,180.63c-.2.4-.8,2.49-1.41,1.76-.64-1.39.68-2.34.7-2.46l.7.7Z"/>
              </g>
            </g>
            <g>
              <path class="cls-42" d="M125.61,127.82c2.07,7.38,4.88,16.93,6.34,24.65,2.6,13.74.99,28.11,1.41,42.25-.22.42.37,1.89-.35,2.11-2.36.71-16.44.1-20.07,0-3.89-.1-13.38.53-16.55-.7-1.13-.44-3.79-4.48-4.93-4.93-3.29-1.29-8.78-1.83-12.68-3.52-7.75-3.36-15.38-7.42-22.89-11.27,7.1,2.29,28,11.34,33.45,11.27,1.23-.02,1.68.04,2.46-1.06l-29.58-20.77c3.36,1.8,8.87,3.39,11.97,4.93,2.72,1.81,6.14,5.8,9.86,5.99-2.78-2.87-6.39-4.26-9.86-5.99-3.49-2.32-7-4.83-10.56-7.04l36.27,18.31,1.76-.35c-2.02-1.89-3.86-3.87-5.63-5.99.15-2.21-3.54-6.53-4.93-8.1-3.35-3.8-8.15-8.23-11.97-11.62l29.23,19.01-6.69-9.15c-1.86-6.23-7.76-12.52-11.97-17.61l26.06,18.31c.45.4.84,2.27,2.11,1.06-4.45-6.76-8.41-13.88-12.68-20.77,3.43-2,14.56,19.78,14.08,10.92-.14-2.62-7.54-20.08-9.15-23.94-8.73-20.9-21.12-40.3-28.17-61.97,9.35,18.05,18.76,36.2,27.46,54.58-.49,3.99,3.28,9.5,4.93,13.38,3.66,8.62,6.18,18.01,12.32,25.35l-11.62-25.35c-1.31-3.46-2.69-8.01-4.23-11.27,7.32,8.18,9.39,19.8,17.25,27.46-3.38-30.22-18-58.55-22.54-88.73,5.81,20.42,14.35,40.16,20.07,60.56Z"/>
              <g>
                <path class="cls-27" d="M100.26,138.38c1.56,2.41,3.28,5.79,4.93,8.45,4.26,6.9,8.23,14.01,12.68,20.77-1.27,1.21-1.67-.65-2.11-1.06-.29-.26-2.03-1.99-2.11-2.11-4.23-6.05-10.03-16.76-14.08-23.59-.51-.85-1.47-2.81.7-2.46Z"/>
                <path class="cls-10" d="M89.7,148.24c4.21,5.08,10.11,11.38,11.97,17.61-1.46-.32-1.41-1.91-2.11-2.82-3.95-5.11-7.79-10.58-11.97-15.49l.7-.7c.38.45.93.84,1.41,1.41Z"/>
                <path class="cls-29" d="M129.84,139.79l2.82,11.97c-.1.14.11.82-.7.7-1.46-7.72-4.27-17.26-6.34-24.65,1.44,4.02,2.39,8.07,4.23,11.97Z"/>
                <path class="cls-44" d="M110.83,128.52c1.53,3.26,2.91,7.81,4.23,11.27h-.7c-1.65-3.88-5.42-9.39-4.93-13.38.14.3,1.27,1.81,1.41,2.11Z"/>
                <path class="cls-27" d="M55.9,176.41c7.51,3.85,15.14,7.91,22.89,11.27,3.9,1.69,9.39,2.24,12.68,3.52,1.14.44,3.79,4.49,4.93,4.93,3.17,1.23,12.66.6,16.55.7v1.41c-2.82-.05-16.83.5-17.96,0-.39-.17-2.08-4.56-5.63-6.34-14.56-7.31-33.82-11.94-48.94-20.42,5.2,1.51,10.34,3.27,15.49,4.93Z"/>
                <path class="cls-23" d="M134.77,194.72c-.27,1.23.58,2.54-1.06,3.52-6.92-.09-13.86.12-20.77,0v-1.41c3.63.1,17.71.71,20.07,0,.72-.22.14-1.69.35-2.11.03-.06.99.04,1.41,0Z"/>
                <path class="cls-10" d="M77.73,154.58c.44.38.88.94,1.41,1.41,3.82,3.39,8.62,7.82,11.97,11.62,1.39,1.57,5.08,5.89,4.93,8.1-1.59-1.89-3.26-3.82-4.93-5.63-2.7-2.94-16.1-14.04-16.2-15.14-.19-2.19,2.4.09,2.82-.35Z"/>
                <path class="cls-43" d="M115.76,191.2c.07.03.84.45,1.41.7,1.06.47,2.71.42,3.52,1.76l-16.9-2.46c-.15-.5-1.24-3.24-1.41-3.52,4.36,1.18,9.17,1.92,13.38,3.52Z"/>
                <path class="cls-4" d="M114.35,139.79h.7l11.62,25.35c-6.15-7.34-8.67-16.74-12.32-25.35Z"/>
                <path class="cls-46" d="M63.64,163.73c3.56,2.21,7.07,4.72,10.56,7.04-3.1-1.54-8.62-3.13-11.97-4.93-.29-.16-1.01-.81-2.11-1.41-.98-1.38-.99-2.18.7-2.82.52.31,1.45,1.26,2.82,2.11Z"/>
                <polygon class="cls-13" points="117.52 170.77 121.39 175.35 125.97 187.68 117.52 170.77"/>
                <path class="cls-48" d="M102.38,187.68c.17.28,1.26,3.02,1.41,3.52.22.73,1.56,3.87,0,3.87-.16-1.65-5.42-10.28-3.87-10.92.85,1.07,1.78,2.36,2.46,3.52Z"/>
                <path class="cls-39" d="M117.16,191.9c-.57-.25-1.33-.68-1.41-.7l-3.87-11.27,5.28,11.97Z"/>
                <path class="cls-46" d="M74.21,170.77c3.47,1.72,7.08,3.12,9.86,5.99-3.72-.19-7.14-4.18-9.86-5.99Z"/>
                <path class="cls-23" d="M121.74,171.48c2.46.64,4.99,2.95,5.99,5.28-2.27.26-5.12-3.53-5.99-5.28Z"/>
                <path class="cls-17" d="M85.12,178.52c1.92-.31,3.18,1.21,2.11,2.82l-2.11-2.82Z"/>
              </g>
            </g>
            <g>
              <path class="cls-42" d="M130.54,286.27c-3.36,14.14-8.07,29.06-11.97,42.96-4.03,14.36-8.07,29.02-13.03,42.96,5.29-32.12,19.2-62.98,21.83-95.77-2.47,1.86-2.69,6.63-6.69,6.34,2.95-6.83,6.21-13.57,9.86-20.07.05-2.09-1.98.49-2.11.7-2.69,4.42-4.31,11.78-7.75,16.2l-16.9,40.49c-6.37,13.61-12.12,27.8-19.37,40.85l-.35-1.76,38.03-86.62-9.15,5.99c3.1-4.48,9.97-12.97,11.97-17.25.31-.66,1.58-3.2-.7-2.11-10.97,15.71-21.48,31.8-32.39,47.54-2.98,4.3-7.1,8.68-9.86,12.68l28.87-48.94c-.09-2.54-8.05,5.88-9.86,4.58,4.08-4.65,7.62-9.98,11.97-14.44-1.94-.6-5.16,3.68-6.34,4.93-11.69,12.42-23.49,25.64-33.8,39.08-7.32,7.79-14.55,15.75-21.83,23.59l-10.56,9.15,64.08-74.65-.35-1.76-24.3,16.2c15.37-12.69,31.6-29.03,47.89-40.14,1.28-.88,5.43-5.43,7.04-1.76.43.97,1.24,18.29,1.41,21.13.15,2.48.9,25.24-.35,25l-1.41-16.9c-1.57,7.24-2.16,14.61-3.87,21.83Z"/>
              <g>
                <path class="cls-8" d="M127.73,236.97c-16.28,11.12-32.51,27.46-47.89,40.14-9.52,7.86-19.46,15.45-29.58,22.54,25.72-21.23,50.47-43.75,77.46-63.38v.7Z"/>
                <path class="cls-8" d="M100.97,275c-.97,1.1-2.36,2.21-3.52,3.52-3.16,3.55-6.64,7.03-9.86,10.56-4.81,5.27-9.9,10.3-14.79,15.49,10.31-13.45,22.11-26.67,33.8-39.08,1.17-1.25,4.4-5.53,6.34-4.93-4.35,4.46-7.89,9.79-11.97,14.44Z"/>
                <path class="cls-8" d="M112.94,278.52c-6.69,9.66-13.71,19.21-20.42,28.87l-.7-.7c10.91-15.74,21.43-31.82,32.39-47.54,2.28-1.09,1.01,1.46.7,2.11-2,4.29-8.87,12.77-11.97,17.25Z"/>
                <path class="cls-39" d="M120.69,282.75c-5.03,11.64-11.12,24.95-16.9,37.32l16.9-40.49c3.44-4.41,5.06-11.78,7.75-16.2.13-.22,2.16-2.79,2.11-.7-3.65,6.5-6.91,13.24-9.86,20.07Z"/>
                <path class="cls-29" d="M131.25,287.68c.1.36-.05.96,0,1.41l-12.68,40.14c3.9-13.9,8.61-28.82,11.97-42.96-.38,1.45.68,1.33.7,1.41Z"/>
                <path class="cls-24" d="M92.52,307.39c-3.26,4.7-6.6,9.39-9.86,14.08l-1.41-1.41s.23-.01.7-.7c2.76-4,6.88-8.38,9.86-12.68l.7.7Z"/>
                <path class="cls-25" d="M127.38,245.42c.53-.11,1.39-.16,1.76.35.27.61-10.31,5.92-11.97,5.63,1.47-.99,9.32-5.79,10.21-5.99Z"/>
              </g>
            </g>
            <g>
              <path class="cls-13" d="M62.23,377.11c-5.77,3.73-10.24,10.05-14.79,15.14s-11.05,10.2-13.03,16.55c10.51-9.15,19.61-20.49,27.82-31.69,2.34,3.14,4.45,7.02,4.93,10.92.73,5.92-1.69,9.91-1.06,15.14,11.81-15.7,2.28-37.8-18.31-37.32-2.86.07-7.36,2.44-10.21,1.76,22.89-17.71,47.59,13.7,31.69,35.21-2.84,3.85-8.97,6.28-10.92,11.62-10.14-.83-28.7,4.17-31.34-10.21-.31-1.69-.35-20.13,0-21.13s15.32-12.56,17.25-13.03c7.54-1.83,13.56,1.14,17.96,7.04Z"/>
              <path class="cls-47" d="M62.23,377.11c-8.21,11.2-17.3,22.54-27.82,31.69,1.98-6.35,8.65-11.65,13.03-16.55s9.02-11.41,14.79-15.14Z"/>
              <path class="cls-30" d="M59.77,392.61c2.91,7.69-2.86,8.74-8.45,11.27l8.45-11.27Z"/>
              <path class="cls-20" d="M47.09,379.93l-8.45,11.27c-2.41-6.91,3.72-8.36,8.45-11.27Z"/>
            </g>
            <g>
              <path class="cls-13" d="M245.69,362.32c5.06-.52,12.87,1.31,15.85,5.99-22.45-10.37-43.86,14.78-28.17,33.8-2.38-7.75-2.26-16.76,2.46-23.59l28.87,30.28-27.82-32.04c3.96-6.87,14.65-8.86,21.48-5.99,4.88,2.05,6.38,7.61,9.15,10.56.82.87,3.85.22,4.58,1.76.5,1.05.36,21.66,0,23.24-2.08,9.22-25.93,10.23-31.34,8.1-.39-.16-2.63-4.78-3.17-5.28-8.51-8-13.88-13.43-11.97-26.76,1.23-8.55,11.31-19.17,20.07-20.07Z"/>
              <path class="cls-20" d="M240.05,393.31l7.04,9.86c-6.07-1.03-10.82-2.8-7.04-9.86Z"/>
              <path class="cls-20" d="M251.32,379.23c3.1.8,11.32,8.54,7.75,11.27-.57.43-10.2-11.26-7.75-11.27Z"/>
            </g>
            <g>
              <path class="cls-13" d="M272.09,55.99c-5.45,4.8-.69,10.83-7.75,12.68-14.57,3.82-30.01-.06-31.69-17.25-.47-4.85,1.25-7.72,1.41-11.27,0-.21-2.12-3.32-2.11-3.52.07-1.59,2.7-.02,3.17-.35,1.95-1.37,8.06-8.84,9.15-9.15,1.85-.54,19.79-.76,21.83,0,8.07,3,6.59,21.58,5.99,28.87Z"/>
              <polygon class="cls-47" points="265.4 32.75 254.49 47.89 240.76 63.03 251.67 47.89 265.4 32.75"/>
              <path class="cls-30" d="M249.21,37.68c2.54.31-7.23,10.27-7.75,9.86-2.08-4.92,3.55-10.37,7.75-9.86Z"/>
              <path class="cls-20" d="M261.18,52.46c2.16,6.16-1.42,8.22-6.34,10.56-1.69-.91,5.02-9.93,6.34-10.56Z"/>
            </g>
            <g>
              <path class="cls-13" d="M36.18,68.66c-1.32-.35-4.12.76-4.93-1.06-.42-.95-.07-3.48-1.41-6.69-.87-2.08-2.59-1.11-2.82-1.76-.41-1.16-.36-23.13,0-24.65.23-.96,4.76-6.21,5.99-6.69,2.14-.83,21.92-1.29,23.94-.7.67.2,10.11,8.82,10.21,9.51.02.17-2.16,2.26-2.11,2.82.78,9.28,3.69,14.4-2.82,23.24-7.05,9.58-15.79,8.69-26.06,5.99Z"/>
              <path class="cls-47" d="M32.31,34.15c9.46,8.91,18.42,19.07,26.06,29.58-9.84-7.74-19.39-19.01-26.06-29.58Z"/>
              <path class="cls-28" d="M60.12,48.94c-2.92.58-8.66-4.87-10.56-7.04-.89-1.01-3.12-1.36-1.76-3.52,8.98.4,9.42,3.15,12.32,10.56Z"/>
              <path class="cls-43" d="M60.12,48.94c.37.95,4.63,2.86.35,6.34l-10.92-13.38c1.9,2.17,7.64,7.63,10.56,7.04Z"/>
              <path class="cls-47" d="M37.94,53.17c2.84,2.73,5.93,5.77,6.34,9.86-4.88-.82-8.14-5.22-6.34-9.86Z"/>
            </g>
            <path class="cls-47" d="M26.32,246.83c-2.94,23.02.05,59.25,0,83.8-.82,2.4-1.04,5.25-1.41,7.75-.7-37.34-.03-74.65,0-111.97l1.41,20.42Z"/>
            <path class="cls-28" d="M31.25,93.31c-3.3,2.14-1.76,11.32-2.11,16.2-.48,6.65-2.52,14.65-2.82,20.42l-1.41-34.51,3.87-4.93c1.8-.18,1.78,2.27,2.46,2.82Z"/>
            <path class="cls-36" d="M26.32,343.31c-1.92,1.45-1.08-.42-2.11-1.41,1.3-.39.55-2.46.7-3.52.36-2.5.59-5.34,1.41-7.75,0,4.21.09,8.47,0,12.68Z"/>
            <path class="cls-17" d="M253.08,209.51v-1.41c3.44-.15,10.58-.2,13.38-.7,1.22-.22,2.43-1.6,3.52-2.11-.23,13.01-2.55,3.87-3.87,3.52-3.16-.82-9.49.52-13.03.7Z"/>
            <path class="cls-34" d="M274.21,245.42c0,25.11-.62,50.28-.7,75.35l-2.11.7c1.36-24.38-3.05-51.37,0-76.06.85.18,1.92-.12,2.82,0Z"/>
            <path class="cls-42" d="M77.73,154.58c-.42.44-3.01-1.84-2.82.35.1,1.1,13.49,12.2,16.2,15.14l-59.86-48.94c.95-1.68,2.79.36,3.87,1.06,11.99,7.77,31.74,22.96,42.61,32.39Z"/>
            <path class="cls-42" d="M60.83,161.62c-1.7.64-1.68,1.43-.7,2.82-8.92-4.87-17.36-10.6-26.06-15.85,1.29-1.13,2.32.05,3.17.35,5.68,2.04,17.99,9.3,23.59,12.68Z"/>
            <path class="cls-42" d="M242.52,162.32c0-.56-.96-1.55-1.41-1.41,8.29-4,16.5-8.46,24.3-13.38.83.25-.39,2.52-.7,2.82-2.39,2.32-18.04,9.68-22.18,11.97Z"/>
            <path class="cls-42" d="M84.07,213.73c1.39.33,3.72.51,4.23,2.11-5.64.5-10.87-1.97-16.2-3.52,4.07.52,7.84.42,11.97,1.41Z"/>
            <path class="cls-28" d="M71.39,212.32c-1.3-.16-2.89-.63-3.52-.7l3.52.7Z"/>
          </g>
        </g>
      </g>
    </g>
  </g>
</svg>